IBM Plex Sans Var-Thin Condensed Italic.ufo
<glyph name="exclam" format="1">
  <advance width="224"/>
  <unicode hex="0021"/>
  <outline>
    <contour>
      <point x="101" y="176" type="line" name="hr00"/>
      <point x="155" y="415" type="line"/>
      <point x="211" y="698" type="line"/>
      <point x="189" y="698" type="line"/>
      <point x="132" y="415" type="line"/>
      <point x="89" y="176" type="line"/>
    </contour>
    <contour>
      <point x="61" y="-5" type="curve" smooth="yes"/>
      <point x="80" y="-5"/>
      <point x="87" y="6"/>
      <point x="90" y="17" type="curve" smooth="yes"/>
      <point x="91" y="21"/>
      <point x="93" y="30"/>
      <point x="93" y="34" type="curve" smooth="yes"/>
      <point x="93" y="43"/>
      <point x="87" y="53"/>
      <point x="71" y="53" type="curve" smooth="yes"/>
      <point x="52" y="53"/>
      <point x="45" y="42"/>
      <point x="42" y="31" type="curve" smooth="yes"/>
      <point x="41" y="27"/>
      <point x="39" y="18"/>
      <point x="39" y="14" type="curve" smooth="yes"/>
      <point x="39" y="5"/>
      <point x="45" y="-5"/>
    </contour>
  </outline>
</glyph>
<glyph name="numbersign" format="1">
  <advance width="639"/>
  <unicode hex="0023"/>
  <outline>
    <contour>
      <point x="279" y="0" type="line" name="hr00"/>
      <point x="300" y="0" type="line"/>
      <point x="378" y="220" type="line"/>
      <point x="516" y="220" type="line"/>
      <point x="520" y="239" type="line"/>
      <point x="385" y="239" type="line"/>
      <point x="462" y="459" type="line"/>
      <point x="598" y="459" type="line"/>
      <point x="602" y="478" type="line"/>
      <point x="470" y="478" type="line"/>
      <point x="548" y="698" type="line"/>
      <point x="527" y="698" type="line"/>
      <point x="450" y="478" type="line"/>
      <point x="283" y="478" type="line"/>
      <point x="362" y="698" type="line"/>
      <point x="341" y="698" type="line"/>
      <point x="263" y="478" type="line"/>
      <point x="125" y="478" type="line"/>
      <point x="121" y="459" type="line"/>
      <point x="256" y="459" type="line"/>
      <point x="179" y="239" type="line"/>
      <point x="43" y="239" type="line"/>
      <point x="39" y="220" type="line"/>
      <point x="171" y="220" type="line"/>
      <point x="93" y="0" type="line"/>
      <point x="114" y="0" type="line"/>
      <point x="191" y="220" type="line"/>
      <point x="358" y="220" type="line"/>
    </contour>
    <contour>
      <point x="199" y="239" type="line"/>
      <point x="276" y="459" type="line"/>
      <point x="442" y="459" type="line"/>
      <point x="365" y="239" type="line"/>
    </contour>
  </outline>
</glyph>
<glyph name="dollar" format="1">
  <advance width="485"/>
  <unicode hex="0024"/>
  <outline>
    <contour>
      <point x="185" y="-82" type="line"/>
      <point x="203" y="6" type="line"/>
      <point x="204" y="11" type="line"/>
      <point x="341" y="698" type="line"/>
      <point x="342" y="703" type="line"/>
      <point x="357" y="780" type="line"/>
      <point x="337" y="780" type="line"/>
      <point x="322" y="703" type="line"/>
      <point x="321" y="698" type="line"/>
      <point x="184" y="11" type="line"/>
      <point x="183" y="6" type="line"/>
      <point x="165" y="-82" type="line"/>
    </contour>
    <contour>
      <point x="424.0" y="207.0" type="curve" smooth="yes"/>
      <point x="424.0" y="292.0"/>
      <point x="380" y="340"/>
      <point x="296" y="362" type="curve" smooth="yes"/>
      <point x="230.0" y="379.0" type="line" smooth="yes"/>
      <point x="160" y="397"/>
      <point x="127.0" y="446.0"/>
      <point x="127.0" y="513.0" type="curve" smooth="yes"/>
      <point x="127.0" y="608.0"/>
      <point x="187" y="690"/>
      <point x="306.0" y="690.0" type="curve" smooth="yes"/>
      <point x="407" y="690"/>
      <point x="444" y="654"/>
      <point x="470.0" y="601.0" type="curve"/>
      <point x="488.0" y="612.0" type="line"/>
      <point x="461.0" y="667.0"/>
      <point x="415" y="710"/>
      <point x="308.0" y="710.0" type="curve" smooth="yes"/>
      <point x="177" y="710"/>
      <point x="105.0" y="620.0"/>
      <point x="105.0" y="513.0" type="curve" smooth="yes"/>
      <point x="105.0" y="436.0"/>
      <point x="145" y="380"/>
      <point x="223" y="359" type="curve" smooth="yes"/>
      <point x="291.0" y="341.0" type="line" smooth="yes"/>
      <point x="367.0" y="322.0"/>
      <point x="401.0" y="280.0"/>
      <point x="401.0" y="207.0" type="curve" smooth="yes"/>
      <point x="401.0" y="106.0"/>
      <point x="347" y="20"/>
      <point x="215.0" y="20.0" type="curve" smooth="yes"/>
      <point x="105" y="20"/>
      <point x="61.0" y="64.0"/>
      <point x="31.0" y="124.0" type="curve"/>
      <point x="13.0" y="111.0" type="line"/>
      <point x="44.0" y="49.0"/>
      <point x="99" y="0"/>
      <point x="212.0" y="0.0" type="curve" smooth="yes"/>
      <point x="355" y="0"/>
      <point x="424.0" y="94.0"/>
    </contour>
  </outline>
</glyph>
<glyph name="ampersand" format="1">
  <advance width="610"/>
  <unicode hex="0026"/>
  <outline>
    <contour>
      <point x="498" y="0" type="line"/>
      <point x="524" y="0" type="line"/>
      <point x="431" y="132" type="line"/>
      <point x="464" y="187"/>
      <point x="489" y="260"/>
      <point x="505" y="331" type="curve"/>
      <point x="584" y="331" type="line"/>
      <point x="588" y="351" type="line"/>
      <point x="490" y="351" type="line"/>
      <point x="475" y="280"/>
      <point x="450" y="202"/>
      <point x="419" y="148" type="curve"/>
      <point x="267" y="368" type="line"/>
      <point x="425" y="462"/>
      <point x="486" y="505"/>
      <point x="486" y="593" type="curve" smooth="yes"/>
      <point x="486" y="661"/>
      <point x="442" y="710"/>
      <point x="359" y="710" type="curve" smooth="yes"/>
      <point x="248" y="710"/>
      <point x="181" y="626"/>
      <point x="181" y="524" type="curve" smooth="yes"/>
      <point x="181" y="490"/>
      <point x="192" y="443"/>
      <point x="237" y="374" type="curve"/>
      <point x="82" y="296"/>
      <point x="41" y="217"/>
      <point x="41" y="136" type="curve" smooth="yes"/>
      <point x="41" y="36"/>
      <point x="104" y="-12"/>
      <point x="200" y="-12" type="curve" smooth="yes" name="hr01"/>
      <point x="285" y="-12"/>
      <point x="366" y="39"/>
      <point x="418" y="111" type="curve" name="hr02"/>
      <point x="420" y="111" type="line"/>
    </contour>
    <contour>
      <point x="354" y="691" type="curve" smooth="yes"/>
      <point x="426" y="691"/>
      <point x="464" y="655"/>
      <point x="464" y="592" type="curve" smooth="yes"/>
      <point x="464" y="513"/>
      <point x="403" y="468"/>
      <point x="255" y="383" type="curve"/>
      <point x="211" y="451"/>
      <point x="203" y="494"/>
      <point x="203" y="524" type="curve" smooth="yes"/>
      <point x="203" y="533"/>
      <point x="205" y="547"/>
      <point x="209" y="569" type="curve" smooth="yes"/>
      <point x="222" y="642"/>
      <point x="278" y="691"/>
    </contour>
    <contour>
      <point x="204" y="8" type="curve" smooth="yes" name="hr03"/>
      <point x="117" y="8"/>
      <point x="63" y="46"/>
      <point x="63" y="133" type="curve" smooth="yes"/>
      <point x="63" y="143"/>
      <point x="63" y="151"/>
      <point x="65" y="162" type="curve" smooth="yes"/>
      <point x="79" y="240"/>
      <point x="117" y="292"/>
      <point x="249" y="359" type="curve"/>
      <point x="408" y="130" type="line"/>
      <point x="359" y="59"/>
      <point x="286" y="8"/>
    </contour>
  </outline>
</glyph>
<glyph name="quotesingle" format="1">
  <advance width="200"/>
  <unicode hex="0027"/>
  <outline>
    <contour>
      <point x="157" y="490" type="line" name="hr00"/>
      <point x="207" y="740" type="line"/>
      <point x="187" y="740" type="line"/>
      <point x="137" y="490" type="line"/>
    </contour>
  </outline>
</glyph>
<glyph name="plus" format="1">
  <advance width="540"/>
  <unicode hex="002B"/>
  <outline>
    <contour>
      <point x="246" y="84" type="line" name="hr00"/>
      <point x="289" y="296" type="line"/>
      <point x="493" y="296" type="line"/>
      <point x="497" y="315" type="line"/>
      <point x="293" y="315" type="line"/>
      <point x="336" y="527" type="line"/>
      <point x="315" y="527" type="line"/>
      <point x="272" y="315" type="line"/>
      <point x="68" y="315" type="line"/>
      <point x="64" y="296" type="line"/>
      <point x="268" y="296" type="line"/>
      <point x="225" y="84" type="line"/>
    </contour>
  </outline>
</glyph>
<glyph name="hyphen" format="1">
  <advance width="350"/>
  <unicode hex="002D"/>
  <outline>
    <contour>
      <point x="287" y="295" type="line" name="hr00"/>
      <point x="290" y="315" type="line"/>
      <point x="84" y="315" type="line"/>
      <point x="80" y="295" type="line"/>
    </contour>
  </outline>
</glyph>
<glyph name="slash" format="1">
  <advance width="275"/>
  <unicode hex="002F"/>
  <outline>
    <contour>
      <point x="-57" y="-151" type="line" name="hr00"/>
      <point x="344" y="740" type="line"/>
      <point x="324" y="740" type="line"/>
      <point x="-77" y="-151" type="line"/>
    </contour>
  </outline>
</glyph>
<glyph name="zero" format="1">
  <advance width="540"/>
  <unicode hex="0030"/>
  <outline>
    <contour>
      <point x="235" y="-12" type="curve" smooth="yes" name="hr00"/>
      <point x="378" y="-12"/>
      <point x="459" y="139"/>
      <point x="491" y="302" type="curve" smooth="yes"/>
      <point x="503" y="361"/>
      <point x="508" y="421"/>
      <point x="508" y="476" type="curve" smooth="yes"/>
      <point x="508" y="632"/>
      <point x="456" y="710"/>
      <point x="342" y="710" type="curve" smooth="yes"/>
      <point x="199" y="710"/>
      <point x="118" y="559"/>
      <point x="86" y="396" type="curve" smooth="yes"/>
      <point x="74" y="337"/>
      <point x="69" y="277"/>
      <point x="69" y="222" type="curve" smooth="yes"/>
      <point x="69" y="66"/>
      <point x="121" y="-12"/>
    </contour>
    <contour>
      <point x="235" y="8" type="curve" smooth="yes"/>
      <point x="128" y="8"/>
      <point x="90" y="87"/>
      <point x="90" y="222" type="curve" smooth="yes"/>
      <point x="90" y="256"/>
      <point x="93" y="294"/>
      <point x="100" y="334" type="curve" smooth="yes"/>
      <point x="110" y="393" type="line" smooth="yes"/>
      <point x="140" y="572"/>
      <point x="224" y="690"/>
      <point x="342" y="690" type="curve" smooth="yes"/>
      <point x="449" y="690"/>
      <point x="487" y="611"/>
      <point x="487" y="476" type="curve" smooth="yes"/>
      <point x="487" y="442"/>
      <point x="484" y="404"/>
      <point x="477" y="364" type="curve" smooth="yes"/>
      <point x="467" y="305" type="line" smooth="yes"/>
      <point x="437" y="126"/>
      <point x="353" y="8"/>
    </contour>
  </outline>
</glyph>
<glyph name="one" format="1">
  <advance width="540"/>
  <unicode hex="0031"/>
  <outline>
    <contour>
      <point x="444" y="0" type="line" name="hr00"/>
      <point x="448" y="20" type="line"/>
      <point x="259" y="20" type="line"/>
      <point x="395" y="698" type="line"/>
      <point x="357" y="698" type="line"/>
      <point x="131" y="536" type="line"/>
      <point x="142" y="520" type="line"/>
      <point x="367" y="682" type="line"/>
      <point x="370" y="682" type="line"/>
      <point x="237" y="20" type="line"/>
      <point x="41" y="20" type="line"/>
      <point x="37" y="0" type="line"/>
    </contour>
  </outline>
</glyph>
<glyph name="four" format="1">
  <advance width="540"/>
  <unicode hex="0034"/>
  <outline>
    <contour>
      <point x="338" y="0" type="line" name="hr00"/>
      <point x="369" y="160" type="line"/>
      <point x="472" y="160" type="line"/>
      <point x="476" y="179" type="line"/>
      <point x="373" y="179" type="line"/>
      <point x="476" y="698" type="line"/>
      <point x="444" y="698" type="line"/>
      <point x="25" y="181" type="line"/>
      <point x="20" y="160" type="line"/>
      <point x="348" y="160" type="line"/>
      <point x="317" y="0" type="line"/>
    </contour>
    <contour>
      <point x="446" y="670" type="line"/>
      <point x="450" y="670" type="line"/>
      <point x="352" y="179" type="line"/>
      <point x="48" y="179" type="line"/>
    </contour>
  </outline>
</glyph>
<glyph name="seven" format="1">
  <advance width="540"/>
  <unicode hex="0037"/>
  <outline>
    <contour>
      <point x="148" y="0" type="line" name="hr00"/>
      <point x="550" y="678" type="line"/>
      <point x="554" y="698" type="line"/>
      <point x="163" y="698" type="line"/>
      <point x="126" y="512" type="line"/>
      <point x="147" y="512" type="line"/>
      <point x="180" y="678" type="line"/>
      <point x="526" y="678" type="line"/>
      <point x="124" y="0" type="line"/>
    </contour>
  </outline>
</glyph>
<glyph name="less" format="1">
  <advance width="540"/>
  <unicode hex="003C"/>
  <outline>
    <contour>
      <point x="428" y="38" type="line" name="hr00"/>
      <point x="432" y="59" type="line"/>
      <point x="118" y="302" type="line"/>
      <point x="118" y="304" type="line"/>
      <point x="530" y="547" type="line"/>
      <point x="535" y="572" type="line"/>
      <point x="97" y="314" type="line"/>
      <point x="93" y="296" type="line"/>
    </contour>
  </outline>
</glyph>
<glyph name="equal" format="1">
  <advance width="540"/>
  <unicode hex="003D"/>
  <outline>
    <contour>
      <point x="501" y="385" type="line" name="hr00"/>
      <point x="505" y="404" type="line"/>
      <point x="76" y="404" type="line"/>
      <point x="72" y="385" type="line"/>
    </contour>
    <contour>
      <point x="467" y="207" type="line"/>
      <point x="471" y="226" type="line"/>
      <point x="42" y="226" type="line"/>
      <point x="38" y="207" type="line"/>
    </contour>
  </outline>
</glyph>
<glyph name="A" format="1">
  <advance width="537"/>
  <unicode hex="0041"/>
  <outline>
    <contour>
      <point x="462" y="0" type="line" name="hr00"/>
      <point x="356" y="698" type="line"/>
      <point x="326" y="698" type="line"/>
      <point x="-17" y="0" type="line"/>
      <point x="7" y="0" type="line"/>
      <point x="121" y="234" type="line"/>
      <point x="405" y="234" type="line"/>
      <point x="440" y="0" type="line"/>
    </contour>
    <contour>
      <point x="402" y="253" type="line"/>
      <point x="131" y="253" type="line"/>
      <point x="277" y="552" type="line"/>
      <point x="336" y="673" type="line"/>
      <point x="339" y="673" type="line"/>
      <point x="357" y="552" type="line"/>
    </contour>
    <contour>
      <point x="221" y="0" type="move" name="bottom"/>
    </contour>
    <contour>
      <point x="462" y="0" type="move" name="bottomright"/>
    </contour>
    <contour>
      <point x="341" y="698" type="move" name="top"/>
    </contour>
  </outline>
</glyph>
<glyph name="D" format="1">
  <advance width="585"/>
  <unicode hex="0044"/>
  <outline>
    <contour>
      <point x="44" y="0" type="line" name="hr00"/>
      <point x="242" y="0" type="line" smooth="yes"/>
      <point x="412" y="0"/>
      <point x="507" y="148"/>
      <point x="540" y="319" type="curve" smooth="yes"/>
      <point x="549" y="366"/>
      <point x="554" y="416"/>
      <point x="554" y="464" type="curve" smooth="yes"/>
      <point x="554" y="611"/>
      <point x="477" y="698"/>
      <point x="340" y="698" type="curve" smooth="yes"/>
      <point x="184" y="698" type="line"/>
    </contour>
    <contour>
      <point x="70" y="20" type="line"/>
      <point x="202" y="678" type="line"/>
      <point x="337" y="678" type="line" smooth="yes"/>
      <point x="465" y="678"/>
      <point x="532" y="596"/>
      <point x="532" y="464" type="curve" smooth="yes"/>
      <point x="532" y="436"/>
      <point x="528" y="384"/>
      <point x="522" y="353" type="curve" smooth="yes"/>
      <point x="511" y="298" type="line" smooth="yes"/>
      <point x="482" y="154"/>
      <point x="395" y="20"/>
      <point x="242" y="20" type="curve" smooth="yes"/>
    </contour>
    <contour>
      <point x="202" y="0" type="move" name="bottom"/>
    </contour>
    <contour>
      <point x="326" y="698" type="move" name="top"/>
    </contour>
  </outline>
</glyph>
<glyph name="E" format="1">
  <advance width="501"/>
  <unicode hex="0045"/>
  <outline>
    <contour>
      <point x="386" y="0" type="line" name="hr00"/>
      <point x="390" y="20" type="line"/>
      <point x="70" y="20" type="line"/>
      <point x="135" y="344" type="line"/>
      <point x="442" y="344" type="line"/>
      <point x="446" y="364" type="line"/>
      <point x="139" y="364" type="line"/>
      <point x="202" y="678" type="line"/>
      <point x="521" y="678" type="line"/>
      <point x="525" y="698" type="line"/>
      <point x="184" y="698" type="line"/>
      <point x="44" y="0" type="line"/>
    </contour>
    <contour>
      <point x="208" y="0" type="move" name="bottom"/>
    </contour>
    <contour>
      <point x="386" y="0" type="move" name="bottomright"/>
    </contour>
    <contour>
      <point x="346" y="698" type="move" name="top"/>
    </contour>
  </outline>
</glyph>
<glyph name="F" format="1">
  <advance width="479"/>
  <unicode hex="0046"/>
  <outline>
    <contour>
      <point x="66" y="0" type="line" name="hr00"/>
      <point x="135" y="344" type="line"/>
      <point x="434" y="344" type="line"/>
      <point x="438" y="364" type="line"/>
      <point x="139" y="364" type="line"/>
      <point x="202" y="678" type="line"/>
      <point x="513" y="678" type="line"/>
      <point x="517" y="698" type="line"/>
      <point x="184" y="698" type="line"/>
      <point x="44" y="0" type="line"/>
    </contour>
    <contour>
      <point x="55" y="0" type="move" name="bottom"/>
    </contour>
    <contour>
      <point x="357" y="698" type="move" name="top"/>
    </contour>
  </outline>
</glyph>
<glyph name="G" format="1">
  <advance width="595"/>
  <unicode hex="0047"/>
  <outline>
    <contour>
      <point x="444" y="0" type="line"/>
      <point x="465" y="0" type="line"/>
      <point x="531" y="332" type="line"/>
      <point x="352" y="332" type="line"/>
      <point x="348" y="312" type="line"/>
      <point x="506" y="312" type="line"/>
      <point x="485" y="205" type="line" smooth="yes"/>
      <point x="458" y="67"/>
      <point x="355" y="8"/>
      <point x="260" y="8" type="curve" smooth="yes" name="hr01"/>
      <point x="140" y="8"/>
      <point x="82" y="97"/>
      <point x="82" y="230" type="curve" smooth="yes"/>
      <point x="82" y="261"/>
      <point x="85" y="304"/>
      <point x="94" y="349" type="curve" smooth="yes"/>
      <point x="104" y="399" type="line" smooth="yes"/>
      <point x="141" y="582"/>
      <point x="237" y="690"/>
      <point x="364" y="690" type="curve" smooth="yes"/>
      <point x="471" y="690"/>
      <point x="515" y="642"/>
      <point x="535" y="564" type="curve"/>
      <point x="555" y="569" type="line"/>
      <point x="535" y="657"/>
      <point x="478" y="710"/>
      <point x="367" y="710" type="curve" smooth="yes"/>
      <point x="201" y="710"/>
      <point x="109" y="556"/>
      <point x="75" y="386" type="curve" smooth="yes"/>
      <point x="65" y="334"/>
      <point x="60" y="281"/>
      <point x="60" y="230" type="curve" smooth="yes"/>
      <point x="60" y="76"/>
      <point x="134" y="-12"/>
      <point x="259" y="-12" type="curve" smooth="yes"/>
      <point x="345" y="-12"/>
      <point x="417" y="26"/>
      <point x="461" y="114" type="curve" name="hr02"/>
      <point x="467" y="114" type="line"/>
    </contour>
    <contour>
      <point x="259" y="0" type="move" name="bottom"/>
    </contour>
    <contour>
      <point x="365" y="698" type="move" name="top"/>
    </contour>
  </outline>
</glyph>
<glyph name="H" format="1">
  <advance width="615"/>
  <unicode hex="0048"/>
  <outline>
    <contour>
      <point x="447" y="0" type="line" name="hr00"/>
      <point x="469" y="0" type="line"/>
      <point x="609" y="698" type="line"/>
      <point x="587" y="698" type="line"/>
      <point x="520" y="364" type="line"/>
      <point x="139" y="364" type="line"/>
      <point x="206" y="698" type="line"/>
      <point x="184" y="698" type="line"/>
      <point x="44" y="0" type="line"/>
      <point x="66" y="0" type="line"/>
      <point x="135" y="344" type="line"/>
      <point x="516" y="344" type="line"/>
    </contour>
    <contour>
      <point x="255" y="0" type="move" name="bottom"/>
    </contour>
    <contour>
      <point x="395" y="698" type="move" name="top"/>
    </contour>
  </outline>
</glyph>
<glyph name="I" format="1">
  <advance width="330"/>
  <unicode hex="0049"/>
  <outline>
    <contour>
      <point x="221" y="0" type="line" name="hr00"/>
      <point x="225" y="19" type="line"/>
      <point x="129" y="19" type="line"/>
      <point x="261" y="679" type="line"/>
      <point x="357" y="679" type="line"/>
      <point x="361" y="698" type="line"/>
      <point x="147" y="698" type="line"/>
      <point x="143" y="679" type="line"/>
      <point x="239" y="679" type="line"/>
      <point x="107" y="19" type="line"/>
      <point x="11" y="19" type="line"/>
      <point x="7" y="0" type="line"/>
    </contour>
    <contour>
      <point x="115" y="0" type="move" name="bottom"/>
    </contour>
    <contour>
      <point x="221" y="0" type="move" name="bottomright"/>
    </contour>
    <contour>
      <point x="254" y="698" type="move" name="top"/>
    </contour>
  </outline>
</glyph>
<glyph name="J" format="1">
  <advance width="412"/>
  <unicode hex="004A"/>
  <outline>
    <contour>
      <point x="168" y="698" type="line" name="hr00"/>
      <point x="164" y="678" type="line"/>
      <point x="385" y="678" type="line"/>
      <point x="286" y="184" type="line" smooth="yes"/>
      <point x="263" y="69"/>
      <point x="224" y="8"/>
      <point x="130" y="8" type="curve" smooth="yes"/>
      <point x="60" y="8"/>
      <point x="9" y="46"/>
      <point x="3" y="123" type="curve"/>
      <point x="-17" y="118" type="line"/>
      <point x="-13" y="43"/>
      <point x="43" y="-12"/>
      <point x="130" y="-12" type="curve" smooth="yes"/>
      <point x="233" y="-12"/>
      <point x="282" y="53"/>
      <point x="307" y="178" type="curve" smooth="yes"/>
      <point x="411" y="698" type="line"/>
    </contour>
    <contour>
      <point x="130" y="0" type="move" name="bottom"/>
    </contour>
    <contour>
      <point x="289" y="698" type="move" name="top"/>
    </contour>
  </outline>
</glyph>
<glyph name="K" format="1">
  <advance width="511"/>
  <unicode hex="004B"/>
  <outline>
    <contour>
      <point x="424" y="0" type="line" name="hr00"/>
      <point x="447" y="0" type="line"/>
      <point x="284" y="402" type="line"/>
      <point x="583" y="698" type="line"/>
      <point x="554" y="698" type="line"/>
      <point x="277" y="423" type="line"/>
      <point x="123" y="270" type="line"/>
      <point x="120" y="270" type="line"/>
      <point x="154" y="439" type="line"/>
      <point x="206" y="698" type="line"/>
      <point x="184" y="698" type="line"/>
      <point x="44" y="0" type="line"/>
      <point x="66" y="0" type="line"/>
      <point x="114" y="238" type="line"/>
      <point x="267" y="388" type="line"/>
    </contour>
    <contour>
      <point x="231" y="0" type="move" name="bottom"/>
    </contour>
    <contour>
      <point x="374" y="698" type="move" name="top"/>
    </contour>
  </outline>
</glyph>
<glyph name="L" format="1">
  <advance width="427"/>
  <unicode hex="004C"/>
  <outline>
    <contour>
      <point x="359" y="0" type="line" name="hr00"/>
      <point x="363" y="20" type="line"/>
      <point x="70" y="20" type="line"/>
      <point x="206" y="698" type="line"/>
      <point x="184" y="698" type="line"/>
      <point x="44" y="0" type="line"/>
    </contour>
    <contour>
      <point x="206" y="0" type="move" name="bottom"/>
    </contour>
    <contour>
      <point x="195" y="698" type="move" name="top"/>
    </contour>
    <contour>
      <point x="290" y="740" type="move" name="topright"/>
    </contour>
  </outline>
</glyph>
<glyph name="M" format="1">
  <advance width="704"/>
  <unicode hex="004D"/>
  <outline>
    <contour>
      <point x="537" y="0" type="line" name="hr00"/>
      <point x="558" y="0" type="line"/>
      <point x="698" y="698" type="line"/>
      <point x="661" y="698" type="line"/>
      <point x="438" y="390" type="line"/>
      <point x="356" y="278" type="line"/>
      <point x="353" y="278" type="line"/>
      <point x="316" y="390" type="line"/>
      <point x="216" y="698" type="line"/>
      <point x="184" y="698" type="line"/>
      <point x="44" y="0" type="line"/>
      <point x="65" y="0" type="line"/>
      <point x="176" y="553" type="line"/>
      <point x="199" y="673" type="line"/>
      <point x="203" y="673" type="line"/>
      <point x="238" y="566" type="line"/>
      <point x="348" y="236" type="line"/>
      <point x="590" y="566" type="line"/>
      <point x="667" y="673" type="line"/>
      <point x="671" y="673" type="line"/>
      <point x="648" y="553" type="line"/>
    </contour>
    <contour>
      <point x="301" y="0" type="move" name="bottom"/>
    </contour>
    <contour>
      <point x="442" y="698" type="move" name="top"/>
    </contour>
  </outline>
</glyph>
<glyph name="N" format="1">
  <advance width="613"/>
  <unicode hex="004E"/>
  <outline>
    <contour>
      <point x="434" y="0" type="line" name="hr00"/>
      <point x="467" y="0" type="line"/>
      <point x="607" y="698" type="line"/>
      <point x="586" y="698" type="line"/>
      <point x="474" y="139" type="line"/>
      <point x="452" y="20" type="line"/>
      <point x="448" y="20" type="line"/>
      <point x="412" y="131" type="line"/>
      <point x="217" y="698" type="line"/>
      <point x="184" y="698" type="line"/>
      <point x="44" y="0" type="line"/>
      <point x="65" y="0" type="line"/>
      <point x="177" y="559" type="line"/>
      <point x="199" y="678" type="line"/>
      <point x="203" y="678" type="line"/>
      <point x="239" y="567" type="line"/>
    </contour>
    <contour>
      <point x="243" y="0" type="move" name="bottom"/>
    </contour>
    <contour>
      <point x="399" y="698" type="move" name="top"/>
    </contour>
  </outline>
</glyph>
<glyph name="O" format="1">
  <advance width="595"/>
  <unicode hex="004F"/>
  <outline>
    <contour>
      <point x="260" y="-12" type="curve" smooth="yes" name="hr00"/>
      <point x="424" y="-12"/>
      <point x="517" y="142"/>
      <point x="550" y="313" type="curve" smooth="yes"/>
      <point x="560" y="364"/>
      <point x="565" y="417"/>
      <point x="565" y="468" type="curve" smooth="yes"/>
      <point x="565" y="622"/>
      <point x="491" y="710"/>
      <point x="365" y="710" type="curve" smooth="yes"/>
      <point x="201" y="710"/>
      <point x="108" y="556"/>
      <point x="75" y="385" type="curve" smooth="yes"/>
      <point x="65" y="334"/>
      <point x="60" y="281"/>
      <point x="60" y="230" type="curve" smooth="yes"/>
      <point x="60" y="76"/>
      <point x="134" y="-12"/>
    </contour>
    <contour>
      <point x="260" y="8" type="curve" smooth="yes"/>
      <point x="140" y="8"/>
      <point x="82" y="97"/>
      <point x="82" y="230" type="curve" smooth="yes"/>
      <point x="82" y="259"/>
      <point x="83" y="300"/>
      <point x="92" y="343" type="curve" smooth="yes"/>
      <point x="102" y="394" type="line" smooth="yes"/>
      <point x="139" y="581"/>
      <point x="239" y="690"/>
      <point x="365" y="690" type="curve" smooth="yes"/>
      <point x="485" y="690"/>
      <point x="543" y="601"/>
      <point x="543" y="468" type="curve" smooth="yes"/>
      <point x="543" y="439"/>
      <point x="542" y="398"/>
      <point x="533" y="355" type="curve" smooth="yes"/>
      <point x="523" y="304" type="line" smooth="yes"/>
      <point x="486" y="117"/>
      <point x="386" y="8"/>
    </contour>
    <contour>
      <point x="243" y="0" type="move" name="bottom"/>
    </contour>
    <contour>
      <point x="382" y="698" type="move" name="top"/>
    </contour>
  </outline>
</glyph>
<glyph name="P" format="1">
  <advance width="527"/>
  <unicode hex="0050"/>
  <outline>
    <contour>
      <point x="66" y="0" type="line" name="hr00"/>
      <point x="131" y="322" type="line"/>
      <point x="343" y="322" type="line" smooth="yes"/>
      <point x="464" y="322"/>
      <point x="544" y="405"/>
      <point x="544" y="550" type="curve" smooth="yes"/>
      <point x="544" y="635"/>
      <point x="493" y="698"/>
      <point x="396" y="698" type="curve" smooth="yes"/>
      <point x="184" y="698" type="line"/>
      <point x="44" y="0" type="line"/>
    </contour>
    <contour>
      <point x="202" y="678" type="line"/>
      <point x="393" y="678" type="line" smooth="yes"/>
      <point x="485" y="678"/>
      <point x="522" y="620"/>
      <point x="522" y="550" type="curve" smooth="yes"/>
      <point x="522" y="539"/>
      <point x="520" y="520"/>
      <point x="513" y="481" type="curve" smooth="yes"/>
      <point x="499" y="401"/>
      <point x="442" y="342"/>
      <point x="346" y="342" type="curve" smooth="yes"/>
      <point x="135" y="342" type="line"/>
    </contour>
    <contour>
      <point x="55" y="0" type="move" name="bottom"/>
    </contour>
    <contour>
      <point x="333" y="698" type="move" name="top"/>
    </contour>
  </outline>
</glyph>
<glyph name="Q" format="1">
  <advance width="595"/>
  <unicode hex="0051"/>
  <outline>
    <contour>
      <point x="327" y="-126" type="line" name=""/>
      <point x="233" y="-126" type="line"/>
      <point x="256" y="-12" type="line"/>
      <point x="425" y="-14"/>
      <point x="517" y="142"/>
      <point x="550" y="313" type="curve" smooth="yes"/>
      <point x="560" y="364"/>
      <point x="565" y="417"/>
      <point x="565" y="468" type="curve" smooth="yes"/>
      <point x="565" y="622"/>
      <point x="491" y="710"/>
      <point x="365" y="710" type="curve" smooth="yes"/>
      <point x="201" y="710"/>
      <point x="108" y="556"/>
      <point x="75" y="385" type="curve" smooth="yes"/>
      <point x="65" y="334"/>
      <point x="60" y="281"/>
      <point x="60" y="230" type="curve" smooth="yes"/>
      <point x="60" y="86"/>
      <point x="124" y="0"/>
      <point x="236" y="-11" type="curve"/>
      <point x="214" y="-115" type="line" smooth="yes"/>
      <point x="213" y="-120"/>
      <point x="212" y="-126"/>
      <point x="212" y="-131" type="curve" smooth="yes"/>
      <point x="212" y="-142"/>
      <point x="222" y="-146"/>
      <point x="235" y="-146" type="curve" smooth="yes"/>
      <point x="323" y="-146" type="line"/>
    </contour>
    <contour>
      <point x="365" y="690" type="curve" smooth="yes"/>
      <point x="485" y="690"/>
      <point x="543" y="601"/>
      <point x="543" y="468" type="curve" smooth="yes"/>
      <point x="543" y="439"/>
      <point x="542" y="398"/>
      <point x="533" y="355" type="curve" smooth="yes"/>
      <point x="523" y="304" type="line" smooth="yes"/>
      <point x="486" y="117"/>
      <point x="386" y="8"/>
      <point x="260" y="8" type="curve" smooth="yes"/>
      <point x="140" y="8"/>
      <point x="82" y="97"/>
      <point x="82" y="230" type="curve" smooth="yes"/>
      <point x="82" y="259"/>
      <point x="83" y="300"/>
      <point x="92" y="343" type="curve" smooth="yes"/>
      <point x="102" y="394" type="line" smooth="yes"/>
      <point x="139" y="581"/>
      <point x="239" y="690"/>
    </contour>
    <contour>
      <point x="370.0" y="698.0" type="move" name="top"/>
    </contour>
  </outline>
</glyph>
<glyph name="R" format="1">
  <advance width="570"/>
  <unicode hex="0052"/>
  <outline>
    <contour>
      <point x="131" y="322" type="line" name="hr00"/>
      <point x="320" y="322" type="line"/>
      <point x="430" y="0" type="line"/>
      <point x="453" y="0" type="line"/>
      <point x="343" y="322" type="line"/>
      <point x="462" y="322"/>
      <point x="544" y="406"/>
      <point x="544" y="550" type="curve" smooth="yes"/>
      <point x="544" y="635"/>
      <point x="489" y="698"/>
      <point x="401" y="698" type="curve" smooth="yes"/>
      <point x="184" y="698" type="line"/>
      <point x="44" y="0" type="line"/>
      <point x="66" y="0" type="line"/>
    </contour>
    <contour>
      <point x="135" y="342" type="line"/>
      <point x="202" y="678" type="line"/>
      <point x="398" y="678" type="line" smooth="yes"/>
      <point x="480" y="678"/>
      <point x="522" y="620"/>
      <point x="522" y="550" type="curve" smooth="yes"/>
      <point x="522" y="539"/>
      <point x="520" y="520"/>
      <point x="513" y="481" type="curve" smooth="yes"/>
      <point x="499" y="401"/>
      <point x="440" y="342"/>
      <point x="348" y="342" type="curve" smooth="yes"/>
    </contour>
    <contour>
      <point x="217" y="0" type="move" name="bottom"/>
    </contour>
    <contour>
      <point x="357" y="698" type="move" name="top"/>
    </contour>
  </outline>
</glyph>
<glyph name="T" format="1">
  <advance width="494"/>
  <unicode hex="0054"/>
  <outline>
    <contour>
      <point x="565" y="678" type="line" name="hr00"/>
      <point x="569" y="698" type="line"/>
      <point x="103" y="698" type="line"/>
      <point x="99" y="678" type="line"/>
      <point x="321" y="678" type="line"/>
      <point x="185" y="0" type="line"/>
      <point x="207" y="0" type="line"/>
      <point x="343" y="678" type="line"/>
    </contour>
    <contour>
      <point x="196" y="0" type="move" name="bottom"/>
    </contour>
    <contour>
      <point x="335" y="698" type="move" name="top"/>
    </contour>
  </outline>
</glyph>
<glyph name="U" format="1">
  <advance width="577"/>
  <unicode hex="0055"/>
  <outline>
    <contour>
      <point x="176" y="698" type="line" name="hr00"/>
      <point x="89" y="263" type="line" smooth="yes"/>
      <point x="78" y="209"/>
      <point x="71" y="171"/>
      <point x="71" y="138" type="curve" smooth="yes"/>
      <point x="71" y="40"/>
      <point x="137" y="-12"/>
      <point x="248" y="-12" type="curve" smooth="yes"/>
      <point x="386" y="-12"/>
      <point x="450" y="51"/>
      <point x="490" y="253" type="curve" smooth="yes"/>
      <point x="579" y="698" type="line"/>
      <point x="557" y="698" type="line"/>
      <point x="468" y="253" type="line" smooth="yes"/>
      <point x="431" y="67"/>
      <point x="376" y="8"/>
      <point x="248" y="8" type="curve" smooth="yes"/>
      <point x="142" y="8"/>
      <point x="93" y="59"/>
      <point x="93" y="140" type="curve" smooth="yes"/>
      <point x="93" y="169"/>
      <point x="99" y="201"/>
      <point x="110" y="258" type="curve" smooth="yes"/>
      <point x="198" y="698" type="line"/>
    </contour>
    <contour>
      <point x="238" y="0" type="move" name="bottom"/>
    </contour>
    <contour>
      <point x="331" y="0" type="move" name="bottomright"/>
    </contour>
    <contour>
      <point x="378" y="698" type="move" name="top"/>
    </contour>
  </outline>
</glyph>
<glyph name="V" format="1">
  <advance width="511"/>
  <unicode hex="0056"/>
  <outline>
    <contour>
      <point x="223" y="0" type="line" name=""/>
      <point x="575" y="698" type="line"/>
      <point x="552" y="698" type="line"/>
      <point x="315" y="230" type="line"/>
      <point x="212" y="20" type="line"/>
      <point x="208" y="20" type="line"/>
      <point x="187" y="230" type="line"/>
      <point x="136" y="698" type="line"/>
      <point x="114" y="698" type="line"/>
      <point x="189" y="0" type="line"/>
    </contour>
    <contour>
      <point x="206.0" y="0.0" type="move" name="bottom"/>
    </contour>
    <contour>
      <point x="345.0" y="698.0" type="move" name="top"/>
    </contour>
  </outline>
</glyph>
<glyph name="W" format="1">
  <advance width="780"/>
  <unicode hex="0057"/>
  <outline>
    <contour>
      <point x="174" y="0" type="line" name="hr00"/>
      <point x="396" y="506" type="line"/>
      <point x="470" y="678" type="line"/>
      <point x="474" y="678" type="line"/>
      <point x="481" y="506" type="line"/>
      <point x="505" y="0" type="line"/>
      <point x="539" y="0" type="line"/>
      <point x="844" y="698" type="line"/>
      <point x="820" y="698" type="line"/>
      <point x="626" y="251" type="line"/>
      <point x="528" y="20" type="line"/>
      <point x="524" y="20" type="line"/>
      <point x="514" y="256" type="line"/>
      <point x="493" y="698" type="line"/>
      <point x="457" y="698" type="line"/>
      <point x="264" y="256" type="line"/>
      <point x="162" y="20" type="line"/>
      <point x="157" y="20" type="line"/>
      <point x="152" y="256" type="line"/>
      <point x="138" y="698" type="line"/>
      <point x="116" y="698" type="line"/>
      <point x="138" y="0" type="line"/>
    </contour>
    <contour>
      <point x="336" y="0" type="move" name="bottom"/>
    </contour>
    <contour>
      <point x="476" y="698" type="move" name="top"/>
    </contour>
  </outline>
</glyph>
<glyph name="X" format="1">
  <advance width="500"/>
  <unicode hex="0058"/>
  <outline>
    <contour>
      <point x="279" y="355" type="line" name="hr00"/>
      <point x="552" y="698" type="line"/>
      <point x="524" y="698" type="line"/>
      <point x="272" y="377" type="line"/>
      <point x="266" y="377" type="line"/>
      <point x="138" y="698" type="line"/>
      <point x="114" y="698" type="line"/>
      <point x="251" y="356" type="line"/>
      <point x="-31" y="0" type="line"/>
      <point x="-4" y="0" type="line"/>
      <point x="259" y="334" type="line"/>
      <point x="265" y="334" type="line"/>
      <point x="397" y="0" type="line"/>
      <point x="421" y="0" type="line"/>
    </contour>
    <contour>
      <point x="194" y="0" type="move" name="bottom"/>
    </contour>
    <contour>
      <point x="334" y="698" type="move" name="top"/>
    </contour>
  </outline>
</glyph>
<glyph name="Y" format="1">
  <advance width="488"/>
  <unicode hex="0059"/>
  <outline>
    <contour>
      <point x="204" y="0" type="line" name="hr00"/>
      <point x="263" y="294" type="line"/>
      <point x="560" y="698" type="line"/>
      <point x="534" y="698" type="line"/>
      <point x="260" y="323" type="line"/>
      <point x="254" y="323" type="line"/>
      <point x="131" y="698" type="line"/>
      <point x="108" y="698" type="line"/>
      <point x="241" y="294" type="line"/>
      <point x="182" y="0" type="line"/>
    </contour>
    <contour>
      <point x="193" y="0" type="move" name="bottom"/>
    </contour>
    <contour>
      <point x="332" y="698" type="move" name="top"/>
    </contour>
  </outline>
</glyph>
<glyph name="Z" format="1">
  <advance width="490"/>
  <unicode hex="005A"/>
  <outline>
    <contour>
      <point x="414" y="20" type="line" name="hr00"/>
      <point x="5" y="20" type="line"/>
      <point x="523" y="676" type="line"/>
      <point x="528" y="698" type="line"/>
      <point x="131" y="698" type="line"/>
      <point x="127" y="678" type="line"/>
      <point x="497" y="678" type="line"/>
      <point x="-21" y="22" type="line"/>
      <point x="-26" y="0" type="line"/>
      <point x="410" y="0" type="line"/>
    </contour>
    <contour>
      <point x="192" y="0" type="move" name="bottom"/>
    </contour>
    <contour>
      <point x="331" y="698" type="move" name="top"/>
    </contour>
  </outline>
</glyph>
<glyph name="bracketleft" format="1">
  <advance width="273"/>
  <unicode hex="005B"/>
  <outline>
    <contour>
      <point x="133" y="-138" type="line" name="hr00"/>
      <point x="137" y="-120" type="line"/>
      <point x="44" y="-120" type="line"/>
      <point x="214" y="742" type="line"/>
      <point x="307" y="742" type="line"/>
      <point x="311" y="760" type="line"/>
      <point x="199" y="760" type="line"/>
      <point x="19" y="-138" type="line"/>
    </contour>
  </outline>
</glyph>
<glyph name="bracketright" format="1">
  <advance width="273"/>
  <unicode hex="005D"/>
  <outline>
    <contour>
      <point x="160" y="760" type="line" name="hr00"/>
      <point x="156" y="742" type="line"/>
      <point x="249" y="742" type="line"/>
      <point x="79" y="-120" type="line"/>
      <point x="-14" y="-120" type="line"/>
      <point x="-18" y="-138" type="line"/>
      <point x="94" y="-138" type="line"/>
      <point x="274" y="760" type="line"/>
    </contour>
  </outline>
</glyph>
<glyph name="asciicircum" format="1">
  <advance width="540"/>
  <unicode hex="005E"/>
  <outline>
    <contour>
      <point x="487" y="332" type="line" name="hr00"/>
      <point x="363" y="698" type="line"/>
      <point x="341" y="698" type="line"/>
      <point x="70" y="332" type="line"/>
      <point x="87" y="322" type="line"/>
      <point x="348" y="676" type="line"/>
      <point x="350" y="676" type="line"/>
      <point x="469" y="322" type="line"/>
    </contour>
  </outline>
</glyph>
<glyph name="underscore" format="1">
  <advance width="504"/>
  <unicode hex="005F"/>
  <outline>
    <contour>
      <point x="400" y="-141" type="line" name="hr00"/>
      <point x="404" y="-123" type="line"/>
      <point x="-53" y="-123" type="line"/>
      <point x="-57" y="-141" type="line"/>
    </contour>
  </outline>
</glyph>
<glyph name="grave" format="1">
  <advance width="540"/>
  <unicode hex="0060"/>
  <outline>
    <contour>
      <point x="299" y="587" type="line" name="hr00"/>
      <point x="313" y="594" type="line"/>
      <point x="244" y="750" type="line"/>
      <point x="225" y="741" type="line"/>
    </contour>
    <contour>
      <point x="270" y="540" type="move" name="_top"/>
    </contour>
  </outline>
</glyph>
<glyph name="a" format="1">
  <advance width="513"/>
  <unicode hex="0061"/>
  <outline>
    <contour>
      <point x="437" y="0" type="line"/>
      <point x="441" y="19" type="line"/>
      <point x="365" y="19" type="line"/>
      <point x="462" y="506" type="line"/>
      <point x="441" y="506" type="line"/>
      <point x="423" y="415" type="line"/>
      <point x="417" y="415" type="line"/>
      <point x="403" y="480"/>
      <point x="351" y="518"/>
      <point x="278" y="518" type="curve" smooth="yes" name="hr01"/>
      <point x="171" y="518"/>
      <point x="92" y="434"/>
      <point x="63" y="288" type="curve" smooth="yes"/>
      <point x="56" y="253"/>
      <point x="52" y="214"/>
      <point x="52" y="179" type="curve" smooth="yes"/>
      <point x="52" y="55"/>
      <point x="104" y="-12"/>
      <point x="196" y="-12" type="curve" smooth="yes"/>
      <point x="267" y="-12"/>
      <point x="319" y="27"/>
      <point x="356" y="111" type="curve"/>
      <point x="362" y="111" type="line"/>
      <point x="346" y="31" type="line" smooth="yes"/>
      <point x="345" y="26"/>
      <point x="344" y="20"/>
      <point x="344" y="15" type="curve" smooth="yes"/>
      <point x="344" y="4"/>
      <point x="354" y="0"/>
      <point x="367" y="0" type="curve" smooth="yes" name="hr02"/>
    </contour>
    <contour>
      <point x="202" y="7" type="curve" smooth="yes" name="hr03"/>
      <point x="114" y="7"/>
      <point x="72" y="65"/>
      <point x="72" y="183" type="curve" smooth="yes"/>
      <point x="72" y="209"/>
      <point x="74" y="229"/>
      <point x="78" y="248" type="curve" smooth="yes"/>
      <point x="85" y="283" type="line" smooth="yes"/>
      <point x="113" y="423"/>
      <point x="181" y="499"/>
      <point x="278" y="499" type="curve" smooth="yes"/>
      <point x="368" y="499"/>
      <point x="426" y="432"/>
      <point x="409" y="346" type="curve" smooth="yes"/>
      <point x="382" y="209" type="line" smooth="yes"/>
      <point x="370" y="146"/>
      <point x="335" y="85"/>
      <point x="298" y="47" type="curve" smooth="yes"/>
      <point x="271" y="19"/>
      <point x="241" y="7"/>
    </contour>
    <contour>
      <point x="188" y="0" type="move" name="bottom"/>
    </contour>
    <contour>
      <point x="437" y="0" type="move" name="bottomright"/>
    </contour>
    <contour>
      <point x="296" y="540" type="move" name="top"/>
    </contour>
  </outline>
</glyph>
<glyph name="b" format="1">
  <advance width="503"/>
  <unicode hex="0062"/>
  <outline>
    <contour>
      <point x="41" y="0" type="line"/>
      <point x="62" y="0" type="line"/>
      <point x="80" y="91" type="line"/>
      <point x="86" y="91" type="line"/>
      <point x="100" y="26"/>
      <point x="152" y="-12"/>
      <point x="225" y="-12" type="curve" smooth="yes" name="hr01"/>
      <point x="332" y="-12"/>
      <point x="411" y="72"/>
      <point x="440" y="218" type="curve" smooth="yes"/>
      <point x="447" y="253"/>
      <point x="451" y="292"/>
      <point x="451" y="327" type="curve" smooth="yes"/>
      <point x="451" y="451"/>
      <point x="399" y="518"/>
      <point x="307" y="518" type="curve" smooth="yes"/>
      <point x="236" y="518"/>
      <point x="184" y="479"/>
      <point x="147" y="395" type="curve"/>
      <point x="141" y="395" type="line"/>
      <point x="210" y="740" type="line" name="hr02"/>
      <point x="189" y="740" type="line"/>
    </contour>
    <contour>
      <point x="225" y="7" type="curve" smooth="yes" name="hr03"/>
      <point x="135" y="7"/>
      <point x="77" y="74"/>
      <point x="94" y="160" type="curve" smooth="yes"/>
      <point x="121" y="297" type="line" smooth="yes"/>
      <point x="133" y="360"/>
      <point x="168" y="421"/>
      <point x="205" y="459" type="curve" smooth="yes"/>
      <point x="232" y="487"/>
      <point x="262" y="499"/>
      <point x="301" y="499" type="curve" smooth="yes"/>
      <point x="389" y="499"/>
      <point x="431" y="441"/>
      <point x="431" y="323" type="curve" smooth="yes"/>
      <point x="431" y="297"/>
      <point x="429" y="277"/>
      <point x="425" y="258" type="curve" smooth="yes"/>
      <point x="418" y="223" type="line" smooth="yes"/>
      <point x="390" y="83"/>
      <point x="322" y="7"/>
    </contour>
    <contour>
      <point x="213" y="0" type="move" name="bottom"/>
    </contour>
  </outline>
</glyph>
<glyph name="c" format="1">
  <advance width="432"/>
  <unicode hex="0063"/>
  <outline>
    <contour>
      <point x="206" y="-12" type="curve" smooth="yes" name="hr00"/>
      <point x="285" y="-12"/>
      <point x="330" y="37"/>
      <point x="376" y="115" type="curve"/>
      <point x="359" y="124" type="line"/>
      <point x="319" y="51"/>
      <point x="275" y="7"/>
      <point x="206" y="7" type="curve" smooth="yes"/>
      <point x="109" y="7"/>
      <point x="72" y="83"/>
      <point x="72" y="176" type="curve" smooth="yes"/>
      <point x="72" y="196"/>
      <point x="74" y="227"/>
      <point x="79" y="252" type="curve" smooth="yes"/>
      <point x="89" y="302" type="line" smooth="yes"/>
      <point x="114" y="425"/>
      <point x="181" y="499"/>
      <point x="273" y="499" type="curve" smooth="yes"/>
      <point x="335" y="499"/>
      <point x="377" y="463"/>
      <point x="390" y="398" type="curve"/>
      <point x="409" y="403" type="line"/>
      <point x="397" y="471"/>
      <point x="349" y="518"/>
      <point x="275" y="518" type="curve" smooth="yes"/>
      <point x="163" y="518"/>
      <point x="89" y="419"/>
      <point x="63" y="288" type="curve" smooth="yes"/>
      <point x="56" y="253"/>
      <point x="52" y="215"/>
      <point x="52" y="176" type="curve" smooth="yes"/>
      <point x="52" y="68"/>
      <point x="101" y="-12"/>
    </contour>
    <contour>
      <point x="188" y="0" type="move" name="bottom"/>
    </contour>
    <contour>
      <point x="296" y="540" type="move" name="top"/>
    </contour>
  </outline>
</glyph>
<glyph name="e" format="1">
  <advance width="456"/>
  <unicode hex="0065"/>
  <outline>
    <contour>
      <point x="214" y="-12" type="curve" smooth="yes" name="hr00"/>
      <point x="294" y="-12"/>
      <point x="350" y="30"/>
      <point x="397" y="125" type="curve"/>
      <point x="380" y="133" type="line"/>
      <point x="340" y="55"/>
      <point x="292" y="7"/>
      <point x="214" y="7" type="curve" smooth="yes"/>
      <point x="117" y="7"/>
      <point x="73" y="64"/>
      <point x="73" y="189" type="curve" smooth="yes"/>
      <point x="73" y="200"/>
      <point x="74" y="219"/>
      <point x="76" y="233" type="curve"/>
      <point x="381" y="239"/>
      <point x="422" y="325"/>
      <point x="422" y="397" type="curve" smooth="yes"/>
      <point x="422" y="472"/>
      <point x="369" y="518"/>
      <point x="286" y="518" type="curve" smooth="yes"/>
      <point x="171" y="518"/>
      <point x="89" y="423"/>
      <point x="62" y="287" type="curve" smooth="yes"/>
      <point x="56" y="256"/>
      <point x="52" y="222"/>
      <point x="52" y="187" type="curve" smooth="yes"/>
      <point x="52" y="51"/>
      <point x="107" y="-12"/>
    </contour>
    <contour>
      <point x="284" y="499" type="curve" smooth="yes"/>
      <point x="364" y="499"/>
      <point x="400" y="457"/>
      <point x="400" y="397" type="curve" smooth="yes"/>
      <point x="400" y="320"/>
      <point x="346" y="257"/>
      <point x="78" y="252" type="curve"/>
      <point x="81" y="270" type="line" smooth="yes"/>
      <point x="103" y="403"/>
      <point x="173" y="499"/>
    </contour>
    <contour>
      <point x="196" y="0" type="move" name="bottom"/>
    </contour>
    <contour>
      <point x="271" y="0" type="move" name="bottomright"/>
    </contour>
    <contour>
      <point x="300" y="540" type="move" name="top"/>
    </contour>
  </outline>
</glyph>
<glyph name="f" format="1">
  <advance width="256"/>
  <unicode hex="0066"/>
  <outline>
    <contour>
      <point x="175" y="487" type="line" name="hr00"/>
      <point x="270" y="487" type="line"/>
      <point x="274" y="506" type="line"/>
      <point x="179" y="506" type="line"/>
      <point x="222" y="721" type="line"/>
      <point x="316" y="721" type="line"/>
      <point x="320" y="740" type="line"/>
      <point x="235" y="740" type="line" smooth="yes"/>
      <point x="209" y="740"/>
      <point x="204" y="732"/>
      <point x="198" y="704" type="curve" smooth="yes"/>
      <point x="158" y="506" type="line"/>
      <point x="70" y="506" type="line"/>
      <point x="66" y="487" type="line"/>
      <point x="154" y="487" type="line"/>
      <point x="24" y="-181" type="line"/>
      <point x="-62" y="-181" type="line"/>
      <point x="-66" y="-200" type="line"/>
      <point x="10" y="-200" type="line" smooth="yes"/>
      <point x="36" y="-200"/>
      <point x="43" y="-194"/>
      <point x="47" y="-171" type="curve" smooth="yes"/>
    </contour>
  </outline>
</glyph>
<glyph name="g" format="1">
  <advance width="438"/>
  <unicode hex="0067"/>
  <outline>
    <contour>
      <point x="388" y="-51" type="curve" smooth="yes"/>
      <point x="388" y="15"/>
      <point x="354" y="53"/>
      <point x="255" y="53" type="curve" smooth="yes"/>
      <point x="134" y="53" type="line" smooth="yes"/>
      <point x="86" y="53"/>
      <point x="74" y="76"/>
      <point x="74" y="100" type="curve" smooth="yes"/>
      <point x="74" y="137"/>
      <point x="99" y="165"/>
      <point x="169" y="186" type="curve"/>
      <point x="184" y="182"/>
      <point x="197" y="180"/>
      <point x="214" y="180" type="curve" smooth="yes"/>
      <point x="322" y="180"/>
      <point x="388" y="257"/>
      <point x="388" y="381" type="curve" smooth="yes"/>
      <point x="388" y="411"/>
      <point x="383" y="440"/>
      <point x="368" y="463" type="curve"/>
      <point x="382" y="542" type="line"/>
      <point x="472" y="542" type="line"/>
      <point x="476" y="561" type="line"/>
      <point x="393" y="561" type="line" smooth="yes"/>
      <point x="374" y="561"/>
      <point x="365" y="555"/>
      <point x="362" y="536" type="curve" smooth="yes"/>
      <point x="352" y="481" type="line"/>
      <point x="330" y="504"/>
      <point x="296" y="518"/>
      <point x="254" y="518" type="curve" smooth="yes"/>
      <point x="152" y="518"/>
      <point x="81" y="441"/>
      <point x="81" y="317" type="curve" smooth="yes"/>
      <point x="81" y="266"/>
      <point x="104" y="211"/>
      <point x="151" y="195" type="curve"/>
      <point x="150" y="189" type="line"/>
      <point x="100" y="181"/>
      <point x="54" y="148"/>
      <point x="54" y="100" type="curve" smooth="yes"/>
      <point x="54" y="71"/>
      <point x="66" y="50"/>
      <point x="95" y="41" type="curve"/>
      <point x="94" y="35" type="line"/>
      <point x="26" y="17"/>
      <point x="-14" y="-34"/>
      <point x="-14" y="-95" type="curve" smooth="yes"/>
      <point x="-14" y="-174"/>
      <point x="50" y="-212"/>
      <point x="158" y="-212" type="curve" smooth="yes"/>
      <point x="307" y="-212"/>
      <point x="388" y="-153"/>
    </contour>
    <contour>
      <point x="366" y="-52" type="curve" smooth="yes" name="hr01"/>
      <point x="366" y="-145"/>
      <point x="289" y="-193"/>
      <point x="176" y="-193" type="curve" smooth="yes"/>
      <point x="146" y="-193" type="line" smooth="yes"/>
      <point x="71" y="-193"/>
      <point x="8" y="-169"/>
      <point x="8" y="-93" type="curve" smooth="yes"/>
      <point x="8" y="-28"/>
      <point x="54" y="14"/>
      <point x="120" y="33" type="curve"/>
      <point x="251" y="33" type="line" smooth="yes"/>
      <point x="342" y="33"/>
      <point x="366" y="5"/>
    </contour>
    <contour>
      <point x="216" y="199" type="curve" smooth="yes"/>
      <point x="137" y="199"/>
      <point x="102" y="246"/>
      <point x="102" y="317" type="curve" smooth="yes"/>
      <point x="102" y="325"/>
      <point x="102" y="337"/>
      <point x="108" y="371" type="curve" smooth="yes"/>
      <point x="121" y="446"/>
      <point x="169" y="499"/>
      <point x="253" y="499" type="curve" smooth="yes"/>
      <point x="332" y="499"/>
      <point x="367" y="452"/>
      <point x="367" y="381" type="curve" smooth="yes" name="hr02"/>
      <point x="367" y="373"/>
      <point x="367" y="361"/>
      <point x="361" y="327" type="curve" smooth="yes"/>
      <point x="348" y="252"/>
      <point x="300" y="199"/>
    </contour>
    <contour>
      <point x="260" y="540" type="move" name="top"/>
    </contour>
  </outline>
</glyph>
<glyph name="i" format="1">
  <advance width="214"/>
  <unicode hex="0069"/>
  <outline>
    <contour>
      <point x="188" y="673" type="curve" smooth="yes" name="hr00"/>
      <point x="200" y="673"/>
      <point x="209" y="678"/>
      <point x="212" y="690" type="curve" smooth="yes"/>
      <point x="213" y="694"/>
      <point x="215" y="703"/>
      <point x="215" y="706" type="curve" smooth="yes"/>
      <point x="215" y="715"/>
      <point x="211" y="722"/>
      <point x="195" y="722" type="curve" smooth="yes"/>
      <point x="183" y="722"/>
      <point x="174" y="717"/>
      <point x="171" y="705" type="curve" smooth="yes"/>
      <point x="170" y="701"/>
      <point x="168" y="692"/>
      <point x="168" y="689" type="curve" smooth="yes"/>
      <point x="168" y="680"/>
      <point x="172" y="673"/>
    </contour>
    <contour>
      <point x="138" y="0" type="line"/>
      <point x="142" y="19" type="line"/>
      <point x="66" y="19" type="line"/>
      <point x="163" y="506" type="line"/>
      <point x="142" y="506" type="line"/>
      <point x="47" y="31" type="line" smooth="yes"/>
      <point x="46" y="26"/>
      <point x="45" y="20"/>
      <point x="45" y="15" type="curve" smooth="yes"/>
      <point x="45" y="4"/>
      <point x="55" y="0"/>
      <point x="68" y="0" type="curve" smooth="yes"/>
    </contour>
    <contour>
      <point x="89" y="0" type="move" name="bottom"/>
    </contour>
    <contour>
      <point x="138" y="0" type="move" name="bottomright"/>
    </contour>
  </outline>
</glyph>
<glyph name="j" format="1">
  <advance width="208"/>
  <unicode hex="006A"/>
  <outline>
    <contour>
      <point x="5" y="-181" type="line" name="hr00"/>
      <point x="-71" y="-181" type="line"/>
      <point x="-75" y="-200" type="line"/>
      <point x="-6" y="-200" type="line" smooth="yes"/>
      <point x="17" y="-200"/>
      <point x="24" y="-194"/>
      <point x="28" y="-172" type="curve" smooth="yes"/>
      <point x="163" y="506" type="line"/>
      <point x="142" y="506" type="line"/>
    </contour>
    <contour>
      <point x="188" y="673" type="curve" smooth="yes"/>
      <point x="200" y="673"/>
      <point x="209" y="678"/>
      <point x="212" y="690" type="curve" smooth="yes"/>
      <point x="213" y="694"/>
      <point x="215" y="703"/>
      <point x="215" y="706" type="curve" smooth="yes"/>
      <point x="215" y="715"/>
      <point x="211" y="722"/>
      <point x="195" y="722" type="curve" smooth="yes"/>
      <point x="183" y="722"/>
      <point x="174" y="717"/>
      <point x="171" y="705" type="curve" smooth="yes"/>
      <point x="170" y="701"/>
      <point x="168" y="692"/>
      <point x="168" y="689" type="curve" smooth="yes"/>
      <point x="168" y="680"/>
      <point x="172" y="673"/>
    </contour>
  </outline>
</glyph>
<glyph name="k" format="1">
  <advance width="434"/>
  <unicode hex="006B"/>
  <outline>
    <contour>
      <point x="41" y="0" type="line" name="hr00"/>
      <point x="62" y="0" type="line"/>
      <point x="100" y="189" type="line"/>
      <point x="199" y="279" type="line"/>
      <point x="312" y="21" type="line" smooth="yes"/>
      <point x="319" y="6"/>
      <point x="325" y="0"/>
      <point x="340" y="0" type="curve" smooth="yes"/>
      <point x="383" y="0" type="line"/>
      <point x="387" y="19" type="line"/>
      <point x="335" y="19" type="line"/>
      <point x="215" y="292" type="line"/>
      <point x="438" y="506" type="line"/>
      <point x="411" y="506" type="line"/>
      <point x="212" y="315" type="line"/>
      <point x="110" y="221" type="line"/>
      <point x="106" y="221" type="line"/>
      <point x="129" y="335" type="line"/>
      <point x="210" y="740" type="line"/>
      <point x="189" y="740" type="line"/>
    </contour>
    <contour>
      <point x="196" y="0" type="move" name="bottom"/>
    </contour>
  </outline>
</glyph>
<glyph name="l" format="1">
  <advance width="214"/>
  <unicode hex="006C"/>
  <outline>
    <contour>
      <point x="138" y="0" type="line" name="hr00"/>
      <point x="142" y="19" type="line"/>
      <point x="66" y="19" type="line"/>
      <point x="210" y="740" type="line"/>
      <point x="189" y="740" type="line"/>
      <point x="47" y="31" type="line" smooth="yes"/>
      <point x="46" y="26"/>
      <point x="45" y="20"/>
      <point x="45" y="15" type="curve" smooth="yes"/>
      <point x="45" y="4"/>
      <point x="55" y="0"/>
      <point x="68" y="0" type="curve" smooth="yes"/>
    </contour>
    <contour>
      <point x="89" y="0" type="move" name="bottom"/>
    </contour>
    <contour>
      <point x="198" y="740" type="move" name="top"/>
    </contour>
    <contour>
      <point x="259" y="740" type="move" name="topright"/>
    </contour>
  </outline>
</glyph>
<glyph name="o" format="1">
  <advance width="484"/>
  <unicode hex="006F"/>
  <outline>
    <contour>
      <point x="203" y="-12" type="curve" smooth="yes" name="hr00"/>
      <point x="321" y="-12"/>
      <point x="393" y="87"/>
      <point x="420" y="219" type="curve" smooth="yes"/>
      <point x="428" y="258"/>
      <point x="432" y="297"/>
      <point x="432" y="339" type="curve" smooth="yes"/>
      <point x="432" y="450"/>
      <point x="377" y="518"/>
      <point x="281" y="518" type="curve" smooth="yes"/>
      <point x="163" y="518"/>
      <point x="92" y="418"/>
      <point x="64" y="287" type="curve" smooth="yes"/>
      <point x="56" y="250"/>
      <point x="52" y="209"/>
      <point x="52" y="167" type="curve" smooth="yes"/>
      <point x="52" y="56"/>
      <point x="107" y="-12"/>
    </contour>
    <contour>
      <point x="205" y="7" type="curve" smooth="yes"/>
      <point x="113" y="7"/>
      <point x="72" y="68"/>
      <point x="72" y="167" type="curve" smooth="yes"/>
      <point x="72" y="193"/>
      <point x="74" y="217"/>
      <point x="78" y="239" type="curve" smooth="yes"/>
      <point x="85" y="279" type="line" smooth="yes"/>
      <point x="109" y="414"/>
      <point x="173" y="499"/>
      <point x="279" y="499" type="curve" smooth="yes"/>
      <point x="371" y="499"/>
      <point x="412" y="438"/>
      <point x="412" y="339" type="curve" smooth="yes"/>
      <point x="412" y="313"/>
      <point x="410" y="289"/>
      <point x="406" y="267" type="curve" smooth="yes"/>
      <point x="399" y="227" type="line" smooth="yes"/>
      <point x="375" y="92"/>
      <point x="311" y="7"/>
    </contour>
    <contour>
      <point x="192" y="0" type="move" name="bottom"/>
    </contour>
    <contour>
      <point x="300" y="540" type="move" name="top"/>
    </contour>
  </outline>
</glyph>
<glyph name="p" format="1">
  <advance width="503"/>
  <unicode hex="0070"/>
  <outline>
    <contour>
      <point x="1" y="-200" type="line"/>
      <point x="22" y="-200" type="line"/>
      <point x="80" y="91" type="line"/>
      <point x="86" y="91" type="line"/>
      <point x="100" y="26"/>
      <point x="152" y="-12"/>
      <point x="225" y="-12" type="curve" smooth="yes"/>
      <point x="332" y="-12"/>
      <point x="411" y="72"/>
      <point x="440" y="218" type="curve" smooth="yes"/>
      <point x="447" y="253"/>
      <point x="451" y="292"/>
      <point x="451" y="327" type="curve" smooth="yes"/>
      <point x="451" y="451"/>
      <point x="399" y="518"/>
      <point x="307" y="518" type="curve" smooth="yes"/>
      <point x="236" y="518"/>
      <point x="184" y="479"/>
      <point x="147" y="395" type="curve"/>
      <point x="141" y="395" type="line"/>
      <point x="163" y="506" type="line" name="hr01"/>
      <point x="142" y="506" type="line"/>
    </contour>
    <contour>
      <point x="225" y="7" type="curve" smooth="yes"/>
      <point x="135" y="7"/>
      <point x="77" y="74"/>
      <point x="94" y="160" type="curve" smooth="yes"/>
      <point x="121" y="297" type="line" smooth="yes"/>
      <point x="133" y="360"/>
      <point x="168" y="421"/>
      <point x="205" y="459" type="curve" smooth="yes"/>
      <point x="232" y="487"/>
      <point x="262" y="499"/>
      <point x="301" y="499" type="curve" smooth="yes" name="hr02"/>
      <point x="389" y="499"/>
      <point x="431" y="441"/>
      <point x="431" y="323" type="curve" smooth="yes"/>
      <point x="431" y="297"/>
      <point x="429" y="277"/>
      <point x="425" y="258" type="curve" smooth="yes"/>
      <point x="418" y="223" type="line" smooth="yes"/>
      <point x="390" y="83"/>
      <point x="322" y="7"/>
    </contour>
    <contour>
      <point x="321" y="540" type="move" name="top"/>
    </contour>
  </outline>
</glyph>
<glyph name="r" format="1">
  <advance width="306"/>
  <unicode hex="0072"/>
  <outline>
    <contour>
      <point x="62" y="0" type="line" name="hr00"/>
      <point x="120" y="292" type="line" smooth="yes"/>
      <point x="140" y="393"/>
      <point x="205" y="487"/>
      <point x="296" y="487" type="curve" smooth="yes"/>
      <point x="322" y="487" type="line"/>
      <point x="326" y="506" type="line"/>
      <point x="300" y="506" type="line" smooth="yes"/>
      <point x="218" y="506"/>
      <point x="176" y="458"/>
      <point x="146" y="392" type="curve"/>
      <point x="140" y="392" type="line"/>
      <point x="163" y="506" type="line"/>
      <point x="142" y="506" type="line"/>
      <point x="41" y="0" type="line"/>
    </contour>
    <contour>
      <point x="52" y="0" type="move" name="bottom"/>
    </contour>
    <contour>
      <point x="241" y="540" type="move" name="top"/>
    </contour>
  </outline>
</glyph>
<glyph name="t" format="1">
  <advance width="274"/>
  <unicode hex="0074"/>
  <outline>
    <contour>
      <point x="180" y="0" type="line" name="hr00"/>
      <point x="184" y="19" type="line"/>
      <point x="83" y="19" type="line"/>
      <point x="176" y="487" type="line"/>
      <point x="285" y="487" type="line"/>
      <point x="289" y="506" type="line"/>
      <point x="180" y="506" type="line"/>
      <point x="209" y="650" type="line"/>
      <point x="188" y="650" type="line"/>
      <point x="164" y="531" type="line" smooth="yes"/>
      <point x="161" y="513"/>
      <point x="155" y="506"/>
      <point x="138" y="506" type="curve" smooth="yes"/>
      <point x="74" y="506" type="line"/>
      <point x="70" y="487" type="line"/>
      <point x="155" y="487" type="line"/>
      <point x="64" y="31" type="line" smooth="yes"/>
      <point x="63" y="26"/>
      <point x="62" y="20"/>
      <point x="62" y="15" type="curve" smooth="yes"/>
      <point x="62" y="4"/>
      <point x="72" y="0"/>
      <point x="85" y="0" type="curve" smooth="yes"/>
    </contour>
    <contour>
      <point x="119" y="0" type="move" name="bottom"/>
    </contour>
    <contour>
      <point x="286" y="740" type="move" name="topright"/>
    </contour>
  </outline>
</glyph>
<glyph name="v" format="1">
  <advance width="416"/>
  <unicode hex="0076"/>
  <outline>
    <contour>
      <point x="170" y="0" type="line" name="hr00"/>
      <point x="435" y="506" type="line"/>
      <point x="412" y="506" type="line"/>
      <point x="275" y="243" type="line"/>
      <point x="160" y="19" type="line"/>
      <point x="156" y="19" type="line"/>
      <point x="126" y="243" type="line"/>
      <point x="90" y="506" type="line"/>
      <point x="69" y="506" type="line"/>
      <point x="140" y="0" type="line"/>
    </contour>
    <contour>
      <point x="154" y="0" type="move" name="bottom"/>
    </contour>
    <contour>
      <point x="258" y="540" type="move" name="top"/>
    </contour>
  </outline>
</glyph>
<glyph name="w" format="1">
  <advance width="648"/>
  <unicode hex="0077"/>
  <outline>
    <contour>
      <point x="108" y="0" type="line" name="hr00"/>
      <point x="140" y="0" type="line"/>
      <point x="252" y="243" type="line"/>
      <point x="364" y="486" type="line"/>
      <point x="367" y="486" type="line"/>
      <point x="381" y="243" type="line"/>
      <point x="396" y="0" type="line"/>
      <point x="428" y="0" type="line"/>
      <point x="664" y="506" type="line"/>
      <point x="642" y="506" type="line"/>
      <point x="495" y="189" type="line"/>
      <point x="418" y="20" type="line"/>
      <point x="413" y="20" type="line"/>
      <point x="404" y="189" type="line"/>
      <point x="384" y="506" type="line"/>
      <point x="352" y="506" type="line"/>
      <point x="206" y="189" type="line"/>
      <point x="130" y="20" type="line"/>
      <point x="125" y="20" type="line"/>
      <point x="115" y="189" type="line"/>
      <point x="94" y="506" type="line"/>
      <point x="74" y="506" type="line"/>
    </contour>
    <contour>
      <point x="266" y="0" type="move" name="bottom"/>
    </contour>
    <contour>
      <point x="374" y="540" type="move" name="top"/>
    </contour>
  </outline>
</glyph>
<glyph name="x" format="1">
  <advance width="428"/>
  <unicode hex="0078"/>
  <outline>
    <contour>
      <point x="15" y="0" type="line" name="hr00"/>
      <point x="203" y="236" type="line"/>
      <point x="209" y="236" type="line"/>
      <point x="317" y="0" type="line"/>
      <point x="338" y="0" type="line"/>
      <point x="224" y="253" type="line"/>
      <point x="431" y="506" type="line"/>
      <point x="405" y="506" type="line"/>
      <point x="217" y="274" type="line"/>
      <point x="211" y="274" type="line"/>
      <point x="105" y="506" type="line"/>
      <point x="84" y="506" type="line"/>
      <point x="196" y="257" type="line"/>
      <point x="-11" y="0" type="line"/>
    </contour>
    <contour>
      <point x="159" y="0" type="move" name="bottom"/>
    </contour>
    <contour>
      <point x="267" y="540" type="move" name="top"/>
    </contour>
  </outline>
</glyph>
<glyph name="y" format="1">
  <advance width="416"/>
  <unicode hex="0079"/>
  <outline>
    <contour>
      <point x="275" y="243" type="line" name="hr00"/>
      <point x="160" y="19" type="line"/>
      <point x="156" y="19" type="line"/>
      <point x="126" y="243" type="line"/>
      <point x="90" y="506" type="line"/>
      <point x="69" y="506" type="line"/>
      <point x="142" y="-10" type="line"/>
      <point x="53" y="-181" type="line"/>
      <point x="-20" y="-181" type="line"/>
      <point x="-24" y="-200" type="line"/>
      <point x="45" y="-200" type="line" smooth="yes"/>
      <point x="61" y="-200"/>
      <point x="68" y="-196"/>
      <point x="76" y="-180" type="curve" smooth="yes"/>
      <point x="435" y="506" type="line"/>
      <point x="412" y="506" type="line"/>
    </contour>
    <contour>
      <point x="266" y="0" type="move" name="bottom"/>
    </contour>
    <contour>
      <point x="258" y="540" type="move" name="top"/>
    </contour>
  </outline>
</glyph>
<glyph name="z" format="1">
  <advance width="389"/>
  <unicode hex="007A"/>
  <outline>
    <contour>
      <point x="306" y="0" type="line" name="hr00"/>
      <point x="310" y="19" type="line"/>
      <point x="22" y="19" type="line"/>
      <point x="387" y="486" type="line"/>
      <point x="391" y="506" type="line"/>
      <point x="90" y="506" type="line"/>
      <point x="86" y="487" type="line"/>
      <point x="363" y="487" type="line"/>
      <point x="-3" y="20" type="line"/>
      <point x="-6" y="0" type="line"/>
    </contour>
    <contour>
      <point x="152" y="0" type="move" name="bottom"/>
    </contour>
    <contour>
      <point x="248" y="540" type="move" name="top"/>
    </contour>
  </outline>
</glyph>
<glyph name="bar" format="1">
  <advance width="212"/>
  <unicode hex="007C"/>
  <outline>
    <contour>
      <point x="37" y="-138" type="line" name="hr00"/>
      <point x="217" y="760" type="line"/>
      <point x="197" y="760" type="line"/>
      <point x="17" y="-138" type="line"/>
    </contour>
  </outline>
</glyph>
<glyph name="exclamdown" format="1">
  <advance width="224"/>
  <unicode hex="00A1"/>
  <outline>
    <contour>
      <point x="34" y="-192" type="line" name="hr00"/>
      <point x="91" y="91" type="line"/>
      <point x="134" y="330" type="line"/>
      <point x="122" y="330" type="line"/>
      <point x="68" y="91" type="line"/>
      <point x="12" y="-192" type="line"/>
    </contour>
    <contour>
      <point x="152" y="453" type="curve" smooth="yes"/>
      <point x="171" y="453"/>
      <point x="178" y="464"/>
      <point x="181" y="475" type="curve" smooth="yes"/>
      <point x="182" y="479"/>
      <point x="184" y="488"/>
      <point x="184" y="492" type="curve" smooth="yes"/>
      <point x="184" y="501"/>
      <point x="178" y="511"/>
      <point x="162" y="511" type="curve" smooth="yes"/>
      <point x="143" y="511"/>
      <point x="136" y="500"/>
      <point x="133" y="489" type="curve" smooth="yes"/>
      <point x="132" y="485"/>
      <point x="130" y="476"/>
      <point x="130" y="472" type="curve" smooth="yes"/>
      <point x="130" y="463"/>
      <point x="136" y="453"/>
    </contour>
  </outline>
</glyph>
<glyph name="cent" format="1">
  <advance width="441"/>
  <unicode hex="00A2"/>
  <outline>
    <contour>
      <point x="151" y="-114" type="line" name=""/>
      <point x="171" y="-114" type="line"/>
      <point x="191" y="-12" type="line"/>
      <point x="275" y="-16"/>
      <point x="322" y="23"/>
      <point x="376" y="115" type="curve"/>
      <point x="359" y="124" type="line"/>
      <point x="319" y="50"/>
      <point x="275" y="2"/>
      <point x="195" y="6" type="curve"/>
      <point x="292" y="498" type="line"/>
      <point x="343" y="491"/>
      <point x="378" y="456"/>
      <point x="390" y="398" type="curve"/>
      <point x="409" y="403" type="line"/>
      <point x="398" y="464"/>
      <point x="358" y="508"/>
      <point x="296" y="516" type="curve"/>
      <point x="317" y="620" type="line"/>
      <point x="297" y="620" type="line"/>
      <point x="276" y="518" type="line"/>
      <point x="162" y="518"/>
      <point x="89" y="419"/>
      <point x="63" y="288" type="curve" smooth="yes"/>
      <point x="56" y="253"/>
      <point x="52" y="215"/>
      <point x="52" y="176" type="curve" smooth="yes"/>
      <point x="52" y="80"/>
      <point x="90" y="6"/>
      <point x="172" y="-9" type="curve"/>
    </contour>
    <contour>
      <point x="72" y="176" type="curve" smooth="yes"/>
      <point x="72" y="192"/>
      <point x="74" y="218"/>
      <point x="77" y="238" type="curve" smooth="yes"/>
      <point x="84" y="282" type="line" smooth="yes"/>
      <point x="105" y="415"/>
      <point x="179" y="499"/>
      <point x="273" y="499" type="curve"/>
      <point x="176" y="9" type="line"/>
      <point x="101" y="24"/>
      <point x="72" y="93"/>
    </contour>
  </outline>
</glyph>
<glyph name="currency" format="1">
  <advance width="550"/>
  <unicode hex="00A4"/>
  <outline>
    <contour>
      <point x="253" y="129" type="curve" smooth="yes" name=""/>
      <point x="297" y="129"/>
      <point x="335" y="140"/>
      <point x="366" y="161" type="curve"/>
      <point x="437" y="47" type="line"/>
      <point x="455" y="60" type="line"/>
      <point x="384" y="174" type="line"/>
      <point x="424" y="210"/>
      <point x="452" y="267"/>
      <point x="465" y="346" type="curve" smooth="yes"/>
      <point x="469" y="369"/>
      <point x="471" y="390"/>
      <point x="471" y="409" type="curve" smooth="yes"/>
      <point x="471" y="457"/>
      <point x="460" y="494"/>
      <point x="439" y="521" type="curve"/>
      <point x="551" y="638" type="line"/>
      <point x="534" y="651" type="line"/>
      <point x="425" y="536" type="line"/>
      <point x="400" y="558"/>
      <point x="365" y="569"/>
      <point x="321" y="569" type="curve" smooth="yes"/>
      <point x="277" y="569"/>
      <point x="239" y="558"/>
      <point x="208" y="537" type="curve"/>
      <point x="137" y="651" type="line"/>
      <point x="119" y="638" type="line"/>
      <point x="190" y="524" type="line"/>
      <point x="150" y="488"/>
      <point x="122" y="431"/>
      <point x="109" y="352" type="curve" smooth="yes"/>
      <point x="105" y="329"/>
      <point x="103" y="308"/>
      <point x="103" y="289" type="curve" smooth="yes"/>
      <point x="103" y="241"/>
      <point x="114" y="204"/>
      <point x="135" y="177" type="curve"/>
      <point x="23" y="60" type="line"/>
      <point x="40" y="47" type="line"/>
      <point x="149" y="162" type="line"/>
      <point x="174" y="140"/>
      <point x="209" y="129"/>
    </contour>
    <contour>
      <point x="253" y="148" type="curve" smooth="yes"/>
      <point x="166" y="148"/>
      <point x="124" y="198"/>
      <point x="124" y="282" type="curve" smooth="yes"/>
      <point x="124" y="297"/>
      <point x="125" y="313"/>
      <point x="128" y="330" type="curve" smooth="yes"/>
      <point x="134" y="368" type="line" smooth="yes"/>
      <point x="152" y="480"/>
      <point x="220" y="550"/>
      <point x="321" y="550" type="curve" smooth="yes"/>
      <point x="408" y="550"/>
      <point x="450" y="500"/>
      <point x="450" y="416" type="curve" smooth="yes"/>
      <point x="450" y="401"/>
      <point x="449" y="385"/>
      <point x="446" y="368" type="curve" smooth="yes"/>
      <point x="440" y="330" type="line" smooth="yes"/>
      <point x="422" y="218"/>
      <point x="354" y="148"/>
    </contour>
  </outline>
</glyph>
<glyph name="brokenbar" format="1">
  <advance width="212"/>
  <unicode hex="00A6"/>
  <outline>
    <contour>
      <point x="145" y="401" type="line" name="hr00"/>
      <point x="217" y="760" type="line"/>
      <point x="197" y="760" type="line"/>
      <point x="125" y="401" type="line"/>
    </contour>
    <contour>
      <point x="37" y="-138" type="line"/>
      <point x="109" y="221" type="line"/>
      <point x="89" y="221" type="line"/>
      <point x="17" y="-138" type="line"/>
    </contour>
  </outline>
</glyph>
<glyph name="section" format="1">
  <advance width="507"/>
  <unicode hex="00A7"/>
  <outline>
    <contour>
      <point x="429" y="283" type="curve" smooth="yes" name=""/>
      <point x="429" y="353"/>
      <point x="399" y="383"/>
      <point x="334" y="408" type="curve" smooth="yes"/>
      <point x="265" y="434" type="line" smooth="yes"/>
      <point x="212" y="454"/>
      <point x="184" y="487"/>
      <point x="184" y="553" type="curve" smooth="yes"/>
      <point x="184" y="643"/>
      <point x="244" y="691"/>
      <point x="336" y="691" type="curve" smooth="yes"/>
      <point x="390" y="691"/>
      <point x="426" y="673"/>
      <point x="453" y="643" type="curve"/>
      <point x="469" y="657" type="line"/>
      <point x="439" y="689"/>
      <point x="399" y="710"/>
      <point x="338" y="710" type="curve" smooth="yes"/>
      <point x="236" y="710"/>
      <point x="163" y="655"/>
      <point x="163" y="553" type="curve" smooth="yes"/>
      <point x="163" y="501"/>
      <point x="179" y="463"/>
      <point x="215" y="437" type="curve"/>
      <point x="215" y="434" type="line"/>
      <point x="129" y="406"/>
      <point x="78" y="356"/>
      <point x="78" y="274" type="curve" smooth="yes"/>
      <point x="78" y="204"/>
      <point x="108" y="174"/>
      <point x="173" y="149" type="curve" smooth="yes"/>
      <point x="242" y="123" type="line" smooth="yes"/>
      <point x="295" y="103"/>
      <point x="323" y="70"/>
      <point x="323" y="4" type="curve" smooth="yes"/>
      <point x="323" y="-86"/>
      <point x="263" y="-134"/>
      <point x="171" y="-134" type="curve" smooth="yes"/>
      <point x="117" y="-134"/>
      <point x="81" y="-116"/>
      <point x="54" y="-86" type="curve"/>
      <point x="38" y="-100" type="line"/>
      <point x="68" y="-132"/>
      <point x="108" y="-153"/>
      <point x="169" y="-153" type="curve" smooth="yes"/>
      <point x="271" y="-153"/>
      <point x="344" y="-98"/>
      <point x="344" y="4" type="curve" smooth="yes"/>
      <point x="344" y="56"/>
      <point x="328" y="94"/>
      <point x="292" y="120" type="curve"/>
      <point x="292" y="123" type="line"/>
      <point x="378" y="151"/>
      <point x="429" y="201"/>
    </contour>
    <contour>
      <point x="408" y="283" type="curve" smooth="yes"/>
      <point x="408" y="205"/>
      <point x="358" y="160"/>
      <point x="274" y="130" type="curve"/>
      <point x="268" y="133"/>
      <point x="258" y="137"/>
      <point x="234" y="146" type="curve" smooth="yes"/>
      <point x="182" y="166" type="line" smooth="yes"/>
      <point x="120" y="190"/>
      <point x="99" y="216"/>
      <point x="99" y="274" type="curve" smooth="yes"/>
      <point x="99" y="352"/>
      <point x="149" y="397"/>
      <point x="233" y="427" type="curve"/>
      <point x="239" y="424"/>
      <point x="249" y="420"/>
      <point x="273" y="411" type="curve" smooth="yes"/>
      <point x="325" y="391" type="line" smooth="yes"/>
      <point x="387" y="367"/>
      <point x="408" y="341"/>
    </contour>
  </outline>
</glyph>
<glyph name="ordfeminine" format="1">
  <advance width="321"/>
  <unicode hex="00AA"/>
  <outline>
    <contour>
      <point x="321" y="383" type="line"/>
      <point x="278" y="383" type="line"/>
      <point x="319" y="599" type="line" smooth="yes"/>
      <point x="320" y="606"/>
      <point x="321" y="616"/>
      <point x="321" y="622" type="curve" smooth="yes"/>
      <point x="321" y="677"/>
      <point x="285" y="704"/>
      <point x="231" y="704" type="curve" smooth="yes"/>
      <point x="179" y="704"/>
      <point x="140" y="681"/>
      <point x="116" y="637" type="curve"/>
      <point x="130" y="629" type="line"/>
      <point x="154" y="672"/>
      <point x="187" y="687"/>
      <point x="228" y="687" type="curve" smooth="yes"/>
      <point x="271" y="687"/>
      <point x="303" y="670"/>
      <point x="303" y="622" type="curve" smooth="yes"/>
      <point x="303" y="615"/>
      <point x="302" y="606"/>
      <point x="301" y="598" type="curve" smooth="yes"/>
      <point x="291" y="542" type="line"/>
      <point x="204" y="542" type="line" smooth="yes"/>
      <point x="106" y="542"/>
      <point x="70" y="495"/>
      <point x="70" y="438" type="curve" smooth="yes"/>
      <point x="70.0" y="390.38961038961037"/>
      <point x="99" y="360"/>
      <point x="155" y="360" type="curve" smooth="yes" name="hr01"/>
      <point x="210" y="360"/>
      <point x="244.76782019112943" y="387.6388314084236"/>
      <point x="263" y="416" type="curve"/>
      <point x="275" y="416" type="line"/>
      <point x="267" y="424" type="line"/>
      <point x="261" y="394" type="line" smooth="yes"/>
      <point x="259.8060437920549" y="388.0302189602743"/>
      <point x="259.0" y="381.72222222222223"/>
      <point x="259" y="377" type="curve" smooth="yes"/>
      <point x="259.0" y="370.4"/>
      <point x="263.0" y="366"/>
      <point x="272" y="366" type="curve" smooth="yes" name="hr02"/>
      <point x="318" y="366" type="line"/>
    </contour>
    <contour>
      <point x="287" y="525" type="line"/>
      <point x="275" y="465" type="line" smooth="yes"/>
      <point x="263.2562982873998" y="406.28149143699875"/>
      <point x="210" y="377"/>
      <point x="156" y="377" type="curve" smooth="yes" name="hr03"/>
      <point x="112" y="377"/>
      <point x="91.0" y="397.3333333333333"/>
      <point x="91" y="438" type="curve" smooth="yes"/>
      <point x="91" y="443"/>
      <point x="92" y="451"/>
      <point x="94" y="463" type="curve" smooth="yes"/>
      <point x="101" y="497"/>
      <point x="127" y="525"/>
      <point x="200" y="525" type="curve" smooth="yes"/>
    </contour>
  </outline>
</glyph>
<glyph name="logicalnot" format="1">
  <advance width="540"/>
  <unicode hex="00AC"/>
  <outline>
    <contour>
      <point x="438" y="104" type="line" name="hr00"/>
      <point x="480" y="315" type="line"/>
      <point x="66" y="315" type="line"/>
      <point x="62" y="296" type="line"/>
      <point x="456" y="296" type="line"/>
      <point x="417" y="104" type="line"/>
    </contour>
  </outline>
</glyph>
<glyph name="macron" format="1">
  <advance width="540"/>
  <unicode hex="00AF"/>
  <outline>
    <contour>
      <point x="168" y="658" type="line" name="hr00"/>
      <point x="399" y="658" type="line"/>
      <point x="403" y="676" type="line"/>
      <point x="172" y="676" type="line"/>
    </contour>
    <contour>
      <point x="270" y="540" type="move" name="_top"/>
    </contour>
  </outline>
</glyph>
<glyph name="degree" format="1">
  <advance width="420"/>
  <unicode hex="00B0"/>
  <outline>
    <contour>
      <point x="245" y="374" type="curve" smooth="yes" name="hr00"/>
      <point x="335" y="374"/>
      <point x="410" y="450"/>
      <point x="410" y="570" type="curve" smooth="yes"/>
      <point x="410" y="651"/>
      <point x="362" y="710"/>
      <point x="286" y="710" type="curve" smooth="yes"/>
      <point x="196" y="710"/>
      <point x="121" y="634"/>
      <point x="121" y="514" type="curve" smooth="yes"/>
      <point x="121" y="433"/>
      <point x="169" y="374"/>
    </contour>
    <contour>
      <point x="248" y="393" type="curve" smooth="yes"/>
      <point x="177" y="393"/>
      <point x="141" y="445"/>
      <point x="141" y="515" type="curve" smooth="yes"/>
      <point x="141" y="623"/>
      <point x="204" y="691"/>
      <point x="283" y="691" type="curve" smooth="yes"/>
      <point x="354" y="691"/>
      <point x="390" y="639"/>
      <point x="390" y="569" type="curve" smooth="yes"/>
      <point x="390" y="461"/>
      <point x="327" y="393"/>
    </contour>
  </outline>
</glyph>
<glyph name="plusminus" format="1">
  <advance width="540"/>
  <unicode hex="00B1"/>
  <outline>
    <contour>
      <point x="257" y="137" type="line"/>
      <point x="300" y="349" type="line"/>
      <point x="504" y="349" type="line"/>
      <point x="508" y="368" type="line"/>
      <point x="304" y="368" type="line"/>
      <point x="347" y="580" type="line" name="hr01"/>
      <point x="326" y="580" type="line"/>
      <point x="283" y="368" type="line"/>
      <point x="79" y="368" type="line"/>
      <point x="75" y="349" type="line"/>
      <point x="279" y="349" type="line"/>
      <point x="236" y="137" type="line" name="hr02"/>
    </contour>
    <contour>
      <point x="433" y="0" type="line"/>
      <point x="437" y="19" type="line"/>
      <point x="9" y="19" type="line"/>
      <point x="5" y="0" type="line"/>
    </contour>
  </outline>
</glyph>
<glyph name="acute" format="1">
  <advance width="540"/>
  <unicode hex="00B4"/>
  <outline>
    <contour>
      <point x="394" y="738" type="line" name="hr00"/>
      <point x="378" y="751" type="line"/>
      <point x="247" y="597" type="line"/>
      <point x="259" y="587" type="line"/>
    </contour>
    <contour>
      <point x="270" y="540" type="move" name="_top"/>
    </contour>
  </outline>
</glyph>
<glyph name="paragraph" format="1">
  <advance width="534"/>
  <unicode hex="00B6"/>
  <outline>
    <contour>
      <point x="143" y="-149" type="line" name="hr00"/>
      <point x="164" y="-149" type="line"/>
      <point x="330" y="680" type="line"/>
      <point x="447" y="680" type="line"/>
      <point x="281" y="-149" type="line"/>
      <point x="302" y="-149" type="line"/>
      <point x="468" y="680" type="line"/>
      <point x="529" y="680" type="line"/>
      <point x="533" y="698" type="line"/>
      <point x="321" y="698" type="line" smooth="yes"/>
      <point x="184" y="698"/>
      <point x="92" y="624"/>
      <point x="92" y="486" type="curve" smooth="yes"/>
      <point x="92" y="387"/>
      <point x="157" y="330"/>
      <point x="239" y="330" type="curve"/>
    </contour>
  </outline>
</glyph>
<glyph name="periodcentered" format="1">
  <advance width="270"/>
  <unicode hex="00B7"/>
  <outline>
    <contour>
      <point x="140" y="277" type="curve" smooth="yes" name="hr00"/>
      <point x="159" y="277"/>
      <point x="166" y="288"/>
      <point x="169" y="299" type="curve" smooth="yes"/>
      <point x="170" y="303"/>
      <point x="172" y="312"/>
      <point x="172" y="316" type="curve" smooth="yes"/>
      <point x="172" y="325"/>
      <point x="166" y="335"/>
      <point x="150" y="335" type="curve" smooth="yes"/>
      <point x="131" y="335"/>
      <point x="124" y="324"/>
      <point x="121" y="313" type="curve" smooth="yes"/>
      <point x="120" y="309"/>
      <point x="118" y="300"/>
      <point x="118" y="296" type="curve" smooth="yes"/>
      <point x="118" y="287"/>
      <point x="124" y="277"/>
    </contour>
  </outline>
</glyph>
<glyph name="onesuperior" format="1">
  <advance width="320"/>
  <unicode hex="00B9"/>
  <outline>
    <contour>
      <point x="298" y="329" type="line" name="hr00"/>
      <point x="302" y="346" type="line"/>
      <point x="195" y="346" type="line"/>
      <point x="265" y="698" type="line"/>
      <point x="236" y="698" type="line"/>
      <point x="102" y="601" type="line"/>
      <point x="111" y="588" type="line"/>
      <point x="243" y="684" type="line"/>
      <point x="245" y="684" type="line"/>
      <point x="178" y="346" type="line"/>
      <point x="63" y="346" type="line"/>
      <point x="59" y="329" type="line"/>
    </contour>
  </outline>
</glyph>
<glyph name="ordmasculine" format="1">
  <advance width="330"/>
  <unicode hex="00BA"/>
  <outline>
    <contour>
      <point x="197" y="360" type="curve" smooth="yes" name="hr00"/>
      <point x="286" y="360"/>
      <point x="334" y="441"/>
      <point x="346" y="533" type="curve" smooth="yes"/>
      <point x="348" y="548"/>
      <point x="349" y="563"/>
      <point x="349" y="578" type="curve" smooth="yes"/>
      <point x="349" y="657"/>
      <point x="309" y="704"/>
      <point x="243" y="704" type="curve" smooth="yes" name="hr00"/>
      <point x="154" y="704"/>
      <point x="106" y="623"/>
      <point x="94" y="531" type="curve" smooth="yes"/>
      <point x="92" y="516"/>
      <point x="91" y="501"/>
      <point x="91" y="486" type="curve" smooth="yes"/>
      <point x="91" y="407"/>
      <point x="131" y="360"/>
    </contour>
    <contour>
      <point x="198" y="377" type="curve" smooth="yes"/>
      <point x="135" y="377"/>
      <point x="110" y="418"/>
      <point x="110" y="486" type="curve" smooth="yes"/>
      <point x="110" y="496"/>
      <point x="110" y="508"/>
      <point x="112" y="519" type="curve" smooth="yes"/>
      <point x="118" y="554" type="line" smooth="yes"/>
      <point x="131" y="628"/>
      <point x="167" y="687"/>
      <point x="242" y="687" type="curve" smooth="yes"/>
      <point x="305" y="687"/>
      <point x="330" y="646"/>
      <point x="330" y="578" type="curve" smooth="yes"/>
      <point x="330" y="568"/>
      <point x="330" y="556"/>
      <point x="328" y="545" type="curve" smooth="yes"/>
      <point x="322" y="510" type="line" smooth="yes"/>
      <point x="309" y="436"/>
      <point x="273" y="377"/>
    </contour>
  </outline>
</glyph>
<glyph name="multiply" format="1">
  <advance width="540"/>
  <unicode hex="00D7"/>
  <outline>
    <contour>
      <point x="403" y="113" type="line" name="hr00"/>
      <point x="418" y="125" type="line"/>
      <point x="294" y="304" type="line"/>
      <point x="493" y="485" type="line"/>
      <point x="480" y="499" type="line"/>
      <point x="283" y="319" type="line"/>
      <point x="158" y="499" type="line"/>
      <point x="143" y="487" type="line"/>
      <point x="269" y="306" type="line"/>
      <point x="72" y="127" type="line"/>
      <point x="85" y="113" type="line"/>
      <point x="280" y="291" type="line"/>
    </contour>
  </outline>
</glyph>
<glyph name="ccedilla" format="1">
  <advance width="432"/>
  <unicode hex="00E7"/>
  <outline>
    <contour>
      <point x="275" y="518" type="curve" smooth="yes" name=""/>
      <point x="163" y="518"/>
      <point x="89" y="419"/>
      <point x="63" y="288" type="curve" smooth="yes"/>
      <point x="56" y="253"/>
      <point x="52" y="215"/>
      <point x="52" y="176" type="curve" smooth="yes"/>
      <point x="52" y="75"/>
      <point x="95" y="-1"/>
      <point x="185" y="-11" type="curve"/>
      <point x="156" y="-84" type="line"/>
      <point x="190" y="-86" type="line" smooth="yes"/>
      <point x="225" y="-88"/>
      <point x="237" y="-104"/>
      <point x="237" y="-128" type="curve" smooth="yes"/>
      <point x="237" y="-164"/>
      <point x="209" y="-184"/>
      <point x="173" y="-184" type="curve" smooth="yes"/>
      <point x="147" y="-184"/>
      <point x="128" y="-174"/>
      <point x="116" y="-157" type="curve"/>
      <point x="102" y="-170" type="line"/>
      <point x="111" y="-187"/>
      <point x="138" y="-202"/>
      <point x="173" y="-202" type="curve" smooth="yes"/>
      <point x="223" y="-202"/>
      <point x="257" y="-171"/>
      <point x="257" y="-127" type="curve" smooth="yes"/>
      <point x="257" y="-93"/>
      <point x="238" y="-72"/>
      <point x="205" y="-72" type="curve" smooth="yes"/>
      <point x="198" y="-72"/>
      <point x="188" y="-73"/>
      <point x="181" y="-75" type="curve"/>
      <point x="179" y="-73" type="line"/>
      <point x="203" y="-12" type="line"/>
      <point x="285" y="-13"/>
      <point x="330" y="37"/>
      <point x="376" y="115" type="curve"/>
      <point x="359" y="124" type="line"/>
      <point x="319" y="51"/>
      <point x="275" y="7"/>
      <point x="206" y="7" type="curve" smooth="yes"/>
      <point x="109" y="7"/>
      <point x="72" y="83"/>
      <point x="72" y="176" type="curve" smooth="yes"/>
      <point x="72" y="196"/>
      <point x="74" y="227"/>
      <point x="79" y="252" type="curve" smooth="yes"/>
      <point x="89" y="302" type="line" smooth="yes"/>
      <point x="114" y="425"/>
      <point x="181" y="499"/>
      <point x="273" y="499" type="curve" smooth="yes"/>
      <point x="335" y="499"/>
      <point x="377" y="463"/>
      <point x="390" y="398" type="curve"/>
      <point x="409" y="403" type="line"/>
      <point x="397" y="471"/>
      <point x="349" y="518"/>
    </contour>
    <contour>
      <point x="296.0" y="540.0" type="move" name="top"/>
    </contour>
  </outline>
</glyph>
<glyph name="oslash" format="1">
  <advance width="484"/>
  <unicode hex="00F8"/>
  <outline>
    <contour>
      <point x="203" y="-12" type="curve" smooth="yes"/>
      <point x="321" y="-12"/>
      <point x="393" y="87"/>
      <point x="420" y="219" type="curve" smooth="yes"/>
      <point x="428" y="258"/>
      <point x="432" y="297"/>
      <point x="432" y="339" type="curve" smooth="yes"/>
      <point x="432" y="383"/>
      <point x="423" y="420"/>
      <point x="407" y="449" type="curve"/>
      <point x="464" y="521" type="line"/>
      <point x="451" y="532" type="line"/>
      <point x="397" y="465" type="line"/>
      <point x="371" y="499"/>
      <point x="332" y="518"/>
      <point x="281" y="518" type="curve" smooth="yes"/>
      <point x="163" y="518"/>
      <point x="91" y="419"/>
      <point x="64" y="287" type="curve" smooth="yes"/>
      <point x="56" y="248"/>
      <point x="52" y="209"/>
      <point x="52" y="167" type="curve" smooth="yes"/>
      <point x="52" y="123"/>
      <point x="61" y="86"/>
      <point x="77" y="57" type="curve"/>
      <point x="20" y="-15" type="line"/>
      <point x="33" y="-26" type="line"/>
      <point x="87" y="41" type="line"/>
      <point x="113" y="7"/>
      <point x="152" y="-12"/>
    </contour>
    <contour>
      <point x="205" y="7" type="curve" smooth="yes"/>
      <point x="155" y="7"/>
      <point x="120" y="25"/>
      <point x="99" y="56" type="curve"/>
      <point x="239" y="235" type="line"/>
      <point x="392" y="432" type="line"/>
      <point x="395" y="432" type="line"/>
      <point x="406" y="406"/>
      <point x="412" y="372"/>
      <point x="412" y="339" type="curve" smooth="yes"/>
      <point x="412" y="314"/>
      <point x="411" y="295"/>
      <point x="401" y="239" type="curve"/>
      <point x="399" y="227" type="line" smooth="yes"/>
      <point x="377" y="97"/>
      <point x="313" y="7"/>
    </contour>
    <contour>
      <point x="279" y="499" type="curve" smooth="yes"/>
      <point x="329" y="499"/>
      <point x="364" y="481"/>
      <point x="385" y="450" type="curve"/>
      <point x="245" y="271" type="line"/>
      <point x="92" y="74" type="line"/>
      <point x="89" y="74" type="line"/>
      <point x="78" y="100"/>
      <point x="72" y="134"/>
      <point x="72" y="167" type="curve" smooth="yes"/>
      <point x="72" y="192"/>
      <point x="73" y="211"/>
      <point x="83" y="267" type="curve"/>
      <point x="85" y="279" type="line" smooth="yes"/>
      <point x="107" y="409"/>
      <point x="171" y="499"/>
    </contour>
    <contour>
      <point x="192.0" y="0.0" type="move" name="bottom"/>
    </contour>
    <contour>
      <point x="300.0" y="540.0" type="move" name="top"/>
    </contour>
  </outline>
</glyph>
<glyph name="thorn" format="1">
  <advance width="503"/>
  <unicode hex="00FE"/>
  <outline>
    <contour>
      <point x="1" y="-200" type="line" name="hr00"/>
      <point x="22" y="-200" type="line"/>
      <point x="80" y="91" type="line"/>
      <point x="86" y="91" type="line"/>
      <point x="100" y="26"/>
      <point x="152" y="-12"/>
      <point x="225" y="-12" type="curve" smooth="yes"/>
      <point x="332" y="-12"/>
      <point x="411" y="72"/>
      <point x="440" y="218" type="curve" smooth="yes"/>
      <point x="447" y="253"/>
      <point x="451" y="292"/>
      <point x="451" y="327" type="curve" smooth="yes"/>
      <point x="451" y="451"/>
      <point x="399" y="518"/>
      <point x="307" y="518" type="curve" smooth="yes"/>
      <point x="236" y="518"/>
      <point x="184" y="479"/>
      <point x="147" y="395" type="curve"/>
      <point x="141" y="395" type="line"/>
      <point x="210" y="740" type="line"/>
      <point x="189" y="740" type="line"/>
    </contour>
    <contour>
      <point x="225" y="7" type="curve" smooth="yes"/>
      <point x="135" y="7"/>
      <point x="77" y="74"/>
      <point x="94" y="160" type="curve" smooth="yes"/>
      <point x="121" y="297" type="line" smooth="yes"/>
      <point x="133" y="360"/>
      <point x="168" y="421"/>
      <point x="205" y="459" type="curve" smooth="yes"/>
      <point x="232" y="487"/>
      <point x="262" y="499"/>
      <point x="301" y="499" type="curve" smooth="yes"/>
      <point x="389" y="499"/>
      <point x="431" y="441"/>
      <point x="431" y="323" type="curve" smooth="yes"/>
      <point x="431" y="297"/>
      <point x="429" y="277"/>
      <point x="425" y="258" type="curve" smooth="yes"/>
      <point x="418" y="223" type="line" smooth="yes"/>
      <point x="390" y="83"/>
      <point x="322" y="7"/>
    </contour>
  </outline>
</glyph>
<glyph name="Aogonek" format="1">
  <advance width="537"/>
  <unicode hex="0104"/>
  <outline>
    <contour>
      <point x="-17" y="0" type="line" name=""/>
      <point x="7" y="0" type="line"/>
      <point x="121" y="234" type="line"/>
      <point x="405" y="234" type="line"/>
      <point x="440" y="-3" type="line"/>
      <point x="444" y="-3" type="line"/>
      <point x="444" y="0" type="line"/>
      <point x="339" y="-56"/>
      <point x="314" y="-95"/>
      <point x="314" y="-140" type="curve" smooth="yes"/>
      <point x="314" y="-182"/>
      <point x="344" y="-202"/>
      <point x="381" y="-202" type="curve" smooth="yes"/>
      <point x="411" y="-202"/>
      <point x="436" y="-188"/>
      <point x="451" y="-170" type="curve"/>
      <point x="438" y="-159" type="line"/>
      <point x="427" y="-171"/>
      <point x="409" y="-184"/>
      <point x="381" y="-184" type="curve" smooth="yes"/>
      <point x="356" y="-184"/>
      <point x="335" y="-169"/>
      <point x="335" y="-140" type="curve" smooth="yes"/>
      <point x="335" y="-85"/>
      <point x="372" y="-57"/>
      <point x="462" y="0" type="curve"/>
      <point x="356" y="698" type="line"/>
      <point x="326" y="698" type="line"/>
    </contour>
    <contour>
      <point x="402" y="253" type="line"/>
      <point x="131" y="253" type="line"/>
      <point x="277" y="552" type="line"/>
      <point x="336" y="673" type="line"/>
      <point x="339" y="673" type="line"/>
      <point x="357" y="552" type="line"/>
    </contour>
    <contour>
      <point x="341.0" y="698.0" type="move" name="top"/>
    </contour>
  </outline>
</glyph>
<glyph name="aogonek" format="1">
  <advance width="513"/>
  <unicode hex="0105"/>
  <outline>
    <contour>
      <point x="441" y="19" type="line"/>
      <point x="365" y="19" type="line"/>
      <point x="462" y="506" type="line"/>
      <point x="441" y="506" type="line"/>
      <point x="423" y="415" type="line"/>
      <point x="417" y="415" type="line"/>
      <point x="403" y="480"/>
      <point x="351" y="518"/>
      <point x="278" y="518" type="curve" smooth="yes" name=""/>
      <point x="171" y="518"/>
      <point x="92" y="434"/>
      <point x="63" y="288" type="curve" smooth="yes"/>
      <point x="56" y="253"/>
      <point x="52" y="214"/>
      <point x="52" y="179" type="curve" smooth="yes"/>
      <point x="52" y="55"/>
      <point x="104" y="-12"/>
      <point x="196" y="-12" type="curve" smooth="yes"/>
      <point x="267" y="-12"/>
      <point x="319" y="27"/>
      <point x="356" y="111" type="curve"/>
      <point x="362" y="111" type="line"/>
      <point x="346" y="31" type="line" smooth="yes"/>
      <point x="345" y="26"/>
      <point x="344" y="20"/>
      <point x="344" y="15" type="curve" smooth="yes"/>
      <point x="344" y="4"/>
      <point x="354" y="0"/>
      <point x="367" y="0" type="curve" smooth="yes" name=""/>
      <point x="422" y="0" type="line"/>
      <point x="410" y="8" type="line"/>
      <point x="413" y="-4" type="line"/>
      <point x="314" y="-58"/>
      <point x="289" y="-92"/>
      <point x="289" y="-140" type="curve" smooth="yes"/>
      <point x="289" y="-182"/>
      <point x="319" y="-202"/>
      <point x="356" y="-202" type="curve" smooth="yes"/>
      <point x="386" y="-202"/>
      <point x="411" y="-188"/>
      <point x="426" y="-170" type="curve"/>
      <point x="413" y="-159" type="line"/>
      <point x="402" y="-171"/>
      <point x="384" y="-184"/>
      <point x="356" y="-184" type="curve" smooth="yes"/>
      <point x="331" y="-184"/>
      <point x="310" y="-169"/>
      <point x="310" y="-140" type="curve" smooth="yes"/>
      <point x="310" y="-85"/>
      <point x="347" y="-56"/>
      <point x="437" y="0" type="curve"/>
    </contour>
    <contour>
      <point x="202" y="7" type="curve" smooth="yes" name=""/>
      <point x="114" y="7"/>
      <point x="72" y="65"/>
      <point x="72" y="183" type="curve" smooth="yes"/>
      <point x="72" y="209"/>
      <point x="74" y="229"/>
      <point x="78" y="248" type="curve" smooth="yes"/>
      <point x="85" y="283" type="line" smooth="yes"/>
      <point x="113" y="423"/>
      <point x="181" y="499"/>
      <point x="278" y="499" type="curve" smooth="yes"/>
      <point x="368" y="499"/>
      <point x="426" y="432"/>
      <point x="409" y="346" type="curve" smooth="yes"/>
      <point x="382" y="209" type="line" smooth="yes"/>
      <point x="370" y="146"/>
      <point x="335" y="85"/>
      <point x="298" y="47" type="curve" smooth="yes"/>
      <point x="271" y="19"/>
      <point x="241" y="7"/>
    </contour>
    <contour>
      <point x="296.0" y="540.0" type="move" name="top"/>
    </contour>
  </outline>
</glyph>
<glyph name="dcroat" format="1">
  <advance width="513"/>
  <unicode hex="0111"/>
  <outline>
    <contour>
      <point x="437" y="0" type="line"/>
      <point x="441" y="19" type="line"/>
      <point x="365" y="19" type="line"/>
      <point x="487" y="629" type="line"/>
      <point x="552" y="629" type="line"/>
      <point x="555" y="647" type="line"/>
      <point x="490" y="647" type="line"/>
      <point x="509" y="740" type="line"/>
      <point x="488" y="740" type="line"/>
      <point x="469" y="647" type="line"/>
      <point x="320" y="647" type="line"/>
      <point x="316" y="629" type="line"/>
      <point x="466" y="629" type="line"/>
      <point x="423" y="415" type="line"/>
      <point x="417" y="415" type="line"/>
      <point x="403" y="480"/>
      <point x="351" y="518"/>
      <point x="278" y="518" type="curve" smooth="yes"/>
      <point x="171" y="518"/>
      <point x="92" y="434"/>
      <point x="63" y="288" type="curve" smooth="yes"/>
      <point x="56" y="253"/>
      <point x="52" y="214"/>
      <point x="52" y="179" type="curve" smooth="yes"/>
      <point x="52" y="55"/>
      <point x="104" y="-12"/>
      <point x="196" y="-12" type="curve" smooth="yes" name="hr01"/>
      <point x="267" y="-12"/>
      <point x="319" y="27"/>
      <point x="356" y="111" type="curve"/>
      <point x="362" y="111" type="line"/>
      <point x="346" y="31" type="line" smooth="yes"/>
      <point x="345" y="26"/>
      <point x="344" y="20"/>
      <point x="344" y="15" type="curve" smooth="yes"/>
      <point x="344" y="4"/>
      <point x="354" y="0"/>
      <point x="367" y="0" type="curve" smooth="yes" name="hr02"/>
    </contour>
    <contour>
      <point x="202" y="7" type="curve" smooth="yes" name="hr03"/>
      <point x="114" y="7"/>
      <point x="72" y="65"/>
      <point x="72" y="183" type="curve" smooth="yes"/>
      <point x="72" y="209"/>
      <point x="74" y="229"/>
      <point x="78" y="248" type="curve" smooth="yes"/>
      <point x="85" y="283" type="line" smooth="yes"/>
      <point x="113" y="423"/>
      <point x="181" y="499"/>
      <point x="278" y="499" type="curve" smooth="yes"/>
      <point x="368" y="499"/>
      <point x="426" y="432"/>
      <point x="409" y="346" type="curve" smooth="yes"/>
      <point x="382" y="209" type="line" smooth="yes"/>
      <point x="370" y="146"/>
      <point x="335" y="85"/>
      <point x="298" y="47" type="curve" smooth="yes"/>
      <point x="271" y="19"/>
      <point x="241" y="7"/>
    </contour>
  </outline>
</glyph>
<glyph name="Hbar" format="1">
  <advance width="615"/>
  <unicode hex="0126"/>
  <outline>
    <contour>
      <point x="447" y="0" type="line" name="hr00"/>
      <point x="469" y="0" type="line"/>
      <point x="576" y="537" type="line"/>
      <point x="652" y="537" type="line"/>
      <point x="656" y="556" type="line"/>
      <point x="580" y="556" type="line"/>
      <point x="609" y="698" type="line"/>
      <point x="587" y="698" type="line"/>
      <point x="558" y="556" type="line"/>
      <point x="177" y="556" type="line"/>
      <point x="206" y="698" type="line"/>
      <point x="184" y="698" type="line"/>
      <point x="155" y="556" type="line"/>
      <point x="81" y="556" type="line"/>
      <point x="77" y="537" type="line"/>
      <point x="151" y="537" type="line"/>
      <point x="44" y="0" type="line"/>
      <point x="66" y="0" type="line"/>
      <point x="135" y="344" type="line"/>
      <point x="516" y="344" type="line"/>
    </contour>
    <contour>
      <point x="139" y="364" type="line"/>
      <point x="173" y="537" type="line"/>
      <point x="554" y="537" type="line"/>
      <point x="520" y="364" type="line"/>
    </contour>
  </outline>
</glyph>
<glyph name="hbar" format="1">
  <advance width="495"/>
  <unicode hex="0127"/>
  <outline>
    <contour>
      <point x="41" y="0" type="line" name="hr00"/>
      <point x="62" y="0" type="line"/>
      <point x="121" y="297" type="line" smooth="yes"/>
      <point x="135" y="369"/>
      <point x="159" y="404"/>
      <point x="181" y="434" type="curve" smooth="yes"/>
      <point x="214" y="479"/>
      <point x="257" y="499"/>
      <point x="303" y="499" type="curve" smooth="yes"/>
      <point x="370" y="499"/>
      <point x="401" y="461"/>
      <point x="401" y="393" type="curve" smooth="yes"/>
      <point x="401" y="378"/>
      <point x="399" y="347"/>
      <point x="394" y="320" type="curve" smooth="yes"/>
      <point x="336" y="31" type="line" smooth="yes"/>
      <point x="335" y="26"/>
      <point x="334" y="20"/>
      <point x="334" y="15" type="curve" smooth="yes"/>
      <point x="334" y="4"/>
      <point x="344" y="0"/>
      <point x="357" y="0" type="curve" smooth="yes"/>
      <point x="427" y="0" type="line"/>
      <point x="431" y="19" type="line"/>
      <point x="355" y="19" type="line"/>
      <point x="415" y="321" type="line" smooth="yes"/>
      <point x="420" y="346"/>
      <point x="422" y="373"/>
      <point x="422" y="396" type="curve" smooth="yes"/>
      <point x="422" y="473"/>
      <point x="383" y="518"/>
      <point x="306" y="518" type="curve" smooth="yes"/>
      <point x="232" y="518"/>
      <point x="180" y="477"/>
      <point x="148" y="401" type="curve"/>
      <point x="142" y="401" type="line"/>
      <point x="188" y="629" type="line"/>
      <point x="338" y="629" type="line"/>
      <point x="342" y="647" type="line"/>
      <point x="191" y="647" type="line"/>
      <point x="210" y="740" type="line"/>
      <point x="189" y="740" type="line"/>
      <point x="170" y="647" type="line"/>
      <point x="106" y="647" type="line"/>
      <point x="102" y="629" type="line"/>
      <point x="167" y="629" type="line"/>
    </contour>
  </outline>
</glyph>
<glyph name="Iogonek" format="1">
  <advance width="330"/>
  <unicode hex="012E"/>
  <outline>
    <contour>
      <point x="7" y="0" type="line" name="hr00"/>
      <point x="196" y="0" type="line"/>
      <point x="195" y="-4" type="line"/>
      <point x="97" y="-58"/>
      <point x="73" y="-92"/>
      <point x="73" y="-140" type="curve" smooth="yes"/>
      <point x="73" y="-182"/>
      <point x="103" y="-202"/>
      <point x="140" y="-202" type="curve" smooth="yes"/>
      <point x="170" y="-202"/>
      <point x="195" y="-188"/>
      <point x="210" y="-170" type="curve"/>
      <point x="197" y="-159" type="line"/>
      <point x="186" y="-171"/>
      <point x="168" y="-184"/>
      <point x="140" y="-184" type="curve" smooth="yes"/>
      <point x="115" y="-184"/>
      <point x="94" y="-169"/>
      <point x="94" y="-140" type="curve" smooth="yes"/>
      <point x="94" y="-85"/>
      <point x="131" y="-56"/>
      <point x="221" y="0" type="curve"/>
      <point x="225" y="19" type="line"/>
      <point x="129" y="19" type="line"/>
      <point x="261" y="679" type="line"/>
      <point x="357" y="679" type="line"/>
      <point x="361" y="698" type="line"/>
      <point x="147" y="698" type="line"/>
      <point x="143" y="679" type="line"/>
      <point x="239" y="679" type="line"/>
      <point x="107" y="19" type="line"/>
      <point x="11" y="19" type="line"/>
    </contour>
  </outline>
</glyph>
<glyph name="dotlessi" format="1">
  <advance width="214"/>
  <unicode hex="0131"/>
  <outline>
    <contour>
      <point x="138" y="0" type="line" name="hr00"/>
      <point x="142" y="19" type="line"/>
      <point x="66" y="19" type="line"/>
      <point x="163" y="506" type="line"/>
      <point x="142" y="506" type="line"/>
      <point x="47" y="31" type="line" smooth="yes"/>
      <point x="46" y="26"/>
      <point x="45" y="20"/>
      <point x="45" y="15" type="curve" smooth="yes"/>
      <point x="45" y="4"/>
      <point x="55" y="0"/>
      <point x="68" y="0" type="curve" smooth="yes"/>
    </contour>
    <contour>
      <point x="87" y="0" type="move" name="bottom"/>
    </contour>
    <contour>
      <point x="138" y="0" type="move" name="bottomright"/>
    </contour>
    <contour>
      <point x="159" y="540" type="move" name="top"/>
    </contour>
  </outline>
</glyph>
<glyph name="Lslash" format="1">
  <advance width="427"/>
  <unicode hex="0141"/>
  <outline>
    <contour>
      <point x="363" y="20" type="line" name="hr00"/>
      <point x="70" y="20" type="line"/>
      <point x="128" y="307" type="line"/>
      <point x="316" y="373" type="line"/>
      <point x="320" y="395" type="line"/>
      <point x="132" y="328" type="line"/>
      <point x="206" y="698" type="line"/>
      <point x="184" y="698" type="line"/>
      <point x="108" y="320" type="line"/>
      <point x="21" y="289" type="line"/>
      <point x="17" y="269" type="line"/>
      <point x="104" y="299" type="line"/>
      <point x="44" y="0" type="line"/>
      <point x="359" y="0" type="line"/>
    </contour>
  </outline>
</glyph>
<glyph name="lslash" format="1">
  <advance width="213"/>
  <unicode hex="0142"/>
  <outline>
    <contour>
      <point x="141" y="19" type="line" name="hr00"/>
      <point x="65" y="19" type="line"/>
      <point x="133" y="358" type="line"/>
      <point x="219" y="387" type="line"/>
      <point x="223" y="409" type="line"/>
      <point x="137" y="380" type="line"/>
      <point x="209" y="740" type="line"/>
      <point x="188" y="740" type="line"/>
      <point x="114" y="372" type="line"/>
      <point x="50" y="350" type="line"/>
      <point x="46" y="328" type="line"/>
      <point x="110" y="350" type="line"/>
      <point x="46" y="31" type="line" smooth="yes"/>
      <point x="45" y="26"/>
      <point x="44" y="20"/>
      <point x="44" y="15" type="curve" smooth="yes"/>
      <point x="44" y="4"/>
      <point x="54" y="0"/>
      <point x="67" y="0" type="curve" smooth="yes"/>
      <point x="137" y="0" type="line"/>
    </contour>
  </outline>
</glyph>
<glyph name="eng" format="1">
  <advance width="495"/>
  <unicode hex="014B"/>
  <outline>
    <contour>
      <point x="217" y="-181" type="line"/>
      <point x="213" y="-200" type="line"/>
      <point x="282" y="-200" type="line" smooth="yes"/>
      <point x="305" y="-200"/>
      <point x="312" y="-194"/>
      <point x="316" y="-172" type="curve" smooth="yes"/>
      <point x="414" y="319" type="line" smooth="yes"/>
      <point x="419" y="344"/>
      <point x="422" y="372"/>
      <point x="422" y="396" type="curve" smooth="yes"/>
      <point x="422" y="473"/>
      <point x="383" y="518"/>
      <point x="306" y="518" type="curve" smooth="yes"/>
      <point x="232" y="518"/>
      <point x="180" y="477"/>
      <point x="148" y="401" type="curve"/>
      <point x="142" y="401" type="line"/>
      <point x="163" y="506" type="line" name="hr01"/>
      <point x="142" y="506" type="line"/>
      <point x="41" y="0" type="line"/>
      <point x="62" y="0" type="line"/>
      <point x="121" y="297" type="line" smooth="yes"/>
      <point x="135" y="369"/>
      <point x="159" y="404"/>
      <point x="181" y="434" type="curve" smooth="yes"/>
      <point x="214" y="479"/>
      <point x="257" y="499"/>
      <point x="303" y="499" type="curve" smooth="yes" name="hr02"/>
      <point x="370" y="499"/>
      <point x="401" y="461"/>
      <point x="401" y="393" type="curve" smooth="yes"/>
      <point x="401" y="378"/>
      <point x="398" y="346"/>
      <point x="393" y="319" type="curve" smooth="yes"/>
      <point x="293" y="-181" type="line"/>
    </contour>
  </outline>
</glyph>
<glyph name="Scedilla" format="1">
  <advance width="485"/>
  <unicode hex="015E"/>
  <outline>
    <contour>
      <point x="306" y="690" type="curve" smooth="yes" name=""/>
      <point x="387" y="690"/>
      <point x="439" y="667"/>
      <point x="470" y="601" type="curve"/>
      <point x="488" y="612" type="line"/>
      <point x="458" y="675"/>
      <point x="403" y="710"/>
      <point x="308" y="710" type="curve" smooth="yes"/>
      <point x="177" y="710"/>
      <point x="105" y="620"/>
      <point x="105" y="513" type="curve" smooth="yes"/>
      <point x="105" y="436"/>
      <point x="145" y="382"/>
      <point x="223" y="358" type="curve" smooth="yes"/>
      <point x="291" y="337" type="line" smooth="yes"/>
      <point x="365" y="314"/>
      <point x="401" y="277"/>
      <point x="401" y="206" type="curve" smooth="yes"/>
      <point x="401" y="100"/>
      <point x="344" y="8"/>
      <point x="210" y="8" type="curve" smooth="yes"/>
      <point x="114" y="8"/>
      <point x="64" y="46"/>
      <point x="31" y="112" type="curve"/>
      <point x="13" y="99" type="line"/>
      <point x="45" y="37"/>
      <point x="96" y="-4"/>
      <point x="182" y="-11" type="curve"/>
      <point x="153" y="-84" type="line"/>
      <point x="187" y="-86" type="line" smooth="yes"/>
      <point x="222" y="-88"/>
      <point x="234" y="-104"/>
      <point x="234" y="-128" type="curve" smooth="yes"/>
      <point x="234" y="-164"/>
      <point x="206" y="-184"/>
      <point x="170" y="-184" type="curve" smooth="yes"/>
      <point x="144" y="-184"/>
      <point x="125" y="-174"/>
      <point x="113" y="-157" type="curve"/>
      <point x="99" y="-170" type="line"/>
      <point x="108" y="-187"/>
      <point x="135" y="-202"/>
      <point x="170" y="-202" type="curve" smooth="yes"/>
      <point x="220" y="-202"/>
      <point x="254" y="-171"/>
      <point x="254" y="-127" type="curve" smooth="yes"/>
      <point x="254" y="-93"/>
      <point x="235" y="-72"/>
      <point x="202" y="-72" type="curve" smooth="yes"/>
      <point x="195" y="-72"/>
      <point x="185" y="-73"/>
      <point x="178" y="-75" type="curve"/>
      <point x="176" y="-73" type="line"/>
      <point x="200" y="-12" type="line"/>
      <point x="353" y="-16"/>
      <point x="424" y="87"/>
      <point x="424" y="206" type="curve" smooth="yes"/>
      <point x="424" y="289"/>
      <point x="380" y="331"/>
      <point x="297" y="357" type="curve" smooth="yes"/>
      <point x="229" y="378" type="line" smooth="yes"/>
      <point x="158" y="400"/>
      <point x="127" y="445"/>
      <point x="127" y="513" type="curve" smooth="yes"/>
      <point x="127" y="608"/>
      <point x="187" y="690"/>
    </contour>
    <contour>
      <point x="307.0" y="698.0" type="move" name="top"/>
    </contour>
  </outline>
</glyph>
<glyph name="scedilla" format="1">
  <advance width="405"/>
  <unicode hex="015F"/>
  <outline>
    <contour>
      <point x="146" y="-202" type="curve" smooth="yes" name=""/>
      <point x="196" y="-202"/>
      <point x="230" y="-171"/>
      <point x="230" y="-127" type="curve" smooth="yes"/>
      <point x="230" y="-93"/>
      <point x="211" y="-72"/>
      <point x="178" y="-72" type="curve" smooth="yes"/>
      <point x="171" y="-72"/>
      <point x="161" y="-73"/>
      <point x="154" y="-75" type="curve"/>
      <point x="152" y="-73" type="line"/>
      <point x="176" y="-12" type="line"/>
      <point x="266" y="-13"/>
      <point x="335" y="37"/>
      <point x="335" y="133" type="curve" smooth="yes"/>
      <point x="335" y="205"/>
      <point x="293" y="240"/>
      <point x="230" y="260" type="curve" smooth="yes"/>
      <point x="185" y="274" type="line" smooth="yes"/>
      <point x="118" y="295"/>
      <point x="98" y="329"/>
      <point x="98" y="382" type="curve" smooth="yes"/>
      <point x="98" y="454"/>
      <point x="151" y="499"/>
      <point x="224" y="499" type="curve" smooth="yes"/>
      <point x="296" y="499"/>
      <point x="332" y="468"/>
      <point x="360" y="428" type="curve"/>
      <point x="376" y="442" type="line"/>
      <point x="345" y="484"/>
      <point x="302" y="518"/>
      <point x="225" y="518" type="curve" smooth="yes"/>
      <point x="146" y="518"/>
      <point x="77" y="469"/>
      <point x="77" y="382" type="curve" smooth="yes"/>
      <point x="77" y="314"/>
      <point x="110" y="277"/>
      <point x="180" y="255" type="curve" smooth="yes"/>
      <point x="225" y="241" type="line" smooth="yes"/>
      <point x="282" y="223"/>
      <point x="314" y="189"/>
      <point x="314" y="132" type="curve" smooth="yes"/>
      <point x="314" y="52"/>
      <point x="259" y="7"/>
      <point x="181" y="7" type="curve" smooth="yes"/>
      <point x="112" y="7"/>
      <point x="64" y="34"/>
      <point x="25" y="95" type="curve"/>
      <point x="8" y="83" type="line"/>
      <point x="45" y="26"/>
      <point x="92" y="-5"/>
      <point x="158" y="-11" type="curve"/>
      <point x="129" y="-84" type="line"/>
      <point x="163" y="-86" type="line" smooth="yes"/>
      <point x="198" y="-88"/>
      <point x="210" y="-104"/>
      <point x="210" y="-128" type="curve" smooth="yes"/>
      <point x="210" y="-164"/>
      <point x="182" y="-184"/>
      <point x="146" y="-184" type="curve" smooth="yes"/>
      <point x="120" y="-184"/>
      <point x="101" y="-174"/>
      <point x="89" y="-157" type="curve"/>
      <point x="75" y="-170" type="line"/>
      <point x="84" y="-187"/>
      <point x="111" y="-202"/>
    </contour>
    <contour>
      <point x="258.0" y="540.0" type="move" name="top"/>
    </contour>
  </outline>
</glyph>
<glyph name="tcedilla" format="1">
  <advance width="274"/>
  <unicode hex="0163"/>
  <outline>
    <contour>
      <point x="94" y="-202" type="curve" smooth="yes" name=""/>
      <point x="144" y="-202"/>
      <point x="178" y="-171"/>
      <point x="178" y="-127" type="curve" smooth="yes"/>
      <point x="178" y="-93"/>
      <point x="159" y="-72"/>
      <point x="126" y="-72" type="curve" smooth="yes"/>
      <point x="119" y="-72"/>
      <point x="109" y="-73"/>
      <point x="102" y="-75" type="curve"/>
      <point x="100" y="-73" type="line"/>
      <point x="129" y="0" type="line"/>
      <point x="180" y="0" type="line"/>
      <point x="184" y="19" type="line"/>
      <point x="83" y="19" type="line"/>
      <point x="176" y="487" type="line"/>
      <point x="285" y="487" type="line"/>
      <point x="289" y="506" type="line"/>
      <point x="180" y="506" type="line"/>
      <point x="209" y="650" type="line"/>
      <point x="188" y="650" type="line"/>
      <point x="164" y="531" type="line" smooth="yes"/>
      <point x="161" y="513"/>
      <point x="155" y="506"/>
      <point x="138" y="506" type="curve" smooth="yes"/>
      <point x="74" y="506" type="line"/>
      <point x="70" y="487" type="line"/>
      <point x="155" y="487" type="line"/>
      <point x="64" y="31" type="line" smooth="yes"/>
      <point x="63" y="26"/>
      <point x="62" y="20"/>
      <point x="62" y="15" type="curve" smooth="yes"/>
      <point x="62" y="4"/>
      <point x="72" y="0"/>
      <point x="85" y="0" type="curve" smooth="yes"/>
      <point x="124" y="0" type="line"/>
      <point x="117" y="15" type="line"/>
      <point x="77" y="-84" type="line"/>
      <point x="111" y="-86" type="line" smooth="yes"/>
      <point x="146" y="-88"/>
      <point x="158" y="-104"/>
      <point x="158" y="-128" type="curve" smooth="yes"/>
      <point x="158" y="-164"/>
      <point x="130" y="-184"/>
      <point x="94" y="-184" type="curve" smooth="yes"/>
      <point x="68" y="-184"/>
      <point x="49" y="-174"/>
      <point x="37" y="-157" type="curve"/>
      <point x="23" y="-170" type="line"/>
      <point x="32" y="-187"/>
      <point x="59" y="-202"/>
    </contour>
  </outline>
</glyph>
<glyph name="tbar" format="1">
  <advance width="274"/>
  <unicode hex="0167"/>
  <outline>
    <contour>
      <point x="184" y="19" type="line" name="hr00"/>
      <point x="83" y="19" type="line"/>
      <point x="135" y="280" type="line"/>
      <point x="221" y="280" type="line"/>
      <point x="225" y="298" type="line"/>
      <point x="139" y="298" type="line"/>
      <point x="176" y="487" type="line"/>
      <point x="285" y="487" type="line"/>
      <point x="289" y="506" type="line"/>
      <point x="180" y="506" type="line"/>
      <point x="209" y="650" type="line"/>
      <point x="188" y="650" type="line"/>
      <point x="164" y="531" type="line" smooth="yes"/>
      <point x="161" y="513"/>
      <point x="155" y="506"/>
      <point x="138" y="506" type="curve" smooth="yes"/>
      <point x="74" y="506" type="line"/>
      <point x="70" y="487" type="line"/>
      <point x="155" y="487" type="line"/>
      <point x="118" y="298" type="line"/>
      <point x="59" y="298" type="line"/>
      <point x="55" y="280" type="line"/>
      <point x="114" y="280" type="line"/>
      <point x="64" y="31" type="line" smooth="yes"/>
      <point x="63" y="26"/>
      <point x="62" y="20"/>
      <point x="62" y="15" type="curve" smooth="yes"/>
      <point x="62" y="4"/>
      <point x="72" y="0"/>
      <point x="85" y="0" type="curve" smooth="yes"/>
      <point x="180" y="0" type="line"/>
    </contour>
  </outline>
</glyph>
<glyph name="florin" format="1">
  <advance width="440"/>
  <unicode hex="0192"/>
  <outline>
    <contour>
      <point x="-83" y="-134" type="line" name="hr00"/>
      <point x="70" y="-134" type="line" smooth="yes"/>
      <point x="92" y="-134"/>
      <point x="100" y="-126"/>
      <point x="107" y="-101" type="curve" smooth="yes"/>
      <point x="224" y="311" type="line"/>
      <point x="411" y="311" type="line"/>
      <point x="417" y="330" type="line"/>
      <point x="230" y="330" type="line"/>
      <point x="329" y="679" type="line"/>
      <point x="494" y="679" type="line"/>
      <point x="500" y="698" type="line"/>
      <point x="343" y="698" type="line" smooth="yes"/>
      <point x="318" y="698"/>
      <point x="311" y="690"/>
      <point x="304" y="665" type="curve" smooth="yes"/>
      <point x="209" y="330" type="line"/>
      <point x="55" y="330" type="line"/>
      <point x="49" y="311" type="line"/>
      <point x="203" y="311" type="line"/>
      <point x="81" y="-115" type="line"/>
      <point x="-77" y="-115" type="line"/>
    </contour>
  </outline>
</glyph>
<glyph name="Ohorn" format="1">
  <advance width="595"/>
  <unicode hex="01A0"/>
  <outline>
    <contour>
      <point x="260" y="-12" type="curve" smooth="yes"/>
      <point x="424" y="-12"/>
      <point x="517" y="142"/>
      <point x="550" y="313" type="curve" smooth="yes"/>
      <point x="560" y="364"/>
      <point x="565" y="417"/>
      <point x="565" y="468" type="curve" smooth="yes"/>
      <point x="565" y="568"/>
      <point x="539" y="636"/>
      <point x="472" y="677" type="curve"/>
      <point x="473" y="680" type="line" name="hr02"/>
      <point x="556" y="680" type="line" smooth="yes"/>
      <point x="572" y="680"/>
      <point x="580" y="688"/>
      <point x="583" y="704" type="curve" smooth="yes"/>
      <point x="604" y="809" type="line"/>
      <point x="584" y="809" type="line"/>
      <point x="562" y="698" type="line"/>
      <point x="439" y="698" type="line"/>
      <point x="417" y="706"/>
      <point x="392" y="710"/>
      <point x="365" y="710" type="curve" smooth="yes" name="hr01"/>
      <point x="201" y="710"/>
      <point x="108" y="556"/>
      <point x="75" y="385" type="curve" smooth="yes"/>
      <point x="65" y="334"/>
      <point x="60" y="281"/>
      <point x="60" y="230" type="curve" smooth="yes"/>
      <point x="60" y="76"/>
      <point x="134" y="-12"/>
    </contour>
    <contour>
      <point x="260" y="8" type="curve" smooth="yes"/>
      <point x="140" y="8"/>
      <point x="82" y="97"/>
      <point x="82" y="230" type="curve" smooth="yes"/>
      <point x="82" y="259"/>
      <point x="83" y="300"/>
      <point x="92" y="343" type="curve" smooth="yes"/>
      <point x="102" y="394" type="line" smooth="yes"/>
      <point x="139" y="581"/>
      <point x="239" y="690"/>
      <point x="365" y="690" type="curve" smooth="yes" name="hr03"/>
      <point x="485" y="690"/>
      <point x="543" y="601"/>
      <point x="543" y="468" type="curve" smooth="yes"/>
      <point x="543" y="439"/>
      <point x="542" y="398"/>
      <point x="533" y="355" type="curve" smooth="yes"/>
      <point x="523" y="304" type="line" smooth="yes"/>
      <point x="486" y="117"/>
      <point x="386" y="8"/>
    </contour>
    <contour>
      <point x="242" y="0" type="move" name="bottom"/>
    </contour>
    <contour>
      <point x="382" y="698" type="move" name="top"/>
    </contour>
  </outline>
</glyph>
<glyph name="dotlessj" format="1">
  <advance width="208"/>
  <unicode hex="0237"/>
  <outline>
    <contour>
      <point x="-75" y="-200" type="line" name="hr00"/>
      <point x="-6" y="-200" type="line" smooth="yes"/>
      <point x="17" y="-200"/>
      <point x="24" y="-194"/>
      <point x="28" y="-172" type="curve" smooth="yes"/>
      <point x="163" y="506" type="line"/>
      <point x="142" y="506" type="line"/>
      <point x="5" y="-181" type="line"/>
      <point x="-71" y="-181" type="line"/>
    </contour>
    <contour>
      <point x="160" y="540" type="move" name="top"/>
    </contour>
  </outline>
</glyph>
<glyph name="caronslovak" format="1">
  <advance width="540"/>
  <unicode hex="02BC"/>
  <outline>
    <contour>
      <point x="316" y="740" type="line" name="hr00"/>
      <point x="293" y="740" type="line"/>
      <point x="248" y="564" type="line"/>
      <point x="264" y="564" type="line"/>
    </contour>
    <contour>
      <point x="270" y="740" type="move" name="_topright"/>
    </contour>
  </outline>
</glyph>
<glyph name="circumflex" format="1">
  <advance width="540"/>
  <unicode hex="02C6"/>
  <outline>
    <contour>
      <point x="286" y="743" type="line" name="hr00"/>
      <point x="146" y="611" type="line"/>
      <point x="159" y="599" type="line"/>
      <point x="297" y="726" type="line"/>
      <point x="385" y="599" type="line"/>
      <point x="399" y="609" type="line"/>
      <point x="310" y="743" type="line"/>
    </contour>
    <contour>
      <point x="270" y="540" type="move" name="_top"/>
    </contour>
  </outline>
</glyph>
<glyph name="caron" format="1">
  <advance width="540"/>
  <unicode hex="02C7"/>
  <outline>
    <contour>
      <point x="287" y="603" type="line" name="hr00"/>
      <point x="427" y="735" type="line"/>
      <point x="414" y="747" type="line"/>
      <point x="276" y="620" type="line"/>
      <point x="188" y="747" type="line"/>
      <point x="174" y="737" type="line"/>
      <point x="263" y="603" type="line"/>
    </contour>
    <contour>
      <point x="270" y="540" type="move" name="_top"/>
    </contour>
  </outline>
</glyph>
<glyph name="dotaccent" format="1">
  <advance width="540"/>
  <unicode hex="02D9"/>
  <outline>
    <contour>
      <point x="282" y="642" type="curve" smooth="yes" name="hr00"/>
      <point x="296" y="642"/>
      <point x="302" y="648"/>
      <point x="305" y="659" type="curve" smooth="yes"/>
      <point x="306" y="663"/>
      <point x="307" y="669"/>
      <point x="307" y="674" type="curve" smooth="yes"/>
      <point x="307" y="682"/>
      <point x="303" y="691"/>
      <point x="289" y="691" type="curve" smooth="yes"/>
      <point x="275" y="691"/>
      <point x="269" y="685"/>
      <point x="266" y="674" type="curve" smooth="yes"/>
      <point x="265" y="670"/>
      <point x="264" y="664"/>
      <point x="264" y="659" type="curve" smooth="yes"/>
      <point x="264" y="651"/>
      <point x="268" y="642"/>
    </contour>
    <contour>
      <point x="270" y="540" type="move" name="_top"/>
    </contour>
  </outline>
</glyph>
<glyph name="hungarumlaut" format="1">
  <advance width="540"/>
  <unicode hex="02DD"/>
  <outline>
    <contour>
      <point x="321" y="738" type="line" name="hr00"/>
      <point x="305" y="750" type="line"/>
      <point x="175" y="597" type="line"/>
      <point x="187" y="587" type="line"/>
    </contour>
    <contour>
      <point x="465" y="738" type="line"/>
      <point x="449" y="750" type="line"/>
      <point x="319" y="597" type="line"/>
      <point x="331" y="587" type="line"/>
    </contour>
    <contour>
      <point x="270" y="540" type="move" name="_top"/>
    </contour>
  </outline>
</glyph>
<glyph name="hookcomb" format="1">
  <advance width="0"/>
  <unicode hex="0309"/>
  <outline>
    <contour>
      <point x="-48" y="719" type="line" name="hr00"/>
      <point x="77" y="719" type="line"/>
      <point x="-16" y="594" type="line"/>
      <point x="-2" y="585" type="line"/>
      <point x="60" y="667" type="line" smooth="yes"/>
      <point x="92" y="707"/>
      <point x="96" y="713"/>
      <point x="96" y="722" type="curve" smooth="yes"/>
      <point x="96" y="731"/>
      <point x="91" y="737"/>
      <point x="75" y="737" type="curve" smooth="yes"/>
      <point x="-44" y="737" type="line"/>
    </contour>
    <contour>
      <point x="0" y="540" type="move" name="_top"/>
    </contour>
  </outline>
</glyph>
<glyph name="horncomb" format="1">
  <advance width="0"/>
  <unicode hex="031B"/>
  <outline>
    <contour>
      <point x="53" y="617" type="line" name="hr00"/>
      <point x="33" y="617" type="line"/>
      <point x="11" y="506" type="line"/>
      <point x="-61" y="506" type="line"/>
      <point x="-65" y="488" type="line"/>
      <point x="5" y="488" type="line" smooth="yes"/>
      <point x="21" y="488"/>
      <point x="29" y="496"/>
      <point x="32" y="512" type="curve" smooth="yes"/>
    </contour>
  </outline>
</glyph>
<glyph name="dotbelowcomb" format="1">
  <advance width="0"/>
  <unicode hex="0323"/>
  <outline>
    <contour>
      <point x="-24" y="-134" type="curve" smooth="yes" name="hr00"/>
      <point x="-10" y="-134"/>
      <point x="-4" y="-128"/>
      <point x="-1" y="-117" type="curve" smooth="yes"/>
      <point x="0" y="-113"/>
      <point x="1" y="-107"/>
      <point x="1" y="-102" type="curve" smooth="yes"/>
      <point x="1" y="-94"/>
      <point x="-3" y="-85"/>
      <point x="-17" y="-85" type="curve" smooth="yes"/>
      <point x="-31" y="-85"/>
      <point x="-37" y="-91"/>
      <point x="-40" y="-102" type="curve" smooth="yes"/>
      <point x="-41" y="-106"/>
      <point x="-42" y="-112"/>
      <point x="-42" y="-117" type="curve" smooth="yes"/>
      <point x="-42" y="-125"/>
      <point x="-38" y="-134"/>
    </contour>
    <contour>
      <point x="0" y="0" type="move" name="_bottom"/>
    </contour>
  </outline>
</glyph>
<glyph name="pi" format="1">
  <advance width="504"/>
  <unicode hex="03C0"/>
  <outline>
    <contour>
      <point x="424" y="0" type="line" name="hr00"/>
      <point x="428" y="19" type="line"/>
      <point x="343" y="19" type="line"/>
      <point x="436" y="487" type="line"/>
      <point x="521" y="487" type="line"/>
      <point x="525" y="506" type="line"/>
      <point x="68" y="506" type="line"/>
      <point x="64" y="487" type="line"/>
      <point x="149" y="487" type="line"/>
      <point x="51" y="0" type="line"/>
      <point x="72" y="0" type="line"/>
      <point x="170" y="487" type="line"/>
      <point x="415" y="487" type="line"/>
      <point x="325" y="36" type="line" smooth="yes"/>
      <point x="324" y="30"/>
      <point x="322" y="22"/>
      <point x="322" y="16" type="curve"/>
      <point x="322" y="7"/>
      <point x="329" y="0"/>
      <point x="342" y="0" type="curve" smooth="yes"/>
    </contour>
  </outline>
</glyph>
<glyph name="Germandbls" format="1">
  <advance width="624"/>
  <unicode hex="1E9E"/>
  <outline>
    <contour>
      <point x="334" y="8" type="curve" smooth="yes" name=""/>
      <point x="246" y="8"/>
      <point x="207" y="40"/>
      <point x="178" y="102" type="curve"/>
      <point x="160" y="89" type="line"/>
      <point x="191" y="26"/>
      <point x="238" y="-12"/>
      <point x="334" y="-12" type="curve" smooth="yes"/>
      <point x="434" y="-12"/>
      <point x="511" y="50"/>
      <point x="539" y="155" type="curve" smooth="yes"/>
      <point x="546" y="182"/>
      <point x="550" y="213"/>
      <point x="550" y="246" type="curve" smooth="yes"/>
      <point x="550" y="347"/>
      <point x="488" y="402"/>
      <point x="371" y="398" type="curve"/>
      <point x="372" y="402" type="line"/>
      <point x="598" y="676" type="line"/>
      <point x="602" y="698" type="line"/>
      <point x="184" y="698" type="line"/>
      <point x="44" y="0" type="line"/>
      <point x="66" y="0" type="line"/>
      <point x="202" y="678" type="line"/>
      <point x="574" y="678" type="line"/>
      <point x="343" y="399" type="line"/>
      <point x="339" y="379" type="line"/>
      <point x="381" y="379" type="line" smooth="yes"/>
      <point x="479" y="379"/>
      <point x="528" y="330"/>
      <point x="528" y="246" type="curve" smooth="yes"/>
      <point x="528" y="232"/>
      <point x="527" y="217"/>
      <point x="516" y="159" type="curve" smooth="yes"/>
      <point x="500" y="74"/>
      <point x="429" y="8"/>
    </contour>
  </outline>
</glyph>
<glyph name="emdash" format="1">
  <advance width="685"/>
  <unicode hex="2014"/>
  <outline>
    <contour>
      <point x="669" y="296" type="line" name="hr00"/>
      <point x="672" y="314" type="line"/>
      <point x="36" y="314" type="line"/>
      <point x="33" y="296" type="line"/>
    </contour>
  </outline>
</glyph>
<glyph name="quoteleft" format="1">
  <advance width="218"/>
  <unicode hex="2018"/>
  <outline>
    <contour>
      <point x="164" y="540" type="curve" smooth="yes" name="hr00"/>
      <point x="182" y="540"/>
      <point x="189" y="550"/>
      <point x="192" y="561" type="curve" smooth="yes"/>
      <point x="194" y="568"/>
      <point x="195" y="574"/>
      <point x="195" y="579" type="curve" smooth="yes"/>
      <point x="195" y="588"/>
      <point x="190" y="598"/>
      <point x="170" y="598" type="curve"/>
      <point x="182" y="637"/>
      <point x="210" y="691"/>
      <point x="264" y="740" type="curve"/>
      <point x="244" y="740" type="line"/>
      <point x="197" y="701"/>
      <point x="157" y="631"/>
      <point x="144" y="578" type="curve" smooth="yes"/>
      <point x="143" y="574"/>
      <point x="141" y="564"/>
      <point x="141" y="559" type="curve" smooth="yes"/>
      <point x="141" y="550"/>
      <point x="148" y="540"/>
    </contour>
  </outline>
</glyph>
<glyph name="quoteright" format="1">
  <advance width="218"/>
  <unicode hex="2019"/>
  <outline>
    <contour>
      <point x="210" y="741" type="curve" smooth="yes" name="hr00"/>
      <point x="192" y="741"/>
      <point x="185" y="731"/>
      <point x="182" y="720" type="curve" smooth="yes"/>
      <point x="180" y="713"/>
      <point x="179" y="707"/>
      <point x="179" y="702" type="curve" smooth="yes"/>
      <point x="179" y="693"/>
      <point x="184" y="683"/>
      <point x="204" y="683" type="curve"/>
      <point x="192" y="644"/>
      <point x="164" y="590"/>
      <point x="110" y="541" type="curve"/>
      <point x="130" y="541" type="line"/>
      <point x="177" y="580"/>
      <point x="217" y="650"/>
      <point x="230" y="703" type="curve" smooth="yes"/>
      <point x="231" y="707"/>
      <point x="233" y="717"/>
      <point x="233" y="722" type="curve" smooth="yes"/>
      <point x="233" y="731"/>
      <point x="226" y="741"/>
    </contour>
  </outline>
</glyph>
<glyph name="dagger" format="1">
  <advance width="504"/>
  <unicode hex="2020"/>
  <outline>
    <contour>
      <point x="171" y="-200" type="line" name="hr00"/>
      <point x="308" y="487" type="line"/>
      <point x="498" y="487" type="line"/>
      <point x="502" y="506" type="line"/>
      <point x="312" y="506" type="line"/>
      <point x="359" y="740" type="line"/>
      <point x="338" y="740" type="line"/>
      <point x="291" y="506" type="line"/>
      <point x="101" y="506" type="line"/>
      <point x="97" y="487" type="line"/>
      <point x="287" y="487" type="line"/>
      <point x="150" y="-200" type="line"/>
    </contour>
  </outline>
</glyph>
<glyph name="daggerdbl" format="1">
  <advance width="504"/>
  <unicode hex="2021"/>
  <outline>
    <contour>
      <point x="171" y="-200" type="line"/>
      <point x="218" y="34" type="line"/>
      <point x="408" y="34" type="line"/>
      <point x="412" y="53" type="line"/>
      <point x="221" y="53" type="line"/>
      <point x="308" y="487" type="line"/>
      <point x="498" y="487" type="line"/>
      <point x="502" y="506" type="line"/>
      <point x="312" y="506" type="line"/>
      <point x="359" y="740" type="line"/>
      <point x="338" y="740" type="line"/>
      <point x="291" y="506" type="line"/>
      <point x="101" y="506" type="line"/>
      <point x="97" y="487" type="line"/>
      <point x="287" y="487" type="line"/>
      <point x="200" y="53" type="line"/>
      <point x="11" y="53" type="line"/>
      <point x="7" y="34" type="line"/>
      <point x="197" y="34" type="line"/>
      <point x="150" y="-200" type="line" name="hr00"/>
    </contour>
  </outline>
</glyph>
<glyph name="guilsinglleft" format="1">
  <advance width="259"/>
  <unicode hex="2039"/>
  <outline>
    <contour>
      <point x="196" y="128" type="line" name="hr00"/>
      <point x="68" y="289" type="line"/>
      <point x="68" y="292" type="line"/>
      <point x="247" y="455" type="line"/>
      <point x="240" y="472" type="line"/>
      <point x="47" y="304" type="line"/>
      <point x="43" y="284" type="line"/>
      <point x="185" y="116" type="line"/>
    </contour>
  </outline>
</glyph>
<glyph name="fraction" format="1">
  <advance width="101"/>
  <unicode hex="2044"/>
  <outline>
    <contour>
      <point x="-227" y="0" type="line"/>
      <point x="-204" y="0" type="line"/>
      <point x="359" y="698" type="line"/>
      <point x="336" y="698" type="line"/>
    </contour>
  </outline>
</glyph>
<glyph name="foursuperior" format="1">
  <advance width="320"/>
  <unicode hex="2074"/>
  <outline>
    <contour>
      <point x="249" y="329" type="line" name="hr00"/>
      <point x="267" y="418" type="line"/>
      <point x="326" y="418" type="line"/>
      <point x="330" y="435" type="line"/>
      <point x="270" y="435" type="line"/>
      <point x="323" y="698" type="line"/>
      <point x="295" y="698" type="line"/>
      <point x="62" y="437" type="line"/>
      <point x="59" y="418" type="line"/>
      <point x="249" y="418" type="line"/>
      <point x="231" y="329" type="line"/>
    </contour>
    <contour>
      <point x="253" y="435" type="line"/>
      <point x="82" y="435" type="line"/>
      <point x="298" y="678" type="line"/>
      <point x="301" y="678" type="line"/>
    </contour>
  </outline>
</glyph>
<glyph name="sevensuperior" format="1">
  <advance width="320"/>
  <unicode hex="2077"/>
  <outline>
    <contour>
      <point x="150" y="329" type="line" name="hr00"/>
      <point x="357" y="679" type="line"/>
      <point x="361" y="698" type="line"/>
      <point x="135" y="698" type="line"/>
      <point x="113" y="591" type="line"/>
      <point x="130" y="591" type="line"/>
      <point x="148" y="681" type="line"/>
      <point x="339" y="681" type="line"/>
      <point x="131" y="329" type="line"/>
    </contour>
  </outline>
</glyph>
<glyph name="zeroinferior" format="1">
  <advance width="320"/>
  <unicode hex="2080"/>
  <outline>
    <contour>
      <point x="119" y="-6" type="curve" smooth="yes" name="hr00"/>
      <point x="208" y="-6"/>
      <point x="248" y="82"/>
      <point x="264" y="165" type="curve" smooth="yes"/>
      <point x="269" y="194"/>
      <point x="271" y="223"/>
      <point x="271" y="247" type="curve" smooth="yes"/>
      <point x="271" y="327"/>
      <point x="233" y="375"/>
      <point x="170" y="375" type="curve" smooth="yes"/>
      <point x="81" y="375"/>
      <point x="41" y="287"/>
      <point x="25" y="204" type="curve" smooth="yes"/>
      <point x="20" y="175"/>
      <point x="18" y="146"/>
      <point x="18" y="122" type="curve" smooth="yes"/>
      <point x="18" y="42"/>
      <point x="56" y="-6"/>
    </contour>
    <contour>
      <point x="120" y="11" type="curve" smooth="yes"/>
      <point x="65" y="11"/>
      <point x="37" y="48"/>
      <point x="37" y="123" type="curve" smooth="yes"/>
      <point x="37" y="150"/>
      <point x="39" y="163"/>
      <point x="41" y="175" type="curve" smooth="yes"/>
      <point x="48" y="216" type="line" smooth="yes"/>
      <point x="62" y="300"/>
      <point x="102" y="358"/>
      <point x="169" y="358" type="curve" smooth="yes"/>
      <point x="224" y="358"/>
      <point x="252" y="321"/>
      <point x="252" y="246" type="curve" smooth="yes"/>
      <point x="252" y="219"/>
      <point x="250" y="206"/>
      <point x="248" y="194" type="curve" smooth="yes"/>
      <point x="241" y="153" type="line" smooth="yes"/>
      <point x="227" y="69"/>
      <point x="187" y="11"/>
    </contour>
  </outline>
</glyph>
<glyph name="oneinferior" format="1">
  <advance width="320"/>
  <unicode hex="2081"/>
  <outline>
    <contour>
      <point x="238" y="0" type="line" name="hr00"/>
      <point x="242" y="17" type="line"/>
      <point x="135" y="17" type="line"/>
      <point x="205" y="369" type="line"/>
      <point x="176" y="369" type="line"/>
      <point x="42" y="272" type="line"/>
      <point x="51" y="259" type="line"/>
      <point x="183" y="355" type="line"/>
      <point x="185" y="355" type="line"/>
      <point x="118" y="17" type="line"/>
      <point x="3" y="17" type="line"/>
      <point x="-1" y="0" type="line"/>
    </contour>
  </outline>
</glyph>
<glyph name="twoinferior" format="1">
  <advance width="320"/>
  <unicode hex="2082"/>
  <outline>
    <contour>
      <point x="239" y="17" type="line" name="hr00"/>
      <point x="31" y="17" type="line"/>
      <point x="167" y="123" type="line" smooth="yes"/>
      <point x="242" y="181"/>
      <point x="277" y="225"/>
      <point x="277" y="279" type="curve" smooth="yes"/>
      <point x="277" y="332"/>
      <point x="241" y="375"/>
      <point x="180" y="375" type="curve" smooth="yes"/>
      <point x="112" y="375"/>
      <point x="78" y="338"/>
      <point x="55" y="286" type="curve"/>
      <point x="71" y="280" type="line"/>
      <point x="91" y="327"/>
      <point x="121" y="358"/>
      <point x="178" y="358" type="curve" smooth="yes"/>
      <point x="230" y="358"/>
      <point x="258" y="325"/>
      <point x="258" y="279" type="curve" smooth="yes"/>
      <point x="258" y="274"/>
      <point x="257" y="266"/>
      <point x="254" y="251" type="curve" smooth="yes"/>
      <point x="247" y="214"/>
      <point x="214" y="181"/>
      <point x="156" y="135" type="curve" smooth="yes"/>
      <point x="9" y="20" type="line"/>
      <point x="4" y="0" type="line"/>
      <point x="235" y="0" type="line"/>
    </contour>
  </outline>
</glyph>
<glyph name="seveninferior" format="1">
  <advance width="320"/>
  <unicode hex="2087"/>
  <outline>
    <contour>
      <point x="80" y="0" type="line" name="hr00"/>
      <point x="287" y="350" type="line"/>
      <point x="291" y="369" type="line"/>
      <point x="65" y="369" type="line"/>
      <point x="43" y="262" type="line"/>
      <point x="60" y="262" type="line"/>
      <point x="78" y="352" type="line"/>
      <point x="269" y="352" type="line"/>
      <point x="61" y="0" type="line"/>
    </contour>
  </outline>
</glyph>
<glyph name="coloncurrency" format="1">
  <advance width="546"/>
  <unicode hex="20A1"/>
  <outline>
    <contour>
      <point x="60.0" y="240.0" type="curve" smooth="yes"/>
      <point x="60" y="90"/>
      <point x="130" y="-2"/>
      <point x="260.0" y="-2.0" type="curve" smooth="yes"/>
      <point x="349" y="-2"/>
      <point x="407.0" y="39.0"/>
      <point x="465.0" y="151.0" type="curve"/>
      <point x="446.0" y="161.0" type="line"/>
      <point x="397.0" y="63.0"/>
      <point x="347" y="18"/>
      <point x="257" y="18" type="curve" smooth="yes"/>
      <point x="144" y="18"/>
      <point x="82" y="104"/>
      <point x="82.0" y="240.0" type="curve" smooth="yes"/>
      <point x="82" y="268"/>
      <point x="84.0" y="307.0"/>
      <point x="92.0" y="349.0" type="curve" smooth="yes"/>
      <point x="102.0" y="404.0" type="line" smooth="yes"/>
      <point x="138" y="600"/>
      <point x="240" y="680"/>
      <point x="364.0" y="680.0" type="curve" smooth="yes"/>
      <point x="444" y="680"/>
      <point x="494" y="646"/>
      <point x="516.0" y="554.0" type="curve"/>
      <point x="536.0" y="559.0" type="line"/>
      <point x="515" y="663"/>
      <point x="448" y="700"/>
      <point x="362.0" y="700.0" type="curve" smooth="yes"/>
      <point x="209" y="700"/>
      <point x="112" y="582"/>
      <point x="76.0" y="398.0" type="curve" smooth="yes"/>
      <point x="66" y="346"/>
      <point x="60" y="292"/>
    </contour>
    <contour>
      <point x="105" y="-82" type="line"/>
      <point x="146" y="49" type="line"/>
      <point x="147" y="54" type="line"/>
      <point x="341" y="685" type="line"/>
      <point x="342" y="690" type="line"/>
      <point x="371" y="780" type="line"/>
      <point x="352" y="780" type="line"/>
      <point x="323" y="690" type="line"/>
      <point x="322" y="685" type="line"/>
      <point x="128" y="54" type="line"/>
      <point x="127" y="49" type="line"/>
      <point x="86" y="-82" type="line"/>
    </contour>
    <contour>
      <point x="226" y="-82" type="line"/>
      <point x="254" y="7" type="line"/>
      <point x="255" y="12" type="line"/>
      <point x="457" y="666" type="line"/>
      <point x="458" y="671" type="line"/>
      <point x="492" y="780" type="line"/>
      <point x="473" y="780" type="line"/>
      <point x="439" y="671" type="line"/>
      <point x="438" y="666" type="line"/>
      <point x="236" y="12" type="line"/>
      <point x="235" y="7" type="line"/>
      <point x="207" y="-82" type="line"/>
    </contour>
  </outline>
</glyph>
<glyph name="lira" format="1">
  <advance width="522"/>
  <unicode hex="20A4"/>
  <outline>
    <contour>
      <point x="414.0" y="20.0" type="line"/>
      <point x="53.0" y="20.0" type="line"/>
      <point x="54.0" y="26.0" type="line"/>
      <point x="136.0" y="62.0"/>
      <point x="187" y="142"/>
      <point x="187" y="250" type="curve" smooth="yes"/>
      <point x="187" y="304"/>
      <point x="174" y="435"/>
      <point x="174.0" y="497.0" type="curve" smooth="yes" name=""/>
      <point x="174" y="630"/>
      <point x="255.0" y="690.0"/>
      <point x="355.0" y="690.0" type="curve" smooth="yes"/>
      <point x="428.0" y="690.0"/>
      <point x="480.0" y="659.0"/>
      <point x="505.0" y="582.0" type="curve"/>
      <point x="525.0" y="592.0" type="line"/>
      <point x="497.0" y="672.0"/>
      <point x="437.0" y="710.0"/>
      <point x="357.0" y="710.0" type="curve" smooth="yes"/>
      <point x="246.0" y="710.0"/>
      <point x="152" y="641"/>
      <point x="152.0" y="497.0" type="curve" smooth="yes"/>
      <point x="152" y="435"/>
      <point x="165" y="304"/>
      <point x="165.0" y="250.0" type="curve" smooth="yes"/>
      <point x="165" y="142"/>
      <point x="120.0" y="69.0"/>
      <point x="29.0" y="25.0" type="curve"/>
      <point x="23.0" y="0.0" type="line"/>
      <point x="410.0" y="0.0" type="line"/>
    </contour>
    <contour>
      <point x="91" y="408" type="line"/>
      <point x="384" y="408" type="line"/>
      <point x="388" y="427" type="line"/>
      <point x="95" y="427" type="line"/>
    </contour>
    <contour>
      <point x="60" y="251" type="line"/>
      <point x="353" y="251" type="line"/>
      <point x="357" y="270" type="line"/>
      <point x="64" y="270" type="line"/>
    </contour>
  </outline>
</glyph>
<glyph name="naira" format="1">
  <advance width="595"/>
  <unicode hex="20A6"/>
  <outline>
    <contour>
      <point x="417" y="0" type="line"/>
      <point x="448" y="0" type="line"/>
      <point x="500" y="261" type="line"/>
      <point x="585" y="261" type="line"/>
      <point x="589" y="279" type="line"/>
      <point x="504" y="279" type="line"/>
      <point x="532" y="419" type="line"/>
      <point x="617" y="419" type="line"/>
      <point x="621" y="437" type="line"/>
      <point x="536" y="437" type="line"/>
      <point x="588" y="698" type="line"/>
      <point x="568" y="698" type="line"/>
      <point x="516" y="437" type="line"/>
      <point x="300" y="437" type="line"/>
      <point x="218" y="698" type="line"/>
      <point x="187" y="698" type="line"/>
      <point x="135" y="437" type="line"/>
      <point x="50" y="437" type="line"/>
      <point x="46" y="419" type="line" name=""/>
      <point x="131" y="419" type="line"/>
      <point x="103" y="279" type="line"/>
      <point x="18" y="279" type="line"/>
      <point x="14" y="261" type="line"/>
      <point x="99" y="261" type="line"/>
      <point x="47" y="0" type="line"/>
      <point x="67" y="0" type="line"/>
      <point x="119" y="261" type="line"/>
      <point x="335" y="261" type="line"/>
    </contour>
    <contour>
      <point x="123" y="279" type="line"/>
      <point x="179" y="559" type="line"/>
      <point x="202" y="678" type="line"/>
      <point x="206" y="678" type="line"/>
      <point x="239" y="565" type="line"/>
      <point x="329" y="279" type="line"/>
    </contour>
    <contour>
      <point x="306" y="419" type="line"/>
      <point x="512" y="419" type="line"/>
      <point x="456" y="139" type="line"/>
      <point x="433" y="20" type="line"/>
      <point x="429" y="20" type="line"/>
      <point x="396" y="134" type="line"/>
    </contour>
  </outline>
</glyph>
<glyph name="won" format="1">
  <advance width="788"/>
  <unicode hex="20A9"/>
  <outline>
    <contour>
      <point x="508" y="0" type="line"/>
      <point x="544" y="0" type="line"/>
      <point x="655" y="256" type="line"/>
      <point x="760" y="256" type="line"/>
      <point x="764" y="274" type="line"/>
      <point x="663" y="274" type="line"/>
      <point x="724" y="414" type="line"/>
      <point x="792" y="414" type="line"/>
      <point x="796" y="432" type="line"/>
      <point x="732" y="432" type="line"/>
      <point x="847" y="698" type="line"/>
      <point x="823" y="698" type="line"/>
      <point x="709" y="432" type="line"/>
      <point x="510" y="432" type="line"/>
      <point x="499" y="698" type="line"/>
      <point x="463" y="698" type="line"/>
      <point x="346" y="432" type="line"/>
      <point x="149" y="432" type="line"/>
      <point x="141" y="698" type="line"/>
      <point x="119" y="698" type="line"/>
      <point x="127" y="432" type="line"/>
      <point x="67" y="432" type="line"/>
      <point x="63" y="414" type="line" name=""/>
      <point x="128" y="414" type="line"/>
      <point x="132" y="274" type="line"/>
      <point x="35" y="274" type="line"/>
      <point x="31" y="256" type="line"/>
      <point x="133" y="256" type="line"/>
      <point x="141" y="0" type="line"/>
      <point x="177" y="0" type="line"/>
      <point x="290" y="256" type="line"/>
      <point x="497" y="256" type="line"/>
    </contour>
    <contour>
      <point x="149" y="414" type="line"/>
      <point x="338" y="414" type="line"/>
      <point x="269" y="256" type="line"/>
      <point x="165" y="20" type="line"/>
      <point x="161" y="20" type="line"/>
      <point x="154" y="256" type="line"/>
    </contour>
    <contour>
      <point x="511" y="414" type="line"/>
      <point x="701" y="414" type="line"/>
      <point x="633" y="256" type="line"/>
      <point x="532" y="20" type="line"/>
      <point x="528" y="20" type="line"/>
      <point x="518" y="256" type="line"/>
    </contour>
    <contour>
      <point x="297" y="274" type="line"/>
      <point x="372" y="442" type="line"/>
      <point x="475" y="678" type="line"/>
      <point x="479" y="678" type="line"/>
      <point x="489" y="442" type="line"/>
      <point x="496" y="274" type="line"/>
    </contour>
  </outline>
</glyph>
<glyph name="Euro" format="1">
  <advance width="537"/>
  <unicode hex="20AC"/>
  <outline>
    <contour>
      <point x="260" y="-12" type="curve" smooth="yes" name=""/>
      <point x="349" y="-12"/>
      <point x="408" y="30"/>
      <point x="465" y="141" type="curve"/>
      <point x="446" y="151" type="line"/>
      <point x="398" y="54"/>
      <point x="345" y="8"/>
      <point x="260" y="8" type="curve" smooth="yes"/>
      <point x="140" y="8"/>
      <point x="82" y="97"/>
      <point x="82" y="230" type="curve" smooth="yes"/>
      <point x="82" y="240"/>
      <point x="82" y="251"/>
      <point x="83" y="263" type="curve"/>
      <point x="318" y="263" type="line"/>
      <point x="322" y="281" type="line"/>
      <point x="84" y="281" type="line"/>
      <point x="88" y="323"/>
      <point x="97" y="365"/>
      <point x="107" y="417" type="curve"/>
      <point x="347" y="417" type="line"/>
      <point x="351" y="435" type="line"/>
      <point x="111" y="435" type="line"/>
      <point x="151" y="597"/>
      <point x="246" y="690"/>
      <point x="364" y="690" type="curve" smooth="yes"/>
      <point x="456" y="690"/>
      <point x="498" y="640"/>
      <point x="516" y="564" type="curve"/>
      <point x="536" y="569" type="line"/>
      <point x="518" y="656"/>
      <point x="463" y="710"/>
      <point x="365" y="710" type="curve" smooth="yes"/>
      <point x="202" y="710"/>
      <point x="110" y="559"/>
      <point x="76" y="388" type="curve" smooth="yes"/>
      <point x="66" y="336"/>
      <point x="60" y="282"/>
      <point x="60" y="230" type="curve" smooth="yes"/>
      <point x="60" y="76"/>
      <point x="134" y="-12"/>
    </contour>
  </outline>
</glyph>
<glyph name="kip" format="1">
  <advance width="516"/>
  <unicode hex="20AD"/>
  <outline>
    <contour>
      <point x="140" y="358" type="line" name=""/>
      <point x="227" y="358" type="line"/>
      <point x="407" y="0" type="line"/>
      <point x="431" y="0" type="line"/>
      <point x="280" y="299" type="line"/>
      <point x="250" y="358" type="line"/>
      <point x="477" y="358" type="line"/>
      <point x="481" y="378" type="line"/>
      <point x="255" y="378" type="line"/>
      <point x="310" y="437" type="line"/>
      <point x="555" y="698" type="line"/>
      <point x="528" y="698" type="line"/>
      <point x="229" y="378" type="line"/>
      <point x="144" y="378" type="line"/>
      <point x="209" y="698" type="line"/>
      <point x="187" y="698" type="line"/>
      <point x="122" y="378" type="line"/>
      <point x="37" y="378" type="line"/>
      <point x="33" y="358" type="line"/>
      <point x="118" y="358" type="line"/>
      <point x="47" y="0" type="line"/>
      <point x="69" y="0" type="line"/>
    </contour>
  </outline>
</glyph>
<glyph name="guarani" format="1">
  <advance width="575"/>
  <unicode hex="20B2"/>
  <outline>
    <contour>
      <point x="60" y="222" type="curve" smooth="yes"/>
      <point x="60" y="47"/>
      <point x="164" y="-2"/>
      <point x="257" y="-2" type="curve" smooth="yes"/>
      <point x="391" y="-2"/>
      <point x="464" y="74"/>
      <point x="489" y="204" type="curve" smooth="yes"/>
      <point x="514" y="332" type="line"/>
      <point x="292" y="332" type="line"/>
      <point x="292" y="313" type="line"/>
      <point x="488" y="313" type="line"/>
      <point x="466" y="205" type="line" smooth="yes"/>
      <point x="439" y="74"/>
      <point x="372" y="18"/>
      <point x="257" y="18" type="curve" smooth="yes"/>
      <point x="160" y="18"/>
      <point x="82" y="71"/>
      <point x="82" y="222" type="curve" smooth="yes"/>
      <point x="82" y="252"/>
      <point x="83" y="292"/>
      <point x="91" y="336" type="curve" smooth="yes"/>
      <point x="102" y="395" type="line" smooth="yes"/>
      <point x="137" y="583"/>
      <point x="221" y="680"/>
      <point x="363" y="680" type="curve" smooth="yes"/>
      <point x="430" y="680"/>
      <point x="501" y="650"/>
      <point x="525" y="553" type="curve"/>
      <point x="545" y="559" type="line"/>
      <point x="528" y="644"/>
      <point x="455" y="700"/>
      <point x="365" y="700" type="curve" smooth="yes"/>
      <point x="185" y="700"/>
      <point x="105" y="552"/>
      <point x="75" y="392" type="curve" smooth="yes"/>
      <point x="64" y="335"/>
      <point x="60" y="276"/>
    </contour>
    <contour>
      <point x="166" y="-82" type="line"/>
      <point x="200" y="16" type="line"/>
      <point x="201" y="21" type="line"/>
      <point x="426" y="682" type="line"/>
      <point x="427" y="687" type="line"/>
      <point x="459" y="780" type="line"/>
      <point x="439" y="780" type="line"/>
      <point x="407" y="687" type="line"/>
      <point x="406" y="682" type="line"/>
      <point x="181" y="21" type="line"/>
      <point x="180" y="16" type="line"/>
      <point x="146" y="-82" type="line"/>
    </contour>
  </outline>
</glyph>
<glyph name="hryvnia" format="1">
  <advance width="557"/>
  <unicode hex="20B4"/>
  <outline>
    <contour>
      <point x="253" y="-12" type="curve" smooth="yes" name=""/>
      <point x="311" y="-12"/>
      <point x="379" y="10"/>
      <point x="441" y="76" type="curve"/>
      <point x="430" y="91" type="line"/>
      <point x="368" y="28"/>
      <point x="308" y="8"/>
      <point x="254" y="8" type="curve" smooth="yes"/>
      <point x="162" y="8"/>
      <point x="115" y="49"/>
      <point x="115" y="125" type="curve" smooth="yes"/>
      <point x="115" y="178"/>
      <point x="141" y="228"/>
      <point x="180" y="260" type="curve"/>
      <point x="512" y="260" type="line"/>
      <point x="516" y="278" type="line"/>
      <point x="319" y="278" type="line"/>
      <point x="209" y="278" type="line"/>
      <point x="209" y="280" type="line"/>
      <point x="301" y="339" type="line"/>
      <point x="428" y="420" type="line"/>
      <point x="542" y="420" type="line"/>
      <point x="546" y="438" type="line"/>
      <point x="446" y="438" type="line"/>
      <point x="475" y="466"/>
      <point x="495" y="519"/>
      <point x="495" y="566" type="curve" smooth="yes"/>
      <point x="495" y="647"/>
      <point x="442" y="710"/>
      <point x="349" y="710" type="curve" smooth="yes"/>
      <point x="292" y="710"/>
      <point x="233" y="693"/>
      <point x="174" y="632" type="curve"/>
      <point x="187" y="617" type="line"/>
      <point x="244" y="677"/>
      <point x="296" y="690"/>
      <point x="347" y="690" type="curve" smooth="yes"/>
      <point x="430" y="690"/>
      <point x="473" y="636"/>
      <point x="473" y="563" type="curve" smooth="yes"/>
      <point x="473" y="526"/>
      <point x="461" y="473"/>
      <point x="420" y="438" type="curve"/>
      <point x="88" y="438" type="line"/>
      <point x="84" y="420" type="line"/>
      <point x="281" y="420" type="line"/>
      <point x="391" y="420" type="line"/>
      <point x="391" y="418" type="line"/>
      <point x="299" y="359" type="line"/>
      <point x="171" y="278" type="line"/>
      <point x="56" y="278" type="line"/>
      <point x="52" y="260" type="line"/>
      <point x="153" y="260" type="line"/>
      <point x="123" y="234"/>
      <point x="93" y="184"/>
      <point x="93" y="124" type="curve" smooth="yes"/>
      <point x="93" y="37"/>
      <point x="149" y="-12"/>
    </contour>
  </outline>
</glyph>
<glyph name="cedi" format="1">
  <advance width="537"/>
  <unicode hex="20B5"/>
  <outline>
    <contour>
      <point x="59.0" y="227.0" type="curve" smooth="yes"/>
      <point x="59.0" y="86"/>
      <point x="128" y="-2"/>
      <point x="256.0" y="-2.0" type="curve" smooth="yes"/>
      <point x="347" y="-2"/>
      <point x="406.0" y="36.0"/>
      <point x="465.0" y="152.0" type="curve"/>
      <point x="447.0" y="161.0" type="line"/>
      <point x="396.0" y="58.0"/>
      <point x="340" y="18"/>
      <point x="257.0" y="18.0" type="curve" smooth="yes"/>
      <point x="183" y="18"/>
      <point x="81" y="55"/>
      <point x="81.0" y="227.0" type="curve" smooth="yes"/>
      <point x="81" y="257"/>
      <point x="83.0" y="297.0"/>
      <point x="92.0" y="341.0" type="curve" smooth="yes"/>
      <point x="104.0" y="400.0" type="line" smooth="yes"/>
      <point x="141.0" y="580.0"/>
      <point x="237" y="680"/>
      <point x="352.0" y="680.0" type="curve" smooth="yes"/>
      <point x="457" y="680"/>
      <point x="502" y="624"/>
      <point x="517.0" y="553.0" type="curve"/>
      <point x="536.0" y="559.0" type="line"/>
      <point x="518" y="640"/>
      <point x="466" y="700"/>
      <point x="352.0" y="700.0" type="curve" smooth="yes"/>
      <point x="193" y="700"/>
      <point x="107.0" y="542.0"/>
      <point x="75.0" y="383.0" type="curve" smooth="yes"/>
      <point x="64.0" y="329.0"/>
      <point x="59.0" y="276.0"/>
    </contour>
    <contour>
      <point x="153" y="-82" type="line"/>
      <point x="187" y="18" type="line"/>
      <point x="188" y="23" type="line"/>
      <point x="411" y="682" type="line"/>
      <point x="412" y="687" type="line"/>
      <point x="444" y="780" type="line"/>
      <point x="425" y="780" type="line"/>
      <point x="393" y="687" type="line"/>
      <point x="392" y="682" type="line"/>
      <point x="169" y="23" type="line"/>
      <point x="168" y="18" type="line"/>
      <point x="134" y="-82" type="line"/>
    </contour>
  </outline>
</glyph>
<glyph name="tenge" format="1">
  <advance width="530"/>
  <unicode hex="20B8"/>
  <outline>
    <contour>
      <point x="584" y="680" type="line" name="hr00"/>
      <point x="588" y="698" type="line"/>
      <point x="121" y="698" type="line"/>
      <point x="117" y="680" type="line"/>
    </contour>
    <contour>
      <point x="553" y="530" type="line"/>
      <point x="557" y="548" type="line"/>
      <point x="91" y="548" type="line"/>
      <point x="87" y="530" type="line"/>
      <point x="309" y="530" type="line"/>
      <point x="203" y="0" type="line"/>
      <point x="225" y="0" type="line"/>
      <point x="331" y="530" type="line"/>
    </contour>
  </outline>
</glyph>
<glyph name="rupeeindian" format="1">
  <advance width="545"/>
  <unicode hex="20B9"/>
  <outline>
    <contour>
      <point x="403" y="0" type="line" name=""/>
      <point x="241" y="330" type="line"/>
      <point x="235" y="322" type="line"/>
      <point x="276" y="322" type="line" smooth="yes"/>
      <point x="374" y="322"/>
      <point x="447" y="383"/>
      <point x="461" y="510" type="curve"/>
      <point x="562" y="510" type="line"/>
      <point x="566" y="528" type="line"/>
      <point x="463" y="528" type="line"/>
      <point x="471" y="610"/>
      <point x="444" y="662"/>
      <point x="391" y="675" type="curve"/>
      <point x="392" y="680" type="line"/>
      <point x="596" y="680" type="line"/>
      <point x="600" y="698" type="line"/>
      <point x="145" y="698" type="line"/>
      <point x="141" y="680" type="line"/>
      <point x="326" y="680" type="line" smooth="yes"/>
      <point x="432" y="680"/>
      <point x="448" y="597"/>
      <point x="441" y="528" type="curve"/>
      <point x="111" y="528" type="line"/>
      <point x="107" y="510" type="line"/>
      <point x="439" y="510" type="line"/>
      <point x="427" y="395"/>
      <point x="363" y="340"/>
      <point x="280" y="340" type="curve" smooth="yes"/>
      <point x="74" y="340" type="line"/>
      <point x="70" y="322" type="line"/>
      <point x="221" y="322" type="line"/>
      <point x="379" y="0" type="line"/>
    </contour>
  </outline>
</glyph>
<glyph name="liraturkish" format="1">
  <advance width="545"/>
  <unicode hex="20BA"/>
  <outline>
    <contour>
      <point x="79" y="0" type="line" name="hr00"/>
      <point x="223" y="0" type="line" smooth="yes"/>
      <point x="368" y="0"/>
      <point x="454" y="104"/>
      <point x="493" y="295" type="curve"/>
      <point x="471" y="295" type="line"/>
      <point x="435" y="117"/>
      <point x="354" y="20"/>
      <point x="224" y="20" type="curve" smooth="yes"/>
      <point x="105" y="20" type="line"/>
      <point x="163" y="312" type="line"/>
      <point x="371" y="412" type="line"/>
      <point x="375" y="434" type="line"/>
      <point x="168" y="335" type="line"/>
      <point x="193" y="463" type="line"/>
      <point x="400" y="562" type="line"/>
      <point x="404" y="584" type="line"/>
      <point x="198" y="485" type="line"/>
      <point x="240" y="698" type="line"/>
      <point x="218" y="698" type="line"/>
      <point x="173" y="472" type="line"/>
      <point x="44" y="411" type="line"/>
      <point x="40" y="389" type="line"/>
      <point x="169" y="451" type="line"/>
      <point x="143" y="323" type="line"/>
      <point x="14" y="261" type="line"/>
      <point x="10" y="239" type="line"/>
      <point x="139" y="301" type="line"/>
    </contour>
  </outline>
</glyph>
<glyph name="arrowright" format="1">
  <advance width="740"/>
  <unicode hex="2192"/>
  <outline>
    <contour>
      <point x="725" y="355" type="line" name="hr00"/>
      <point x="548" y="532" type="line"/>
      <point x="533" y="517" type="line"/>
      <point x="634" y="416" type="line"/>
      <point x="690" y="367" type="line"/>
      <point x="687" y="361" type="line"/>
      <point x="599" y="365" type="line"/>
      <point x="15" y="365" type="line"/>
      <point x="15" y="345" type="line"/>
      <point x="599" y="345" type="line"/>
      <point x="687" y="349" type="line"/>
      <point x="690" y="343" type="line"/>
      <point x="634" y="294" type="line"/>
      <point x="533" y="193" type="line"/>
      <point x="548" y="178" type="line"/>
    </contour>
  </outline>
</glyph>
<glyph name="arrowupright" format="1">
  <advance width="740"/>
  <unicode hex="2197"/>
  <outline>
    <contour>
      <point x="624" y="606" type="line" name="hr00"/>
      <point x="374" y="606" type="line"/>
      <point x="374" y="585" type="line"/>
      <point x="517" y="585" type="line"/>
      <point x="591" y="590" type="line"/>
      <point x="593" y="583" type="line"/>
      <point x="528" y="524" type="line"/>
      <point x="115" y="111" type="line"/>
      <point x="129" y="97" type="line"/>
      <point x="542" y="510" type="line"/>
      <point x="601" y="575" type="line"/>
      <point x="608" y="573" type="line"/>
      <point x="603" y="499" type="line"/>
      <point x="603" y="356" type="line"/>
      <point x="624" y="356" type="line"/>
    </contour>
  </outline>
</glyph>
<glyph name="arrowupleftcorner" format="1">
  <advance width="740"/>
  <unicode hex="21B0"/>
  <outline>
    <contour>
      <point x="89" y="533" type="line" name="hr00"/>
      <point x="266" y="356" type="line"/>
      <point x="281" y="371" type="line"/>
      <point x="180" y="472" type="line"/>
      <point x="124" y="521" type="line"/>
      <point x="127" y="527" type="line"/>
      <point x="215" y="523" type="line"/>
      <point x="539" y="523" type="line"/>
      <point x="539" y="0" type="line"/>
      <point x="559" y="0" type="line"/>
      <point x="559" y="543" type="line"/>
      <point x="215" y="543" type="line"/>
      <point x="127" y="539" type="line"/>
      <point x="124" y="545" type="line"/>
      <point x="180" y="594" type="line"/>
      <point x="281" y="695" type="line"/>
      <point x="266" y="710" type="line"/>
    </contour>
  </outline>
</glyph>
<glyph name="arrowdownrightcorner" format="1">
  <advance width="740"/>
  <unicode hex="21B3"/>
  <outline>
    <contour>
      <point x="651" y="165" type="line" name="hr00"/>
      <point x="474" y="342" type="line"/>
      <point x="459" y="327" type="line"/>
      <point x="560" y="226" type="line"/>
      <point x="616" y="177" type="line"/>
      <point x="613" y="171" type="line"/>
      <point x="525" y="175" type="line"/>
      <point x="201" y="175" type="line"/>
      <point x="201" y="698" type="line"/>
      <point x="181" y="698" type="line"/>
      <point x="181" y="155" type="line"/>
      <point x="525" y="155" type="line"/>
      <point x="613" y="159" type="line"/>
      <point x="616" y="153" type="line"/>
      <point x="560" y="104" type="line"/>
      <point x="459" y="3" type="line"/>
      <point x="474" y="-12" type="line"/>
    </contour>
  </outline>
</glyph>
<glyph name="arrowupleftcounterclock" format="1">
  <advance width="740"/>
  <unicode hex="21BA"/>
  <outline>
    <contour>
      <point x="375" y="698" type="line" name="hr00"/>
      <point x="375" y="448" type="line"/>
      <point x="396" y="448" type="line"/>
      <point x="396" y="591" type="line"/>
      <point x="391" y="665" type="line"/>
      <point x="398" y="667" type="line"/>
      <point x="459" y="603" type="line" smooth="yes"/>
      <point x="573" y="484"/>
      <point x="648" y="445"/>
      <point x="648" y="290" type="curve" smooth="yes"/>
      <point x="648" y="127"/>
      <point x="529" y="6"/>
      <point x="370" y="6" type="curve" smooth="yes"/>
      <point x="211" y="6"/>
      <point x="92" y="127"/>
      <point x="92" y="290" type="curve" smooth="yes"/>
      <point x="92" y="371"/>
      <point x="121" y="440"/>
      <point x="171" y="489" type="curve"/>
      <point x="156" y="504" type="line"/>
      <point x="102" y="452"/>
      <point x="70" y="377"/>
      <point x="70" y="290" type="curve" smooth="yes"/>
      <point x="70" y="117"/>
      <point x="197" y="-12"/>
      <point x="370" y="-12" type="curve" smooth="yes"/>
      <point x="543" y="-12"/>
      <point x="670" y="117"/>
      <point x="670" y="290" type="curve" smooth="yes"/>
      <point x="670" y="437"/>
      <point x="602" y="494"/>
      <point x="471" y="615" type="curve" smooth="yes"/>
      <point x="406" y="675" type="line"/>
      <point x="408" y="682" type="line"/>
      <point x="482" y="677" type="line"/>
      <point x="625" y="677" type="line"/>
      <point x="625" y="698" type="line"/>
    </contour>
  </outline>
</glyph>
<glyph name="Delta" format="1">
  <advance width="535"/>
  <unicode hex="2206"/>
  <outline>
    <contour>
      <point x="-21" y="0" type="line" name="hr00"/>
      <point x="451" y="0" type="line"/>
      <point x="454" y="19" type="line"/>
      <point x="368" y="698" type="line"/>
      <point x="339" y="698" type="line"/>
      <point x="-17" y="19" type="line"/>
    </contour>
    <contour>
      <point x="432" y="19" type="line"/>
      <point x="7" y="19" type="line"/>
      <point x="273" y="530" type="line"/>
      <point x="348" y="675" type="line"/>
      <point x="350" y="675" type="line"/>
      <point x="368" y="530" type="line"/>
    </contour>
  </outline>
</glyph>
<glyph name="product" format="1">
  <advance width="565"/>
  <unicode hex="220F"/>
  <outline>
    <contour>
      <point x="24" y="-200" type="line" name="hr00"/>
      <point x="199" y="677" type="line"/>
      <point x="536" y="677" type="line"/>
      <point x="361" y="-200" type="line"/>
      <point x="383" y="-200" type="line"/>
      <point x="558" y="677" type="line"/>
      <point x="623" y="677" type="line"/>
      <point x="627" y="698" type="line"/>
      <point x="116" y="698" type="line"/>
      <point x="112" y="677" type="line"/>
      <point x="177" y="677" type="line"/>
      <point x="2" y="-200" type="line"/>
    </contour>
  </outline>
</glyph>
<glyph name="minus" format="1">
  <advance width="540"/>
  <unicode hex="2212"/>
  <outline>
    <contour>
      <point x="493" y="296" type="line" name="hr00"/>
      <point x="497" y="315" type="line"/>
      <point x="68" y="315" type="line"/>
      <point x="64" y="296" type="line"/>
    </contour>
  </outline>
</glyph>
<glyph name="radical" format="1">
  <advance width="540"/>
  <unicode hex="221A"/>
  <outline>
    <contour>
      <point x="230" y="0" type="line" name=""/>
      <point x="565" y="698" type="line"/>
      <point x="543" y="698" type="line"/>
      <point x="326" y="243" type="line"/>
      <point x="223" y="27" type="line"/>
      <point x="220" y="27" type="line"/>
      <point x="207" y="243" type="line"/>
      <point x="191" y="506" type="line"/>
      <point x="68" y="506" type="line"/>
      <point x="64" y="487" type="line"/>
      <point x="172" y="487" type="line"/>
      <point x="202" y="0" type="line"/>
    </contour>
  </outline>
</glyph>
<glyph name="integral" format="1">
  <advance width="324"/>
  <unicode hex="222B"/>
  <outline>
    <contour>
      <point x="-46" y="-200" type="line" name="hr00"/>
      <point x="48" y="-200" type="line" smooth="yes"/>
      <point x="75" y="-200"/>
      <point x="82" y="-193"/>
      <point x="87" y="-167" type="curve" smooth="yes"/>
      <point x="264" y="721" type="line"/>
      <point x="368" y="721" type="line"/>
      <point x="372" y="740" type="line"/>
      <point x="279" y="740" type="line" smooth="yes"/>
      <point x="252" y="740"/>
      <point x="245" y="733"/>
      <point x="240" y="707" type="curve" smooth="yes"/>
      <point x="63" y="-181" type="line"/>
      <point x="-42" y="-181" type="line"/>
    </contour>
  </outline>
</glyph>
<glyph name="notequal" format="1">
  <advance width="540"/>
  <unicode hex="2260"/>
  <outline>
    <contour>
      <point x="141" y="92" type="line"/>
      <point x="217" y="207" type="line"/>
      <point x="467" y="207" type="line"/>
      <point x="471" y="226" type="line"/>
      <point x="230" y="226" type="line"/>
      <point x="335" y="385" type="line"/>
      <point x="501" y="385" type="line"/>
      <point x="505" y="404" type="line"/>
      <point x="348" y="404" type="line"/>
      <point x="424" y="519" type="line"/>
      <point x="402" y="519" type="line"/>
      <point x="326" y="404" type="line"/>
      <point x="76" y="404" type="line"/>
      <point x="72" y="385" type="line"/>
      <point x="313" y="385" type="line"/>
      <point x="208" y="226" type="line"/>
      <point x="42" y="226" type="line"/>
      <point x="38" y="207" type="line"/>
      <point x="195" y="207" type="line"/>
      <point x="119" y="92" type="line" name="hr00"/>
    </contour>
  </outline>
</glyph>
<glyph name="lessequal" format="1">
  <advance width="540"/>
  <unicode hex="2264"/>
  <outline>
    <contour>
      <point x="410" y="0" type="line" name="hr00"/>
      <point x="414" y="19" type="line"/>
      <point x="27" y="19" type="line"/>
      <point x="23" y="0" type="line"/>
    </contour>
    <contour>
      <point x="528" y="592" type="line"/>
      <point x="94" y="354" type="line"/>
      <point x="90" y="336" type="line"/>
      <point x="429" y="98" type="line"/>
      <point x="433" y="118" type="line"/>
      <point x="114" y="342" type="line"/>
      <point x="114" y="344" type="line"/>
      <point x="523" y="568" type="line"/>
    </contour>
  </outline>
</glyph>
<glyph name="greaterequal" format="1">
  <advance width="540"/>
  <unicode hex="2265"/>
  <outline>
    <contour>
      <point x="54" y="98" type="line" name="hr00"/>
      <point x="488" y="337" type="line"/>
      <point x="492" y="355" type="line"/>
      <point x="152" y="592" type="line"/>
      <point x="148" y="572" type="line"/>
      <point x="468" y="349" type="line"/>
      <point x="468" y="347" type="line"/>
      <point x="59" y="122" type="line"/>
    </contour>
    <contour>
      <point x="34" y="0" type="line"/>
      <point x="421" y="0" type="line"/>
      <point x="425" y="19" type="line"/>
      <point x="38" y="19" type="line"/>
    </contour>
  </outline>
</glyph>
<glyph name="lozenge" format="1">
  <advance width="540"/>
  <unicode hex="25CA"/>
  <outline>
    <contour>
      <point x="233" y="0" type="line" name="hr00"/>
      <point x="508" y="349" type="line"/>
      <point x="369" y="698" type="line"/>
      <point x="346" y="698" type="line"/>
      <point x="71" y="349" type="line"/>
      <point x="210" y="0" type="line"/>
    </contour>
    <contour>
      <point x="222" y="20" type="line"/>
      <point x="93" y="347" type="line"/>
      <point x="353" y="678" type="line"/>
      <point x="357" y="678" type="line"/>
      <point x="486" y="351" type="line"/>
      <point x="226" y="20" type="line"/>
    </contour>
  </outline>
</glyph>
<glyph name="arrowleftupcorner" format="1">
  <advance width="740"/>
  <unicode hex="2B11"/>
  <outline>
    <contour>
      <point x="192" y="624" type="line" name="hr00"/>
      <point x="15" y="447" type="line"/>
      <point x="30" y="432" type="line"/>
      <point x="131" y="533" type="line"/>
      <point x="180" y="589" type="line"/>
      <point x="186" y="586" type="line"/>
      <point x="182" y="498" type="line"/>
      <point x="182" y="154" type="line"/>
      <point x="725" y="154" type="line"/>
      <point x="725" y="174" type="line"/>
      <point x="202" y="174" type="line"/>
      <point x="202" y="498" type="line"/>
      <point x="198" y="586" type="line"/>
      <point x="204" y="589" type="line"/>
      <point x="253" y="533" type="line"/>
      <point x="354" y="432" type="line"/>
      <point x="369" y="447" type="line"/>
    </contour>
  </outline>
</glyph>
<glyph name="fi" format="1">
  <advance width="464"/>
  <unicode hex="FB01"/>
  <outline>
    <contour>
      <point x="66" y="487" type="line"/>
      <point x="154" y="487" type="line"/>
      <point x="24" y="-181" type="line"/>
      <point x="-62" y="-181" type="line"/>
      <point x="-66" y="-200" type="line"/>
      <point x="10" y="-200" type="line" smooth="yes"/>
      <point x="36" y="-200"/>
      <point x="43" y="-194"/>
      <point x="47" y="-171" type="curve" smooth="yes"/>
      <point x="175" y="487" type="line"/>
      <point x="389" y="487" type="line"/>
      <point x="298" y="32" type="line" smooth="yes"/>
      <point x="297" y="27"/>
      <point x="296" y="21"/>
      <point x="296" y="16" type="curve" smooth="yes"/>
      <point x="296" y="5"/>
      <point x="305" y="0"/>
      <point x="318" y="0" type="curve" smooth="yes"/>
      <point x="388" y="0" type="line"/>
      <point x="392" y="19" type="line"/>
      <point x="316" y="19" type="line"/>
      <point x="414" y="506" type="line"/>
      <point x="179" y="506" type="line"/>
      <point x="222" y="721" type="line"/>
      <point x="316" y="721" type="line"/>
      <point x="320" y="740" type="line"/>
      <point x="235" y="740" type="line" smooth="yes"/>
      <point x="209" y="740"/>
      <point x="204" y="732"/>
      <point x="198" y="704" type="curve" smooth="yes"/>
      <point x="158" y="506" type="line"/>
      <point x="70" y="506" type="line"/>
    </contour>
    <contour>
      <point x="438" y="673" type="curve" smooth="yes" name="hr01"/>
      <point x="451" y="673"/>
      <point x="459" y="679"/>
      <point x="462" y="690" type="curve" smooth="yes"/>
      <point x="464" y="697"/>
      <point x="465" y="702"/>
      <point x="465" y="706" type="curve" smooth="yes"/>
      <point x="465" y="715"/>
      <point x="461" y="722"/>
      <point x="445" y="722" type="curve" smooth="yes"/>
      <point x="432" y="722"/>
      <point x="424" y="716"/>
      <point x="421" y="705" type="curve" smooth="yes"/>
      <point x="419" y="698"/>
      <point x="418" y="693"/>
      <point x="418" y="689" type="curve" smooth="yes"/>
      <point x="418" y="680"/>
      <point x="422" y="673"/>
    </contour>
  </outline>
</glyph>
<glyph name="a.alt01" format="1">
  <advance width="490"/>
  <outline>
    <contour>
      <point x="176" y="-12" type="curve" smooth="yes"/>
      <point x="258" y="-12"/>
      <point x="310" y="30"/>
      <point x="335" y="78" type="curve"/>
      <point x="351" y="78" type="line"/>
      <point x="344" y="92" type="line"/>
      <point x="331" y="31" type="line" smooth="yes"/>
      <point x="330" y="26"/>
      <point x="329" y="20"/>
      <point x="329" y="15" type="curve" smooth="yes"/>
      <point x="329" y="4"/>
      <point x="339" y="0"/>
      <point x="352" y="0" type="curve" smooth="yes" name=""/>
      <point x="422" y="0" type="line"/>
      <point x="426" y="19" type="line"/>
      <point x="350" y="19" type="line"/>
      <point x="411" y="323" type="line" smooth="yes"/>
      <point x="415" y="344"/>
      <point x="417" y="369"/>
      <point x="417" y="392" type="curve" smooth="yes"/>
      <point x="417" y="465"/>
      <point x="369" y="518"/>
      <point x="279" y="518" type="curve" smooth="yes"/>
      <point x="193" y="518"/>
      <point x="141" y="478"/>
      <point x="104" y="411" type="curve"/>
      <point x="121" y="402" type="line"/>
      <point x="159" y="470"/>
      <point x="205" y="499"/>
      <point x="277" y="499" type="curve" smooth="yes"/>
      <point x="361" y="499"/>
      <point x="397" y="450"/>
      <point x="397" y="391" type="curve" smooth="yes"/>
      <point x="397" y="368"/>
      <point x="396" y="351"/>
      <point x="390" y="322" type="curve" smooth="yes"/>
      <point x="380" y="272" type="line"/>
      <point x="238" y="272" type="line" smooth="yes"/>
      <point x="107" y="272"/>
      <point x="37" y="216"/>
      <point x="37" y="103" type="curve" smooth="yes"/>
      <point x="37" y="30"/>
      <point x="90" y="-12"/>
    </contour>
    <contour>
      <point x="178" y="7" type="curve" smooth="yes"/>
      <point x="100" y="7"/>
      <point x="58" y="42"/>
      <point x="58" y="102" type="curve" smooth="yes"/>
      <point x="58" y="114"/>
      <point x="60" y="125"/>
      <point x="65" y="151" type="curve" smooth="yes"/>
      <point x="77" y="214"/>
      <point x="130" y="254"/>
      <point x="238" y="254" type="curve" smooth="yes"/>
      <point x="376" y="254" type="line"/>
      <point x="355" y="148" type="line" smooth="yes"/>
      <point x="336" y="54"/>
      <point x="258" y="7"/>
    </contour>
    <contour>
      <point x="173.0" y="0.0" type="move" name="bottom"/>
    </contour>
    <contour>
      <point x="422.0" y="0.0" type="move" name="bottomright"/>
    </contour>
    <contour>
      <point x="281.0" y="540.0" type="move" name="top"/>
    </contour>
  </outline>
</glyph>
<glyph name="aacute.alt01" format="1">
  <advance width="490"/>
  <outline>
    <component base="a.alt01"/>
    <component base="acute" xOffset="11"/>
    <contour>
      <point x="173.0" y="0.0" type="move" name="bottom"/>
    </contour>
    <contour>
      <point x="422.0" y="0.0" type="move" name="bottomright"/>
    </contour>
  </outline>
</glyph>
<glyph name="acute.case" format="1">
  <advance width="540"/>
  <outline>
    <contour>
      <point x="399" y="918" type="line" name="hr00"/>
      <point x="383" y="931" type="line"/>
      <point x="252" y="777" type="line"/>
      <point x="264" y="767" type="line"/>
    </contour>
    <contour>
      <point x="270" y="698" type="move" name="_top"/>
    </contour>
  </outline>
</glyph>
<glyph name="aogonek.alt01" format="1">
  <advance width="490"/>
  <outline>
    <contour>
      <point x="176" y="-12" type="curve" smooth="yes"/>
      <point x="258" y="-12"/>
      <point x="310" y="30"/>
      <point x="335" y="78" type="curve"/>
      <point x="351" y="78" type="line"/>
      <point x="344" y="92" type="line"/>
      <point x="331" y="31" type="line" smooth="yes"/>
      <point x="330" y="26"/>
      <point x="329" y="20"/>
      <point x="329" y="15" type="curve" smooth="yes"/>
      <point x="329" y="4"/>
      <point x="339" y="0"/>
      <point x="352" y="0" type="curve" smooth="yes" name=""/>
      <point x="407" y="0" type="line"/>
      <point x="395" y="9" type="line"/>
      <point x="398" y="-4" type="line"/>
      <point x="299" y="-58"/>
      <point x="274" y="-92"/>
      <point x="274" y="-140" type="curve" smooth="yes"/>
      <point x="274" y="-182"/>
      <point x="304" y="-202"/>
      <point x="341" y="-202" type="curve" smooth="yes"/>
      <point x="371" y="-202"/>
      <point x="396" y="-188"/>
      <point x="411" y="-170" type="curve"/>
      <point x="398" y="-159" type="line"/>
      <point x="387" y="-171"/>
      <point x="369" y="-184"/>
      <point x="341" y="-184" type="curve" smooth="yes"/>
      <point x="316" y="-184"/>
      <point x="295" y="-169"/>
      <point x="295" y="-140" type="curve" smooth="yes"/>
      <point x="295" y="-85"/>
      <point x="332" y="-56"/>
      <point x="422" y="0" type="curve"/>
      <point x="426" y="19" type="line"/>
      <point x="350" y="19" type="line"/>
      <point x="411" y="323" type="line" smooth="yes"/>
      <point x="415" y="344"/>
      <point x="417" y="369"/>
      <point x="417" y="392" type="curve" smooth="yes"/>
      <point x="417" y="465"/>
      <point x="369" y="518"/>
      <point x="279" y="518" type="curve" smooth="yes"/>
      <point x="193" y="518"/>
      <point x="141" y="478"/>
      <point x="104" y="411" type="curve"/>
      <point x="121" y="402" type="line"/>
      <point x="159" y="470"/>
      <point x="205" y="499"/>
      <point x="277" y="499" type="curve" smooth="yes"/>
      <point x="361" y="499"/>
      <point x="397" y="450"/>
      <point x="397" y="391" type="curve" smooth="yes"/>
      <point x="397" y="369"/>
      <point x="395" y="352"/>
      <point x="390" y="324" type="curve" smooth="yes"/>
      <point x="380" y="272" type="line"/>
      <point x="238" y="272" type="line" smooth="yes"/>
      <point x="107" y="272"/>
      <point x="37" y="216"/>
      <point x="37" y="103" type="curve" smooth="yes"/>
      <point x="37" y="30"/>
      <point x="90" y="-12"/>
    </contour>
    <contour>
      <point x="178" y="7" type="curve" smooth="yes"/>
      <point x="100" y="7"/>
      <point x="58" y="42"/>
      <point x="58" y="102" type="curve" smooth="yes"/>
      <point x="58" y="114"/>
      <point x="60" y="125"/>
      <point x="65" y="151" type="curve" smooth="yes"/>
      <point x="77" y="214"/>
      <point x="130" y="254"/>
      <point x="238" y="254" type="curve" smooth="yes"/>
      <point x="376" y="254" type="line"/>
      <point x="355" y="148" type="line" smooth="yes"/>
      <point x="336" y="54"/>
      <point x="258" y="7"/>
    </contour>
    <contour>
      <point x="281.0" y="540.0" type="move" name="top"/>
    </contour>
  </outline>
</glyph>
<glyph name="breve.alt01" format="1">
  <advance width="540"/>
  <outline>
    <contour>
      <point x="280" y="606" type="curve" smooth="yes" name="hr00"/>
      <point x="343" y="606"/>
      <point x="373" y="651"/>
      <point x="415" y="723" type="curve"/>
      <point x="400" y="730" type="line"/>
      <point x="376" y="694" type="line" smooth="yes"/>
      <point x="342" y="643"/>
      <point x="321" y="625"/>
      <point x="280" y="625" type="curve" smooth="yes"/>
      <point x="244" y="625"/>
      <point x="221" y="644"/>
      <point x="205" y="693" type="curve" smooth="yes"/>
      <point x="193" y="730" type="line"/>
      <point x="177" y="723" type="line"/>
      <point x="197" y="649"/>
      <point x="221" y="606"/>
    </contour>
    <contour>
      <point x="270" y="540" type="move" name="_top"/>
    </contour>
  </outline>
</glyph>
<glyph name="caron.case" format="1">
  <advance width="540"/>
  <outline>
    <contour>
      <point x="292" y="783" type="line" name="hr00"/>
      <point x="432" y="915" type="line"/>
      <point x="419" y="927" type="line"/>
      <point x="281" y="800" type="line"/>
      <point x="193" y="927" type="line"/>
      <point x="179" y="917" type="line"/>
      <point x="268" y="783" type="line"/>
    </contour>
    <contour>
      <point x="270" y="698" type="move" name="_top"/>
    </contour>
  </outline>
</glyph>
<glyph name="circumflex.alt01" format="1">
  <advance width="540"/>
  <outline>
    <contour>
      <point x="159" y="599" type="line" name="hr00"/>
      <point x="297" y="726" type="line"/>
      <point x="385" y="599" type="line"/>
      <point x="399" y="609" type="line"/>
      <point x="310" y="743" type="line"/>
      <point x="286" y="743" type="line"/>
      <point x="146" y="611" type="line"/>
    </contour>
    <contour>
      <point x="270" y="540" type="move" name="_top"/>
    </contour>
  </outline>
</glyph>
<glyph name="circumflex.case" format="1">
  <advance width="540"/>
  <outline>
    <contour>
      <point x="291" y="923" type="line" name="hr00"/>
      <point x="151" y="791" type="line"/>
      <point x="164" y="779" type="line"/>
      <point x="302" y="906" type="line"/>
      <point x="390" y="779" type="line"/>
      <point x="404" y="789" type="line"/>
      <point x="315" y="923" type="line"/>
    </contour>
    <contour>
      <point x="270" y="698" type="move" name="_top"/>
    </contour>
  </outline>
</glyph>
<glyph name="circumflexacute.case" format="1">
  <advance width="0"/>
  <outline>
    <contour>
      <point x="260" y="1028" type="line" name="hr00"/>
      <point x="244" y="1041" type="line"/>
      <point x="113" y="887" type="line"/>
      <point x="125" y="877" type="line"/>
    </contour>
    <contour>
      <point x="20" y="915" type="line"/>
      <point x="-120" y="783" type="line"/>
      <point x="-107" y="771" type="line"/>
      <point x="31" y="898" type="line"/>
      <point x="119" y="771" type="line"/>
      <point x="133" y="781" type="line"/>
      <point x="44" y="915" type="line"/>
    </contour>
    <contour>
      <point x="0" y="698" type="move" name="_top"/>
    </contour>
  </outline>
</glyph>
<glyph name="circumflexgrave" format="1">
  <advance width="0"/>
  <outline>
    <contour>
      <point x="-106" y="697" type="line" name="hr00"/>
      <point x="-90" y="706" type="line"/>
      <point x="-160" y="861" type="line"/>
      <point x="-179" y="850" type="line"/>
    </contour>
    <contour>
      <point x="15" y="735" type="line"/>
      <point x="-125" y="603" type="line"/>
      <point x="-112" y="591" type="line"/>
      <point x="26" y="718" type="line"/>
      <point x="114" y="591" type="line"/>
      <point x="128" y="601" type="line"/>
      <point x="39" y="735" type="line"/>
    </contour>
    <contour>
      <point x="0" y="540" type="move" name="_top"/>
    </contour>
  </outline>
</glyph>
<glyph name="circumflextilde.case" format="1">
  <advance width="0"/>
  <outline>
    <contour>
      <point x="99" y="953" type="curve" smooth="yes"/>
      <point x="124" y="953"/>
      <point x="147" y="962"/>
      <point x="175" y="992" type="curve"/>
      <point x="165" y="1004" type="line"/>
      <point x="142" y="981"/>
      <point x="123" y="971"/>
      <point x="103" y="971" type="curve" smooth="yes"/>
      <point x="82" y="971"/>
      <point x="69" y="979"/>
      <point x="45" y="997" type="curve" smooth="yes"/>
      <point x="18" y="1017"/>
      <point x="4" y="1027"/>
      <point x="-21" y="1027" type="curve" smooth="yes"/>
      <point x="-46" y="1027"/>
      <point x="-69" y="1018"/>
      <point x="-97" y="988" type="curve"/>
      <point x="-87" y="976" type="line"/>
      <point x="-64" y="999"/>
      <point x="-45" y="1009"/>
      <point x="-25" y="1009" type="curve" smooth="yes"/>
      <point x="-4" y="1009"/>
      <point x="9" y="1001"/>
      <point x="33" y="983" type="curve" smooth="yes"/>
      <point x="60" y="963"/>
      <point x="74" y="953"/>
    </contour>
    <contour>
      <point x="19" y="915" type="line" name="hr00"/>
      <point x="-121" y="783" type="line"/>
      <point x="-108" y="771" type="line"/>
      <point x="30" y="898" type="line"/>
      <point x="118" y="771" type="line"/>
      <point x="132" y="781" type="line"/>
      <point x="43" y="915" type="line"/>
    </contour>
    <contour>
      <point x="0" y="698" type="move" name="_top"/>
    </contour>
  </outline>
</glyph>
<glyph name="dieresiscaron" format="1">
  <advance width="0"/>
  <outline>
    <contour>
      <point x="34" y="704" type="line" name="hr00"/>
      <point x="177" y="836" type="line"/>
      <point x="165" y="848" type="line"/>
      <point x="24" y="721" type="line"/>
      <point x="-62" y="848" type="line"/>
      <point x="-76" y="838" type="line"/>
      <point x="12" y="704" type="line"/>
    </contour>
    <contour>
      <point x="-72" y="634" type="curve" smooth="yes"/>
      <point x="-58" y="634"/>
      <point x="-52" y="640"/>
      <point x="-49" y="651" type="curve" smooth="yes"/>
      <point x="-48" y="655"/>
      <point x="-47" y="661"/>
      <point x="-47" y="666" type="curve" smooth="yes"/>
      <point x="-47" y="674"/>
      <point x="-51" y="683"/>
      <point x="-65" y="683" type="curve" smooth="yes"/>
      <point x="-79" y="683"/>
      <point x="-85" y="677"/>
      <point x="-88" y="666" type="curve" smooth="yes"/>
      <point x="-89" y="662"/>
      <point x="-90" y="656"/>
      <point x="-90" y="651" type="curve" smooth="yes"/>
      <point x="-90" y="643"/>
      <point x="-86" y="634"/>
    </contour>
    <contour>
      <point x="91" y="634" type="curve" smooth="yes"/>
      <point x="105" y="634"/>
      <point x="111" y="640"/>
      <point x="114" y="651" type="curve" smooth="yes"/>
      <point x="115" y="655"/>
      <point x="116" y="661"/>
      <point x="116" y="666" type="curve" smooth="yes"/>
      <point x="116" y="674"/>
      <point x="112" y="683"/>
      <point x="98" y="683" type="curve" smooth="yes"/>
      <point x="84" y="683"/>
      <point x="78" y="677"/>
      <point x="75" y="666" type="curve" smooth="yes"/>
      <point x="74" y="662"/>
      <point x="73" y="656"/>
      <point x="73" y="651" type="curve" smooth="yes"/>
      <point x="73" y="643"/>
      <point x="77" y="634"/>
    </contour>
    <contour>
      <point x="0" y="540" type="move" name="_top"/>
    </contour>
  </outline>
</glyph>
<glyph name="dotaccent.case" format="1">
  <advance width="540"/>
  <outline>
    <contour>
      <point x="286" y="822" type="curve" smooth="yes" name="hr00"/>
      <point x="300" y="822"/>
      <point x="306" y="828"/>
      <point x="309" y="839" type="curve" smooth="yes"/>
      <point x="310" y="843"/>
      <point x="311" y="849"/>
      <point x="311" y="854" type="curve" smooth="yes"/>
      <point x="311" y="862"/>
      <point x="307" y="871"/>
      <point x="293" y="871" type="curve" smooth="yes"/>
      <point x="279" y="871"/>
      <point x="273" y="865"/>
      <point x="270" y="854" type="curve" smooth="yes"/>
      <point x="269" y="850"/>
      <point x="268" y="844"/>
      <point x="268" y="839" type="curve" smooth="yes"/>
      <point x="268" y="831"/>
      <point x="272" y="822"/>
    </contour>
    <contour>
      <point x="270" y="698" type="move" name="_top"/>
    </contour>
  </outline>
</glyph>
<glyph name="four.tosf" format="1">
  <advance width="540"/>
  <outline>
    <contour>
      <point x="308" y="-164" type="line" name=""/>
      <point x="340" y="0" type="line"/>
      <point x="445" y="0" type="line"/>
      <point x="449" y="19" type="line"/>
      <point x="344" y="19" type="line"/>
      <point x="444" y="526" type="line"/>
      <point x="412" y="526" type="line"/>
      <point x="3" y="20" type="line"/>
      <point x="-1" y="0" type="line"/>
      <point x="319" y="0" type="line"/>
      <point x="287" y="-164" type="line"/>
    </contour>
    <contour>
      <point x="323" y="19" type="line"/>
      <point x="26" y="19" type="line"/>
      <point x="414" y="498" type="line"/>
      <point x="418" y="498" type="line"/>
    </contour>
  </outline>
</glyph>
<glyph name="fraction.alt01" format="1">
  <advance width="101"/>
  <outline>
    <contour>
      <point x="123" y="434" type="line" name="hr00"/>
      <point x="146" y="434" type="line"/>
      <point x="359" y="698" type="line"/>
      <point x="336" y="698" type="line"/>
    </contour>
    <contour>
      <point x="-227" y="0" type="line"/>
      <point x="-204" y="0" type="line"/>
      <point x="1" y="254" type="line"/>
      <point x="-22" y="254" type="line"/>
    </contour>
  </outline>
</glyph>
